<?xml version="1.0" standalone="no"?>
<!DOCTYPE svg PUBLIC "-//W3C//DTD SVG 1.1//EN" "http://www.w3.org/Graphics/SVG/1.1/DTD/svg11.dtd" >
<svg xmlns="http://www.w3.org/2000/svg" xmlns:xlink="http://www.w3.org/1999/xlink" version="1.1">
<metadata></metadata>
<defs>
<font id="cardobold" horiz-adv-x="0" >
<font-face units-per-em="2048" ascent="1638" descent="-410" />
<missing-glyph horiz-adv-x="550" />
<glyph unicode="&#xd;" horiz-adv-x="1024" />
<glyph unicode=" "  horiz-adv-x="550" />
<glyph unicode="&#x09;" horiz-adv-x="550" />
<glyph unicode="&#xa0;" horiz-adv-x="550" />
<glyph unicode="!" horiz-adv-x="544" d="M328 461q-2 -28 -16 -45.5t-40 -17.5t-40.5 17.5t-16.5 45.5l-74 963v53q0 22 11 31t30 9q5 0 12.5 0.5t17.5 0.5q13 1 30.5 1h29.5h38.5t38.5 -2q12 0 28.5 -6.5t24.5 -28.5v-58zM130 103q0 29 11.5 55t31 45.5t45 30.5t54.5 11q30 0 56 -11.5t45 -31.5t30 -46t11 -54 q0 -29 -11 -54.5t-30.5 -45t-45.5 -30.5t-55 -11q-31 0 -57 11t-45 30.5t-29.5 45t-10.5 55.5z" />
<glyph unicode="&#x22;" horiz-adv-x="930" d="M204 776q-9 76 -22 159t-25 159.5t-20.5 139.5t-8.5 99q0 21 12.5 40t32 34t44.5 23.5t49 8.5q27 0 52 -8.5t44.5 -23.5t31.5 -34t12 -40q0 -37 -7.5 -100t-19 -139.5t-25 -159.5t-24.5 -159zM600 776q-9 76 -22 159t-25 159.5t-20.5 139.5t-8.5 99q0 21 12.5 40t32 34 t44.5 23.5t49 8.5q27 0 52 -8.5t44.5 -23.5t31.5 -34t12 -40q0 -37 -7.5 -100t-19 -139.5t-25 -159.5t-24.5 -159z" />
<glyph unicode="#" horiz-adv-x="1238" d="M139 1105h270q24 115 50.5 236.5t50.5 236.5h169l-101 -473h210q24 115 50.5 236.5t50.5 236.5h169l-101 -473h273l-38 -161h-270q-9 -42 -16.5 -80t-15 -75t-15 -75t-16.5 -80h276l-37 -161h-274q-26 -125 -53 -254.5t-53 -253.5h-175l108 508h-206q-26 -125 -53 -254.5 t-53 -253.5h-175l108 508h-270l41 161h264q9 42 17.5 80t16.5 75t16.5 75t17.5 80h-280zM480 634h206q9 41 17 79t16 75.5t16 75.5t17 80h-209z" />
<glyph unicode="$" horiz-adv-x="1049" d="M656 1422v-1641h-70v1641h70zM563 529q-8 4 -15.5 7.5t-15.5 8.5q-40 22 -86.5 48.5t-92 57.5t-88 66.5t-74.5 75.5t-51.5 83.5t-19.5 91.5t17.5 94.5t50.5 86.5t81 70t109 47l56 11q24 3 55 3q23 0 47 -1.5t49 -5.5l56 -10q48 -11 97 -27.5t88.5 -41t65 -57t25.5 -73.5 q0 -18 -8.5 -33t-23 -26.5t-32.5 -17.5t-37 -6q-23 0 -41.5 8t-33.5 21.5t-28 30.5t-26 36q-26 38 -55.5 71.5t-61.5 40.5q-20 6 -39.5 8.5t-42.5 2.5q-5 0 -11 -0.5t-16 -2t-26 -4t-40 -7.5q-28 -9 -45 -26t-26 -37.5t-11.5 -42t-2.5 -40.5q0 -45 21.5 -82.5t56 -70.5 t76.5 -61t84 -53q34 -20 64.5 -38.5t43.5 -28.5q6 -4 11.5 -7t7.5 -4q56 -30 108.5 -68.5t92.5 -83.5t64 -96t24 -106q0 -74 -24.5 -133.5t-68 -104t-103 -73.5t-128.5 -41l-56 -9q-23 -3 -46.5 -5t-49.5 -2q-32 0 -54 3l-56 9q-53 12 -103 35t-89 55t-62.5 71.5t-23.5 83.5 q0 42 26.5 67.5t70.5 25.5q20 0 35 -7.5t26.5 -21t20.5 -31.5t17 -38t17.5 -41t22 -41t28.5 -37t38 -28l-5 1q13 -5 26.5 -10t26.5 -9h-1q32 -10 70 -11q11 0 24 1t27 3q14 4 27.5 7t26.5 7h-3q65 24 103.5 79t38.5 133q0 34 -12 64.5t-37 60.5t-63.5 60.5t-91.5 65.5z M465 1422v-1641h-70v1641h70z" />
<glyph unicode="%" horiz-adv-x="1812" d="M1411 -24q-68 0 -120 31t-87 86.5t-53 133t-18 170.5q0 74 18 149.5t53 136t87 99t120 38.5q69 0 120 -38t84.5 -99t50.5 -136t17 -150q0 -93 -17 -170.5t-51 -133t-85 -86.5t-119 -31zM1274 397q0 -71 4.5 -135t19 -112.5t41.5 -77.5t72 -29q46 0 72 29.5t39 78.5 t16 113.5t3 133.5q0 38 -2 79t-7 80.5t-14.5 75.5t-23.5 62.5t-34.5 42.5t-47.5 16q-45 0 -72.5 -34.5t-42 -87.5t-19 -116t-4.5 -119zM1371 1480h190l-1101 -1535h-189zM424 608q-68 0 -120 31t-87 86.5t-53 133t-18 170.5q0 74 18 149.5t53 136t87 99t120 38.5 q69 0 120 -38t84.5 -99t50.5 -136t17 -150q0 -93 -17 -170.5t-51 -133t-85 -86.5t-119 -31zM287 1029q0 -71 4.5 -135t19 -112.5t41.5 -77.5t72 -29q46 0 72 29.5t39 78.5t16 113.5t3 133.5q0 38 -2 79t-7 80.5t-14.5 75.5t-23.5 62.5t-34.5 42.5t-47.5 16 q-45 0 -72.5 -34.5t-42 -87.5t-19 -116t-4.5 -119z" />
<glyph unicode="&#x26;" horiz-adv-x="1592" d="M1183 174q21 -36 47.5 -63.5t59.5 -27.5q10 0 30 6.5t41.5 15t41.5 15t31 6.5q14 0 22.5 -5t12.5 -11t5 -11.5t1 -7.5q0 -4 -3 -12.5t-19 -19.5q-56 -36 -120.5 -63t-140.5 -27q-48 0 -84 15.5t-64.5 40.5t-52 57.5t-45.5 66.5q-10 14 -19.5 29t-20.5 30 q-48 -42 -104.5 -84t-119 -75.5t-130 -54.5t-138.5 -21q-83 0 -154.5 35t-124 92t-82.5 129.5t-30 147.5q0 76 28.5 137t79 111.5t118.5 90.5t148 74q-34 34 -61.5 67t-46.5 67t-29 71t-10 81q0 66 29.5 115.5t77.5 83t109 50t124 16.5q55 0 110 -18t99 -50.5t71 -79 t27 -103.5q0 -46 -19 -85.5t-49 -73t-68 -61t-76 -49.5q-4 -3 -5.5 -4t-1.5 -4q0 -5 6 -9q4 -3 23 -20t56 -54t93 -97t133 -149l215 325q9 14 14 26t5 30q0 25 -12 32t-25 9q-14 3 -27 5.5t-23 7t-16 12t-6 18.5q0 4 0.5 9.5t5 11t13.5 9t26 3.5h391q11 -17 13 -26t2 -11 q0 -22 -12 -29t-33 -9q-23 -3 -46.5 -5.5t-45.5 -8.5t-41.5 -18.5t-33.5 -34.5l-290 -460zM510 122q44 0 88 17t85.5 41.5t80.5 53t72 52.5q11 8 11 15q0 3 -2 7q-72 128 -162 229t-196 189q-5 -2 -17 -9t-20 -12q-39 -23 -71.5 -57t-56 -75.5t-36.5 -89t-13 -95.5 q0 -51 18.5 -99t51 -85t75.5 -59.5t92 -22.5zM467 1115q0 -35 9.5 -69t26 -64t39.5 -55.5t50 -44.5q24 9 43 32t32 51.5t20 59t7 55.5q0 36 -6.5 67.5t-21 54.5t-37.5 36t-57 13q-51 0 -78 -39t-27 -97z" />
<glyph unicode="'" horiz-adv-x="534" d="M204 776q-9 76 -22 159t-25 159.5t-20.5 139.5t-8.5 99q0 21 12.5 40t32 34t44.5 23.5t49 8.5q27 0 52 -8.5t44.5 -23.5t31.5 -34t12 -40q0 -37 -7.5 -100t-19 -139.5t-25 -159.5t-24.5 -159z" />
<glyph unicode="(" horiz-adv-x="695" d="M171 608q0 147 24.5 293.5t72.5 286t120.5 269t168.5 241.5q9 11 15.5 15.5t22.5 4.5q11 0 24 -11t24.5 -26t19.5 -29.5t8 -21.5q0 -15 -11 -39q-144 -220 -222.5 -463t-78.5 -525q0 -273 78.5 -514.5t222.5 -461.5q11 -20 11 -39q0 -7 -8 -21.5t-19.5 -29.5t-24.5 -26 t-24 -11q-16 0 -22 4.5t-17 16.5q-94 113 -166 241.5t-120.5 267.5t-73.5 285t-25 293z" />
<glyph unicode=")" horiz-adv-x="695" d="M524 608q0 -146 -25.5 -291.5t-75 -285t-121.5 -269t-165 -242.5q-8 -10 -15.5 -15t-21.5 -5q-11 0 -24 11t-24.5 26t-19.5 29.5t-8 21.5q0 10 2 20t8 19q145 221 223 462.5t78 513.5q0 141 -20 271.5t-58 253t-94.5 238t-128.5 225.5q-6 10 -8 19.5t-2 19.5q0 7 8 21.5 t19.5 29.5t24.5 26t24 11q15 0 21 -4.5t17 -16.5q97 -111 169.5 -240t120.5 -268.5t72 -286.5t24 -294z" />
<glyph unicode="*" horiz-adv-x="811" d="M743 1411l28 -92l-224 -116l111 -225l-76 -56l-178 179l-180 -175l-80 53l115 226l-219 116l22 93l251 -38q11 60 22.5 125.5t20.5 122.5h96l40 -249z" />
<glyph unicode="+" horiz-adv-x="1049" d="M68 719h365v379h187v-379h360v-187h-360v-375h-187v375h-365v187z" />
<glyph unicode="," horiz-adv-x="600" d="M209 -302q-20 0 -25 13t-5 24q1 13 8.5 24t18.5 20t22.5 17.5t20.5 16.5q14 14 29 31t27 36t20 39t8 40q0 8 -2.5 17t-19.5 9q-32 0 -65.5 10t-61.5 30t-45.5 49.5t-17.5 68.5q0 38 12 67.5t34 49.5t51.5 30.5t65.5 10.5q62 0 100.5 -23.5t59.5 -57t28 -70t7 -63.5 q0 -54 -17 -106t-44.5 -98t-63.5 -85t-74 -67q-15 -11 -34.5 -22t-36.5 -11z" />
<glyph unicode="-" horiz-adv-x="973" d="M888 608v-197h-803v197h803z" />
<glyph unicode="." horiz-adv-x="594" d="M130 130q0 34 13 64.5t36 53.5t53 36t65 13q34 0 64.5 -13t53.5 -36t36 -53.5t13 -64.5q0 -35 -13 -65t-36 -53t-53.5 -36t-64.5 -13q-35 0 -65 13t-53 36t-36 53t-13 65z" />
<glyph unicode="/" horiz-adv-x="724" d="M529 1452h190l-525 -1479h-189z" />
<glyph unicode="0" horiz-adv-x="1049" d="M531 -26q-114 0 -201 51.5t-145.5 144t-88.5 221.5t-30 284q0 82 13.5 166.5t39.5 163t65.5 147t91 119t115.5 80t140 29.5t139.5 -29t113.5 -80t87.5 -119.5t62 -147t37 -163t12.5 -167.5q0 -155 -28 -284t-84.5 -221.5t-141 -143.5t-198.5 -51zM302 674q0 -78 3 -154.5 t12 -146t24.5 -128.5t41 -102t62 -67.5t86.5 -24.5t86 25t60 68.5t38 103.5t21 129.5t9 145.5t2 153q0 63 -3.5 134.5t-12 141t-23.5 133t-39 112t-58 77.5t-79 29q-50 0 -87 -29t-62.5 -78t-41.5 -113t-24.5 -134t-11.5 -141t-3 -134z" />
<glyph unicode="1" horiz-adv-x="1049" d="M247 0q-31 0 -39 7t-8 16v53q0 8 7.5 15t36.5 8q21 0 50.5 0.5t58.5 2t52.5 6t32.5 12.5v1011q-33 -22 -56.5 -37t-44.5 -26.5t-42 -22.5t-50 -26q-5 -3 -18 -8.5t-21 -5.5q-9 0 -14.5 10.5t-20.5 33.5q-1 2 -1 5q0 4 5 7.5t18 12.5q30 19 69 51t82.5 72t88.5 86.5 t86 95.5h76q19 0 30.5 -1.5t17.5 -5t7.5 -9.5t1.5 -16v-1145q0 -14 0.5 -28.5t1 -26.5t2 -20t3.5 -8q12 -8 29.5 -12t38 -5.5t43 -2t44.5 -0.5q31 0 39 -8t8 -15v-53q0 -7 -8 -15t-39 -8h-567v0z" />
<glyph unicode="2" horiz-adv-x="1049" d="M100 0q-17 0 -25.5 1t-13 5t-5 12t-0.5 22q0 17 12 33t29 36q48 57 104 114t113 114q76 76 146 153t123.5 153t85 150.5t31.5 146.5q0 54 -19.5 106.5t-52.5 93.5t-76.5 66t-91.5 25q-52 0 -97.5 -20t-82.5 -53.5t-62.5 -77t-36.5 -89.5q-3 -11 -5 -20.5t-7 -16 t-16 -10.5t-30 -4h-9q-14 0 -21.5 3.5t-7.5 17.5q0 5 4.5 37t16 74t31 86.5t49.5 74.5h-1q41 42 80.5 70t80 45t83 24.5t90.5 7.5q97 0 176.5 -31t136 -85.5t87 -128.5t30.5 -160q0 -62 -28 -123.5t-78.5 -125.5t-121 -130.5t-155.5 -139.5q-9 -7 -29 -26t-46.5 -44.5 t-56.5 -55t-57.5 -57.5t-50.5 -52t-35 -39h543q22 0 36 6.5t24.5 23t19.5 44.5t20 70h65l-46 -282q-3 -14 -17 -29t-49 -15h-787v0z" />
<glyph unicode="3" horiz-adv-x="1049" d="M425 -26q-31 0 -71 1.5t-82 7.5t-82 16.5t-71.5 28t-50.5 43.5t-19 62q0 22 10 39t27 28t38.5 17t45.5 6q28 0 52.5 -12t47 -29.5t44.5 -38t46 -38t51 -29.5t59 -12q59 5 104 41t75 89.5t45 117t15 123.5q0 74 -17 126t-42.5 85t-56.5 48.5t-59 15.5q-23 0 -40 -5 t-30 -11.5t-22 -14t-17 -12.5q-7 -5 -15 -8t-25 -3q-18 0 -28.5 13.5t-10.5 24.5q0 6 12.5 20.5t23.5 24.5q36 32 75.5 72t71.5 84t53 90t21 91q0 34 -13.5 65.5t-36 56.5t-51 40t-58.5 15q-57 0 -100 -19.5t-74 -48.5t-52 -61.5t-35 -58.5q-6 -11 -13.5 -14t-19.5 -3 q-5 0 -12.5 2t-14.5 6t-12 10t-5 14q0 -1 1.5 3t3.5 9t5 12q25 60 65.5 111t89.5 87.5t104 57t110 20.5q79 0 143 -16t110 -47t71 -76.5t25 -104.5q0 -45 -18.5 -86t-48 -78.5t-67 -70.5t-76.5 -60q88 -9 151 -42t103.5 -82.5t59.5 -111.5t19 -128q0 -74 -24 -140.5 t-64 -122t-93.5 -100t-112.5 -76t-120.5 -48t-117.5 -16.5z" />
<glyph unicode="4" horiz-adv-x="1049" d="M46 395v10.5t0.5 13.5t1 12.5t2.5 7.5l600 917q6 9 14 13.5t17 6.5t17.5 2.5t14.5 0.5q8 0 21.5 -0.5t26 -3t22 -7.5t9.5 -15v-782q0 -19 2.5 -22t16.5 -3h167q11 0 21 -2t10 -16v-148q0 -24 -20 -24h-182q-11 0 -13 -2.5t-2 -17.5v-325q0 -5 -3.5 -16t-23.5 -11h-178 q-14 0 -17 9t-3 14v319q0 11 -0.5 17t-4.5 9t-12 3.5t-23 0.5h-437q-19 0 -31.5 12.5t-12.5 26.5zM235 558q0 -8 6.5 -10t25.5 -2h278q13 0 16.5 6t5.5 14v401q0 14 -3.5 26.5t-14.5 12.5q-8 0 -15.5 -7.5l-13.5 -13.5l-274 -410q-2 -2 -3.5 -4.5t-3.5 -5.5q-2 -4 -4 -7z " />
<glyph unicode="5" horiz-adv-x="1049" d="M84 111q0 21 10.5 37.5t27 28.5t38 18.5t43.5 6.5q37 0 69 -23t63.5 -51t64 -51t70.5 -23q49 0 85 17t62.5 45t43.5 64t27.5 74t14.5 74.5t4 66.5q0 71 -14 122t-37.5 87t-53 58t-60 34.5t-59.5 16.5t-51 4q-25 0 -51 -8t-49 -19t-41.5 -22.5t-29.5 -18.5q-6 -2 -10 -4.5 t-8.5 -4.5t-10.5 -3.5t-16 -1.5q-22 0 -35 6.5t-14 22.5l30 676h556q9 0 14.5 3.5t9 9t6 12.5t7.5 15h69l-27 -215h-538l-15 -307q18 6 42.5 11t53 8.5t57.5 6t56 2.5q42 0 92 -11t101 -33t98.5 -56t84.5 -80.5t59 -106t22 -131.5q0 -96 -23 -170t-62.5 -129t-92 -92 t-111.5 -60t-121.5 -33t-120.5 -10q-18 0 -49.5 2.5t-68 8t-74.5 15.5t-68.5 25t-50 36.5t-19.5 49.5z" />
<glyph unicode="6" horiz-adv-x="1049" d="M60 506q0 136 42 246t126 206.5t209.5 185t293.5 180.5q9 5 28 14t41 18t44.5 15.5t40.5 6.5q33 0 47.5 -3t14.5 -17q0 -10 -24.5 -28.5t-57.5 -38.5t-65 -39t-47 -29q-30 -21 -78 -56.5t-97 -79.5t-89 -92.5t-55 -94.5q14 4 34 7t47 3q104 0 190.5 -37t148.5 -100.5 t96.5 -148.5t34.5 -181q0 -98 -35 -183.5t-98 -149t-149.5 -100t-188.5 -36.5q-74 0 -136.5 21t-113 58.5t-89 88.5t-64 110t-38.5 123.5t-13 130.5zM526 55q60 0 100 33.5t64 86t34 116.5t10 125q0 78 -11 151.5t-39 130t-76 91t-123 34.5q-56 0 -92 -28.5t-56 -79 t-27.5 -118.5t-7.5 -147q0 -41 4 -86.5t14 -89.5t26.5 -83.5t41.5 -70t59 -48t79 -17.5z" />
<glyph unicode="7" horiz-adv-x="1049" d="M297 10q21 49 53.5 121t71.5 157t81.5 178t83.5 183.5t79 173.5t67 148.5t46.5 108t19.5 52.5h-537q-27 0 -42 -12.5t-20 -26.5l-53 -130q-7 -17 -14 -23t-30 -6q-25 0 -35 9t-8 18l60 345q1 3 3.5 9t8.5 11.5t16 9.5t26 4h759q26 0 46.5 -9t20.5 -35q0 -15 -4.5 -43 t-15.5 -52l-553 -1227h-130v36z" />
<glyph unicode="8" horiz-adv-x="1049" d="M142 316q0 62 19 113.5t51.5 96t76.5 83.5t95 77q-40 40 -77 79.5t-65.5 82.5t-45.5 91t-17 106q0 75 24 136.5t68.5 105.5t109 68.5t145.5 24.5q72 0 136 -23t112 -64.5t76 -99.5t28 -127q0 -29 -10.5 -61t-27.5 -63.5t-40 -62.5t-48.5 -57.5t-51.5 -47.5t-49 -34 q50 -42 96 -82.5t81 -88t56 -105t21 -132.5q0 -72 -28 -137t-77.5 -113.5t-117 -77.5t-145.5 -29q-77 0 -148.5 24t-126.5 68.5t-87.5 107.5t-32.5 141zM345 310q0 -54 13 -101.5t38 -83.5t61 -57t82 -21q27 0 55 14.5t51 46t37.5 80.5t14.5 118q0 44 -24.5 88.5t-60 85 t-76 75t-72.5 59.5q-59 -45 -89 -123t-30 -181zM376 1118q0 -51 16.5 -94.5t44 -81t63.5 -71t74 -65.5q5 -5 9 -5t9.5 3.5t15.5 12.5q21 22 36 51t24 61.5t13.5 67.5t4.5 70q0 45 -8.5 89t-28 78t-50.5 55t-75 21q-36 0 -64 -15.5t-46.5 -41.5t-28 -61t-9.5 -74z" />
<glyph unicode="9" horiz-adv-x="1049" d="M82 -7q0 12 12.5 22t28.5 18q60 31 123 67.5t123 79.5t115 93.5t100 110.5q6 7 13.5 18.5t15.5 23.5t15.5 24t12.5 21q-40 -11 -80.5 -18t-86.5 -7q-102 0 -180.5 40t-132 104t-81.5 145t-28 164q0 90 31 176t88.5 154t140 109.5t185.5 41.5q118 0 210.5 -43t156.5 -116 t98 -169.5t34 -203.5q0 -138 -44.5 -259.5t-123.5 -223t-188 -182t-238 -136.5q-27 -12 -58.5 -25t-66.5 -24t-73 -18t-77 -7q-23 0 -34 3t-11 17zM542 531q40 0 78.5 13t70.5 38q15 11 23.5 45t13.5 76t6.5 84.5t1.5 71.5q0 41 -2.5 89.5t-10.5 97.5t-23 94.5t-40.5 81 t-63 56.5t-89.5 21q-65 0 -104.5 -40t-60.5 -101.5t-28 -134.5t-7 -139q0 -62 15 -125t44.5 -113.5t73.5 -82.5t102 -32z" />
<glyph unicode=":" horiz-adv-x="594" d="M130 775q0 34 13 64.5t36 53.5t53 36t65 13q34 0 64.5 -13t53.5 -36t36 -53.5t13 -64.5q0 -35 -13 -65t-36 -53t-53.5 -36t-64.5 -13q-35 0 -65 13t-53 36t-36 53t-13 65zM130 127q0 34 13 64.5t36 53.5t53 36t65 13q34 0 64.5 -13t53.5 -36t36 -53.5t13 -64.5 q0 -35 -13 -65t-36 -53t-53.5 -36t-64.5 -13q-35 0 -65 13t-53 36t-36 53t-13 65z" />
<glyph unicode=";" horiz-adv-x="600" d="M138 772q0 34 13 64.5t36 53.5t53 36t65 13q34 0 64.5 -13t53.5 -36t36 -53.5t13 -64.5q0 -35 -13 -65t-36 -53t-53.5 -36t-64.5 -13q-35 0 -65 13t-53 36t-36 53t-13 65zM209 -302q-20 0 -25 13t-5 24q1 13 8.5 24t18.5 20t22.5 17.5t20.5 16.5q14 14 29 31t27 36t20 39 t8 40q0 8 -2.5 17t-19.5 9q-32 0 -65.5 10t-61.5 30t-45.5 49.5t-17.5 68.5q0 38 12 67.5t34 49.5t51.5 30.5t65.5 10.5q62 0 100.5 -23.5t59.5 -57t28 -70t7 -63.5q0 -54 -17 -106t-44.5 -98t-63.5 -85t-74 -67q-15 -11 -34.5 -22t-36.5 -11z" />
<glyph unicode="&#x3c;" horiz-adv-x="1049" d="M438 625q112 -67 228.5 -136.5t228.5 -135.5v-224l-741 441v106l741 433v-218z" />
<glyph unicode="=" horiz-adv-x="1049" d="M980 904v-187h-910v187h910zM980 534v-187h-910v187h910z" />
<glyph unicode="&#x3e;" horiz-adv-x="1049" d="M154 892v218l741 -433v-106l-741 -441v224q112 66 228.5 135.5t228.5 136.5z" />
<glyph unicode="?" horiz-adv-x="778" d="M272 358q-8 0 -19.5 14.5t-23.5 38t-23.5 52.5t-21 57.5t-16 54t-7.5 41.5q0 64 25 104t64.5 67t88.5 45t96 38q31 13 58.5 30t48 39.5t32.5 52t12 67.5q0 46 -21 76t-67 47.5t-120 24t-180 6.5q-18 1 -37 8.5t-34.5 19.5t-26 29.5t-10.5 38.5q0 30 9 56.5t29 46.5 t52.5 31.5t79.5 11.5q84 0 156 -35t124.5 -94.5t82.5 -137t30 -162.5q0 -59 -18 -119t-50 -113.5t-76 -96.5t-96 -68q-25 -12 -50.5 -22t-45.5 -24.5t-33 -36.5t-13 -58q0 -21 2 -31t6.5 -18.5t10.5 -19.5t15 -33q0 -2 -4.5 -7t-10 -9.5t-11 -8t-7.5 -3.5zM116 115 q0 31 12 59t32.5 49t48 33t59.5 12q31 0 59 -12t48 -33t32 -49t12 -59t-12 -59t-32 -49.5t-48 -34t-59 -12.5q-32 0 -59.5 12.5t-48 34t-32.5 49.5t-12 59z" />
<glyph unicode="@" horiz-adv-x="2049" d="M1949 162q-52 -137 -133.5 -249.5t-190 -195.5t-242.5 -132.5t-291 -59.5q-134 0 -256 31t-227 88.5t-189.5 140t-144.5 184.5t-92.5 222.5t-32.5 254.5t32.5 261.5t92.5 241t144.5 208.5t189 164t226.5 107.5t256 38.5q126 0 233 -28.5t193.5 -78.5t152 -119 t109.5 -150.5t66.5 -171.5t22.5 -183q0 -111 -24 -209t-66 -180.5t-98.5 -147.5t-121.5 -110.5t-135 -69.5t-139 -24q-31 0 -72.5 3t-78.5 17t-63 44.5t-26 84.5q0 44 5.5 73t10.5 53q-8 -8 -18 -16t-21 -18q-34 -30 -75 -65.5t-82 -66t-78 -51t-63 -20.5q-32 0 -55 15.5 t-39 41t-26 57t-15.5 63.5t-7.5 60.5t-2 48.5q0 96 33.5 185t90.5 167t133.5 142t163.5 110t179 71.5t181 25.5q18 0 27.5 -5.5t14 -14.5t5 -19.5t0.5 -19.5l-152 -697l1 2l-2 -16q-1 -6 -1.5 -12t-0.5 -9q0 -46 25.5 -70.5t66.5 -24.5q54 0 103.5 25.5t93 69.5t79.5 101.5 t61.5 122t39.5 131t14 127.5q0 119 -41.5 228t-123 194t-201.5 138t-277 61q-111 -7 -214 -44.5t-192.5 -98.5t-163 -142.5t-126 -177.5t-81.5 -203.5t-29 -219.5q0 -173 61 -317t169 -248.5t255.5 -162.5t320.5 -58q133 0 246 38.5t204.5 109.5t162.5 171.5t120 223.5h97z M772 348q0 -17 1.5 -38.5t7 -40.5t16.5 -32t31 -13q33 0 70 25.5t72 61t66.5 72t52.5 59.5l92 404q-45 -1 -91.5 -14t-88.5 -35.5t-77.5 -54t-59.5 -69.5q-48 -76 -67.5 -156t-24.5 -169z" />
<glyph unicode="A" horiz-adv-x="1541" d="M5 47q0 8 8 8q19 1 44.5 5.5t52 19t51.5 43t42 78.5l402 1166q0 -1 0.5 1t0.5 4q0 7 -5.5 17.5t-5.5 15.5t4 5h290q2 -1 5.5 -2t5.5 -6l423 -1187q10 -28 19 -48t21.5 -35.5t31.5 -28t49 -25.5q14 -7 38 -15t46 -8q5 0 6.5 -3t1.5 -6v-38q0 -2 -1.5 -5t-6.5 -3h-702 q-5 0 -6.5 3t-1.5 5v39q0 2 1.5 5t6.5 3q4 0 8 0.5t6 0.5q11 1 31.5 2t44.5 3.5t48.5 8t44.5 16t33 27.5t13 42q0 6 -2 14l-131 361q-1 2 -3.5 9t-8 14.5t-14 13.5t-20.5 6h-361q-13 0 -22 -6t-15 -13t-9.5 -14t-3.5 -8q-32 -94 -54 -158.5t-36.5 -106.5t-22.5 -65 t-11.5 -33.5t-4 -13l-0.5 -2.5q0 -3 1 -6.5t2 -6.5q8 -25 29.5 -41.5t49.5 -26t57.5 -13.5t52.5 -4h26q5 0 6.5 -3t1.5 -5v-39q0 -2 -1.5 -5t-6.5 -3h-541q-8 0 -8 8v39zM529 717q-2 -5 -3 -10t-1 -10q0 -6 3 -9.5t12 -3.5h300q11 0 14.5 4.5t3.5 10.5q0 5 -1 9t-3 9 l-133 365q-5 14 -15 20.5t-18 6.5t-18 -7.5t-15 -20.5z" />
<glyph unicode="B" horiz-adv-x="1482" d="M10 47q0 2 1.5 5t6.5 3q19 0 48 2t61.5 7.5t65.5 15.5t59 25t42.5 36t16.5 50v1025q0 51 -15 79.5t-40.5 42.5t-59.5 17.5t-73 3.5h-57q-5 0 -6.5 3t-1.5 5v40q0 2 1.5 5t6.5 3q1 0 10.5 0.5t33.5 0.5t65 0.5t107 0.5q14 0 48.5 1t79 2t94 2.5t94 2.5t79.5 2t51 1 q51 0 113.5 -3.5t126 -15.5t123.5 -34.5t106.5 -60t74.5 -92.5t28 -132q0 -46 -14.5 -84t-37 -67.5t-48.5 -51t-48.5 -36t-39 -21.5t-18.5 -8q57 -32 108.5 -70t90.5 -85.5t61.5 -104.5t22.5 -126q0 -81 -22 -143t-58 -108t-82.5 -77.5t-95.5 -52t-97.5 -32t-88.5 -16.5 t-67.5 -6t-35.5 -1h-812q-5 0 -6.5 3t-1.5 5v39zM601 266q0 -39 20 -70.5t51 -54t69.5 -35t76.5 -12.5q64 0 113 24t81 67t48.5 102.5t16.5 130.5q0 85 -26 149t-73 107t-112 64.5t-143 21.5h-109q-10 0 -11.5 -3.5t-1.5 -7.5v-483zM778 852q48 0 89.5 17.5t72 48.5t48 73.5 t17.5 92.5q0 76 -18.5 125.5t-54.5 78.5t-89.5 40.5t-123.5 11.5q-15 0 -35.5 -2t-39.5 -7.5t-32 -15.5t-13 -26v-418q0 -3 3 -11t20 -8h156z" />
<glyph unicode="C" horiz-adv-x="1589" d="M105 696q0 112 28 211.5t79 183.5t123 151t159.5 113.5t187.5 71.5t209 25q92 0 177.5 -16.5t176.5 -38.5q15 -4 31.5 -10t31 -11.5t26.5 -9.5t18 -4q2 0 13.5 4t16.5 4h46q12 0 12 -17v-326q0 -6 -4.5 -8t-19.5 -2q-3 0 -15.5 0.5t-15.5 5.5q-2 3 -7.5 12t-12 18.5 t-12 18t-6.5 11.5q-38 75 -83 126.5t-99.5 83.5t-118.5 46.5t-139 14.5q-95 0 -168.5 -22t-128.5 -62t-92.5 -96t-61 -122.5t-34 -142t-10.5 -155.5q0 -85 12 -168.5t39 -159t69.5 -140t102.5 -112t140 -74.5t181 -27q85 0 158.5 25.5t134.5 69t108.5 100t81.5 118.5 q2 5 4.5 5.5t7.5 0.5h51q3 0 6.5 -2.5t3.5 -10.5q0 -3 -4.5 -15.5t-9.5 -21.5l-138 -304q-2 -3 -6 -5t-7 -2q-24 0 -33.5 4t-19.5 4q-30 0 -79.5 -10.5t-107 -22.5t-116 -22.5t-104.5 -10.5q-105 0 -204 23t-186 66.5t-159 107t-124 143.5t-80.5 176.5t-28.5 206.5z" />
<glyph unicode="D" horiz-adv-x="1754" d="M53 0q-6 0 -7 3.5t-1 4.5v43q0 1 1 4.5t7 3.5h22q21 0 52 2.5t60 14t49.5 35t20.5 64.5v1066q0 31 -13.5 52.5t-34 35t-45.5 19.5t-47 6h-64q-6 0 -7 3.5t-1 4.5v43q0 1 1 4.5t7 3.5h22l411 7q58 1 125.5 1.5t125.5 0.5q63 0 113 -1.5t96 -6t93 -11.5t105 -19 q111 -23 206.5 -85t165 -150t109 -195t39.5 -219q0 -108 -30 -204.5t-83.5 -178t-127 -147t-161.5 -111t-187 -70t-203 -24.5h-790h-29zM542 155q0 -29 18.5 -45t49 -23.5t71.5 -8.5t86 -1q297 0 445.5 164t148.5 478q0 138 -33.5 253t-102 198t-172 129t-244.5 46h-242 q-15 0 -20 -6.5t-5 -20.5v-1158v-5z" />
<glyph unicode="E" horiz-adv-x="1309" d="M7 51q0 1 1 4.5t7 3.5h22q42 3 86 3.5t80 11t59 37t23 82.5v1024q0 39 -16 63.5t-42 39.5t-59 22.5t-67 12.5h-21q-5 0 -6.5 3t-1.5 5v39q0 2 1.5 5t6.5 3h996q18 0 26 -6.5t10 -28.5l18 -320q0 -5 -8.5 -7.5t-15.5 -2.5q-8 0 -16 2t-11 6q-7 10 -10 29.5t-6.5 43.5 t-10 50t-19.5 48t-35.5 38.5t-57.5 22.5h-357q-13 0 -13 -13v-477q0 -10 10 -10h286q25 0 49.5 6.5t43 23.5t30 47.5t11.5 78.5q0 8 8 8h39q8 0 8 -8v-458q0 -5 -3 -6.5t-5 -1.5h-39q-5 0 -6.5 3t-1.5 5q0 56 -11.5 90.5t-30.5 54t-43.5 26t-51.5 6.5h-283q-10 0 -10 -10 v-437q0 -29 9 -46.5t24.5 -26.5t35.5 -12t42 -3h273q58 0 97 26.5t63 64.5t35.5 79t14.5 70q2 13 13 20.5t25 7.5q5 0 12 -4t7 -9l-33 -366q-2 -5 -5.5 -9.5t-8.5 -4.5h-1159q-6 0 -7 3.5t-1 4.5v14v29z" />
<glyph unicode="F" horiz-adv-x="1212" d="M888 819q14 0 37 2.5t44.5 15t37 39t15.5 74.5q0 8 8 8h39q8 0 8 -8v-402q0 -5 -3 -6.5t-5 -1.5h-39q-5 0 -6.5 3t-1.5 5q0 54 -15.5 83.5t-36.5 43.5t-43.5 16.5t-36.5 2.5h-334q-12 0 -18 -7.5t-6 -19.5v-479q0 -27 10.5 -45.5t29 -32t43.5 -23.5t55 -19q15 -5 32 -9 t28 -4q6 0 7 -3.5t1 -4.5v-39q0 -2 -1.5 -5t-6.5 -3h-636q-5 0 -6.5 3t-1.5 5v39q0 2 1 5t7 3q11 0 28.5 4.5t26.5 8.5q43 19 70.5 50.5t27.5 76.5v1065q0 38 -21 60t-47.5 33t-50 14t-29.5 3h-4q-5 0 -6.5 3t-1.5 5v24q0 2 1.5 5t6.5 3h988q12 -2 18 -5.5t6 -17.5v-272 q0 -12 -7 -15t-16 -3h-20q-2 1 -5.5 17.5t-9.5 39t-14.5 45t-19.5 35.5q-14 15 -27 25t-29 16t-37 8t-51 2h-319q-20 0 -20 -20v-423q0 -23 24 -23h332v0z" />
<glyph unicode="G" horiz-adv-x="1666" d="M115 717q0 101 27 194t76 174.5t117.5 148t150.5 114.5t175.5 74t192.5 26q53 0 108 -6.5t107.5 -16.5t99.5 -22t82.5 -22t58 -16.5t25.5 -6.5h12q8 0 12.5 1.5t8 3.5t7.5 3.5t12 1.5h40q2 0 6.5 -1.5t4.5 -9.5v-333q0 -11 -9.5 -15t-16.5 -4q-9 1 -16 10t-13 20t-10 21 t-5 15q-25 78 -70.5 131.5t-107 87.5t-135 49t-154.5 15q-139 0 -232 -51t-149.5 -137t-80 -198.5t-23.5 -236.5q0 -85 17 -167t48.5 -155.5t76.5 -135t100.5 -106t120 -69.5t136.5 -25q81 0 142.5 17.5t99.5 68.5v221q0 43 -10.5 76.5t-38.5 56.5t-76 35t-123 12 q-6 0 -8.5 11.5t-2.5 19.5q0 5 2.5 17t8.5 12h696q8 0 9.5 -11.5t1.5 -17.5q0 -5 -2 -16t-9 -15q-27 -11 -55.5 -19t-52.5 -21t-39.5 -35.5t-15.5 -61.5v-292q0 -8 -6.5 -13t-20.5 -11q-56 -27 -127 -51t-146 -42.5t-149 -29.5t-135 -11q-155 0 -290 51.5t-236 148 t-159 234.5t-58 310z" />
<glyph unicode="H" horiz-adv-x="1802" d="M68 0q-5 0 -6.5 3t-1.5 5v54q0 2 1.5 5t6.5 3q31 0 62.5 4.5t57.5 19.5t42.5 43t16.5 76v1002q0 34 -11 57t-31 37.5t-48 21.5t-62 9q-8 0 -8 8v54q0 8 7 8h592q5 0 6.5 -3t1.5 -5v-54q0 -6 -8 -6q-30 0 -58 -5.5t-49 -20.5t-34 -42.5t-13 -72.5v-412q0 -10 3 -13t13 -3 h698q10 0 13 3t3 13v428q0 35 -22 58t-55.5 36.5t-72.5 20t-72 8.5q-8 0 -8 8v54q0 8 7 8h667q5 0 6.5 -3t1.5 -5v-54q0 -6 -8 -6q-30 0 -58.5 -5.5t-51 -20.5t-36 -42.5t-13.5 -72.5v-990q0 -26 7.5 -46.5t23.5 -40.5q16 -22 52.5 -37t103.5 -17q8 0 8 -8v-54q0 -8 -8 -8 h-726q-5 0 -6.5 3t-1.5 5v54q0 2 1.5 5t6.5 3q30 0 73 4t83.5 17.5t69 39t28.5 69.5v432q0 10 -3 13t-13 3h-698q-10 0 -13 -3t-3 -13v-442q0 -34 15 -57t39.5 -37t56.5 -20t66 -6q6 0 7 -3t1 -5v-54q0 -2 -1 -5t-6 -3h-642v0z" />
<glyph unicode="I" horiz-adv-x="789" d="M537 190q0 -34 10.5 -57t30 -37t48 -20t63.5 -6q8 0 8 -8v-54q0 -3 -1 -5.5t-7 -2.5h-591q-5 0 -6.5 3t-1.5 5v54q0 2 1.5 5t6.5 3q35 0 63.5 4.5t48.5 19.5t31 43t11 76v1007q0 34 -10.5 57t-30 37t-48 20t-63.5 6q-8 0 -8 8v54q0 8 8 8h591q5 0 6.5 -3t1.5 -5v-54 q0 -2 -1.5 -5t-6.5 -3q-35 0 -63.5 -4.5t-48.5 -19.5t-31 -43t-11 -76v-1007v0z" />
<glyph unicode="J" horiz-adv-x="783" d="M246 1235q0 38 -13.5 61.5t-38.5 36.5t-61 17.5t-81 4.5q-8 0 -8 8v39q0 8 8 8h633q5 0 6.5 -3t1.5 -5v-39q0 -2 -1.5 -5t-6.5 -3q-31 0 -59 -4.5t-49 -19.5t-33.5 -43t-12.5 -76v-1222q0 -74 -14.5 -149.5t-44 -145.5t-74.5 -131t-105 -106.5t-135.5 -71.5t-167.5 -26 q-125 0 -182 29.5t-58 75.5q0 21 9.5 39.5t24 32.5t32.5 22t36 8q30 0 52 -7t38.5 -17.5t29 -23t26 -23t28 -17.5t35.5 -7q45 0 76.5 18t52 49.5t32 73.5t17 89.5t6.5 98t1 99.5v1335v0z" />
<glyph unicode="K" horiz-adv-x="1659" d="M248 1235q0 34 -18.5 57t-47.5 37.5t-64.5 21.5t-69.5 9q-8 0 -8 8v34q0 8 7 8h678q5 0 6.5 -3t1.5 -5v-34q0 -6 -8 -6q-29 0 -62.5 -5t-62.5 -19t-48 -39t-19 -66v-411q0 -42 3 -65t14 -23q6 0 11.5 0.5t10.5 3.5q57 26 102.5 63t84 81t72 93t66.5 100q18 28 38 55.5 t36.5 53.5t27.5 50.5t11 48.5q0 27 -13 42.5t-33 23t-43 9.5t-43 2h-10q-5 0 -6.5 3t-1.5 5v34q0 2 1 5t7 3h608q5 0 6.5 -3t1.5 -5v-34q0 -3 -3 -7.5t-9 -4.5q-61 -2 -110.5 -10t-90.5 -27t-75.5 -52.5t-65.5 -85.5q-53 -90 -95 -154t-74.5 -108t-55.5 -71t-38.5 -44.5 t-24 -29t-10.5 -22.5q5 -10 23 -26.5t47.5 -43.5t70.5 -67t93 -98.5t115 -138t136 -183.5q35 -51 88 -82t119 -45q34 -8 54 -12t32 -5.5t19.5 -2t16.5 -0.5q5 0 6.5 -3t1.5 -5v-32q0 -8 -8 -8h-744q-8 0 -8 8v34q0 7 8 8q13 2 36.5 1.5t46 2.5t39.5 14t17 36q-2 17 -22.5 50 t-50.5 72.5t-64.5 80.5t-63.5 74q-35 39 -66.5 79.5t-64.5 74t-69 54.5t-78 21h-19q-8 0 -9 -3.5t-1 -10.5v-423q0 -45 18.5 -70t47 -37t62.5 -15t64 -3q5 0 6.5 -3t1.5 -5v-32q0 -2 -1.5 -5t-6.5 -3h-678q-7 0 -7 8v34q0 8 8 8q34 1 69.5 8.5t64.5 22t47.5 37.5t18.5 57 v1060z" />
<glyph unicode="L" horiz-adv-x="1299" d="M48 0q-5 0 -6.5 3t-1.5 5v54q0 2 1 5t7 3h24q3 0 19.5 1.5t38 5t44.5 9.5t39 15q35 20 52 51.5t17 70.5v998q0 36 -23.5 59t-56 36.5t-66 18.5t-53.5 5h-22q-5 0 -6.5 3.5t-1.5 4.5v54q0 2 1.5 5t6.5 3h767q5 0 6.5 -3t1.5 -5v-54q0 -2 -1.5 -5t-6.5 -3h-43 q-56 0 -104 -9t-78 -20q-23 -8 -29.5 -26.5t-6.5 -63.5v-1049q2 -17 18 -32t36 -15h350q35 0 66.5 15t58.5 38.5t50 51.5t42 54t34 46.5t26 29.5q5 3 11.5 6t15.5 3q17 0 17 -13q0 -6 -3 -12l-166 -326q-4 -8 -9 -13t-12 -5h-1054v0z" />
<glyph unicode="M" horiz-adv-x="1988" d="M26 52q0 2 1.5 5t6.5 3q66 0 102.5 15.5t54 43t21.5 65.5t6 82q6 129 14.5 250.5t16.5 239t14 232.5t6 231v37q0 23 -15 40.5t-35.5 29.5t-41.5 18t-33 6q-8 0 -8 8v44q0 2 1 5t7 3h354q11 -2 18 -7.5t13 -14.5l435 -970q7 -17 18 -17t16 5t8 13l430 951q10 19 20 29.5 t20 10.5h352q6 0 7 -3t1 -5v-44q0 -2 -1.5 -5t-6.5 -3q-2 0 -23.5 -4t-47 -15.5t-46.5 -33t-21 -56.5l58 -1065q1 -29 15.5 -49t35.5 -33t44.5 -19.5t44 -10t35 -4t15.5 -0.5q5 0 6.5 -3t1.5 -5v-44q0 -2 -1.5 -5t-6.5 -3h-658q-8 0 -8 8v44q0 8 8 8q24 0 54.5 2.5 t58.5 11.5t47 26.5t19 46.5l-46 817q-1 10 -5 10t-8 -9l-438 -948q-5 -11 -13.5 -14t-29.5 -3q-36 0 -53.5 2t-23.5 16l-426 939l-4.5 10.5t-5.5 3.5q-7 0 -7 -13q0 -30 -3 -88t-8 -130.5t-10 -153.5t-10 -157t-8 -141.5t-3 -107.5v-41q4 -19 20 -34t40 -25t53 -15t61 -5 q5 0 5.5 -3t0.5 -5v-44q0 -8 -6 -8h-497q-8 0 -8 8v44z" />
<glyph unicode="N" horiz-adv-x="1777" d="M68 0q-2 0 -5 2.5t-3 5.5v44q0 8 8 8h25t27.5 1t24.5 2t17 4q25 12 41 32t24.5 46t11.5 57t3 66v999q0 27 -21.5 43.5t-50 25t-58 11.5t-44.5 3q-5 0 -6.5 3t-1.5 5v44q0 2 1.5 5t6.5 3h453l862 -954q5 -5 7 -7.5t5 -2.5q4 0 5 3t1 6v594q0 99 -7 158.5t-26 91t-51 41.5 t-82 10h-51q-5 0 -6.5 3t-1.5 5v44q0 2 1.5 5t6.5 3h550q6 0 7 -3t1 -5v-44q0 -2 -1.5 -5t-6.5 -3q-20 0 -51.5 -8t-61.5 -23t-51.5 -37t-21.5 -50v-1183q0 -17 -8 -28.5t-20.5 -18.5t-27 -10.5t-26.5 -3.5q-20 0 -46.5 8.5t-52.5 37.5l-944 1047q-7 7 -10 8.5t-8 1.5 t-5 -10v-893q0 -28 13.5 -48.5t34.5 -35t46.5 -23t50 -13.5t44 -6.5t29.5 -1.5q5 0 7 -4q1 -2 1 -4v-44q0 -2 -1.5 -5t-6.5 -3h-550v0z" />
<glyph unicode="O" horiz-adv-x="1826" d="M902 -26q-35 0 -87.5 6t-115 22t-130.5 42t-133.5 66.5t-124.5 96t-103.5 129t-71 167.5t-26.5 211q0 104 28.5 199t81.5 177t128.5 149t168.5 114t202 73t229 26q104 0 201.5 -25.5t182.5 -72t155.5 -111.5t121.5 -145t79 -172.5t28 -192.5q0 -94 -27 -186.5t-78 -177 t-123.5 -156.5t-162.5 -125.5t-197 -83.5t-226 -30zM404 751q0 -81 16.5 -162t48.5 -156t79 -140.5t107 -114t133.5 -76t159.5 -27.5q121 0 210 51.5t147.5 136.5t87 195.5t28.5 228.5q0 86 -16.5 168.5t-48 157t-78 137t-107 108.5t-134 71.5t-159.5 25.5q-77 0 -142 -24 t-117.5 -65.5t-92.5 -99t-67 -124.5t-41 -141.5t-14 -149.5z" />
<glyph unicode="P" horiz-adv-x="1301" d="M100 0q-8 0 -8 10v42q0 1 1 4.5t7 3.5q34 0 63.5 10t51.5 27t35 41t13 52v1016q0 50 -10 78.5t-29.5 43t-49 18t-68.5 3.5h-45q-11 0 -16 12.5t-5 21.5q0 5 2 15t11 12h6.5t19.5 0.5t37.5 1t61.5 1.5q55 1 117.5 3t126.5 4t126.5 3.5t117.5 1.5h141q80 0 156 -27 t135 -79.5t95 -130.5t36 -180q0 -64 -19 -122.5t-51.5 -107.5t-75 -88.5t-89 -66.5t-94.5 -41q-42 -11 -79 -11h-11l-239 12h-8t-10 -2t-4 -4t-1 -8v-376q0 -39 21.5 -64.5t56 -40.5t77.5 -21.5t85 -6.5q6 0 7 -3t1 -5v-44q0 -2 -1.5 -5t-6.5 -3h-688zM550 696 q1 -8 4.5 -14.5t14.5 -7.5q4 0 14.5 -1t24.5 -2t30.5 -2t32.5 -1q67 0 117.5 27t84 75.5t50 115t16.5 146.5q0 165 -66 242t-194 77q-14 0 -26 -0.5l-24 -1t-25.5 -1t-30.5 -1.5q-6 0 -15.5 -2.5t-9.5 -13.5v-605z" />
<glyph unicode="Q" horiz-adv-x="1822" d="M880 -26q-20 2 -42 4t-42 6q-139 25 -263.5 88.5t-218.5 158t-149 215.5t-55 261q0 165 62 301.5t170.5 235t257 152.5t322.5 54q111 0 212.5 -24.5t189 -69.5t159.5 -110.5t122.5 -146.5t78.5 -177.5t28 -204.5q0 -119 -40 -224t-110.5 -194t-166 -161t-205.5 -125 q43 -32 85.5 -64t79.5 -60.5t66.5 -51.5t47.5 -38q10 -8 13.5 -11t5.5 -4q42 -34 82.5 -63t75.5 -43q5 -2 9.5 -3t11.5 -3h-1q15 -3 32 -7.5t31.5 -10t23.5 -11t9 -11.5q0 -19 -15.5 -29.5t-39.5 -15t-52.5 -5.5t-53.5 -1q-82 0 -148 19t-129 56q-47 28 -88 56.5t-78.5 57.5 t-73.5 59.5t-74 64.5q-32 29 -63.5 52.5t-66.5 27.5zM402 747q0 -84 17.5 -166.5t51 -157.5t82 -138.5t110.5 -110t137 -73t161 -26.5q97 0 182 43t147.5 122t98.5 191t36 249q0 125 -34 242.5t-101.5 210t-169 152t-236.5 70.5q-111 0 -200.5 -49t-152 -132.5t-96 -193.5 t-33.5 -233z" />
<glyph unicode="R" horiz-adv-x="1509" d="M44 52q0 1 1 4.5t7 3.5t19 2t27 4t26 4.5t17 3.5q57 13 79.5 42.5t22.5 73.5v1016q0 50 -21 79t-48.5 43.5t-53 18t-34.5 3.5h-38q-5 0 -6.5 3t-1.5 5v44q0 2 1 4.5t7 3.5h4.5t14.5 0.5t32 1t59 1.5q55 1 117.5 3t126.5 4t126.5 3.5t117.5 1.5h101q79 0 161 -27 t148.5 -79.5t109 -130.5t42.5 -180q0 -66 -18 -117.5t-49.5 -91t-75 -69.5t-94.5 -53l303 -480q39 -62 91 -112.5t121 -70.5q8 -2 9.5 -5.5t1.5 -8.5q0 -15 -8 -20t-25 -5q-42 0 -95.5 5.5t-107.5 18t-102.5 32.5t-81.5 50q-32 28 -65 71t-66.5 92.5t-66 103t-63 104.5 t-58.5 95t-51 75l-156 11h-8t-10 -2t-4 -4t-1 -8v-426q0 -27 7 -47t23.5 -34.5t43 -23.5t64.5 -14q6 -1 17.5 -3t25 -4.5t26.5 -4.5t22 -2q6 0 7 -3t1 -5v-44q0 -2 -1.5 -5t-6.5 -3h-705q-5 0 -6.5 14t-1.5 26v12zM530 733q1 -8 4.5 -14.5t14.5 -7.5q9 -1 27 -3.5t50 -2.5 q88 0 145 27t90 72.5t45.5 104.5t12.5 123q0 67 -21 127t-58.5 104t-90 70t-115.5 26q-14 0 -22 -0.5t-15.5 -1t-17 -1t-26.5 -1.5q-6 0 -15.5 -2.5t-9.5 -13.5v-576z" />
<glyph unicode="S" horiz-adv-x="1087" d="M136 27q-13 0 -16 21q-11 94 -17 146t-8.5 78t-3 33.5t-0.5 10.5q0 11 10 24t24 13q10 0 21.5 -12t22 -28t18 -32t9.5 -23q26 -55 56.5 -92.5t69.5 -60t88 -32.5t112 -10q107 0 166.5 51t59.5 164q0 65 -28.5 118t-74.5 98.5t-105 86.5t-121 83t-121 87.5t-105 100.5 t-74.5 122t-28.5 151q0 51 18.5 95t49.5 80t72.5 64.5t88.5 48t95.5 29.5t94.5 10q37 0 74.5 -6.5t74 -15.5t73.5 -19.5t73 -19.5l66 6q9 0 11.5 -7.5t3.5 -13.5l29 -235q0 -5 -13 -7t-20 -2q-6 0 -18 1.5t-14 3.5q-3 3 -7.5 12.5t-9.5 21t-10.5 23.5t-11.5 21 q-48 74 -123 110.5t-165 36.5q-39 0 -73 -9t-59 -28.5t-39.5 -49.5t-14.5 -72q0 -61 28.5 -110.5t75 -93t106 -84.5t121 -83.5t121 -90.5t106 -106t75 -129t28.5 -160q0 -59 -20.5 -110t-55.5 -92.5t-82 -73.5t-100.5 -53.5t-110 -32.5t-110.5 -11q-68 0 -118.5 10t-87 22.5 t-61.5 22.5t-42 10q-6 0 -9 -1z" />
<glyph unicode="T" horiz-adv-x="1502" d="M608 1257q0 21 -8.5 23.5t-20.5 4.5h-339q-37 -8 -58 -29.5t-33 -50.5t-18 -62.5t-13 -64.5q-2 -9 -4 -21.5t-4 -14.5q-2 -3 -7 -3h-33q-6 0 -6 4v33l37 342q2 11 9 21t22 10q7 0 13.5 -4t12.5 -9.5t11.5 -10.5t11.5 -7q12 -5 22.5 -6.5t23.5 -1.5h1048q13 0 23.5 1.5 t22.5 6.5q6 2 11.5 7t11.5 10.5t12.5 9.5t13.5 4q15 0 22 -10t9 -21l37 -342v-33q0 -4 -6 -4h-33q-5 0 -7 3q-2 2 -4 14.5t-4 21.5q-7 31 -13 64.5t-18 62.5t-33 50.5t-58 29.5h-340q-12 -2 -20.5 -4.5t-8.5 -23.5v-1062q0 -30 15 -53.5t40.5 -41.5t60 -29t73.5 -15 q11 -1 28 -1h29q5 0 6.5 -3t1.5 -5v-39q0 -2 -1.5 -5t-6.5 -3h-777q-5 0 -6.5 3t-1.5 5v39q0 2 1.5 5t6.5 3h28.5t28.5 1q39 4 73.5 15t60 29t40.5 41.5t15 53.5v1062v0z" />
<glyph unicode="U" horiz-adv-x="1672" d="M211 1235q0 29 -13.5 51.5t-36.5 37.5t-53 23t-64 8q-8 0 -8 8v39q0 8 7 8h632q5 0 6.5 -3t1.5 -5v-39q0 -2 -1.5 -5t-6.5 -3q-30 0 -61.5 -4t-58 -18t-43 -40.5t-16.5 -71.5v-701q0 -200 102 -309.5t305 -109.5q84 0 161 23.5t136 72.5t94 125t35 181v621q0 34 -2.5 70 t-16.5 68t-44 55.5t-85 32.5q-25 4 -41.5 4.5t-21.5 0.5q-8 0 -8 8v39q0 8 8 8h522q5 0 6.5 -3t1.5 -5v-39q0 -2 -2 -5t-6 -3q-36 0 -63.5 -5.5t-41.5 -11.5q-17 -7 -31 -21.5t-23.5 -31t-14.5 -34t-5 -30.5v-640q0 -141 -37 -253.5t-111.5 -191t-187.5 -121t-264 -42.5 q-72 0 -148.5 11t-149 35t-136.5 62t-112 91t-76 122t-28 156v785v0z" />
<glyph unicode="V" horiz-adv-x="1595" d="M727 -27q-24 0 -31 22l-521 1262q-9 22 -23.5 37.5t-29.5 26t-29 16t-23 7.5q-7 2 -16 4t-17.5 3.5t-15.5 2.5t-8 1q-8 0 -8 8v39q0 8 8 8h680q6 0 7 -2.5t1 -5.5v-39q0 -2 -1.5 -5t-6.5 -3h-15q-25 -4 -56.5 -8t-59 -14.5t-46 -31t-18.5 -56.5q0 -13 4.5 -30t9.5 -28 l357 -866q1 -3 2.5 -4.5l3.5 -3.5t4 -2q7 0 11 11l328 886q4 11 8.5 20.5t4.5 19.5q0 35 -23 60.5t-64 32.5q-6 1 -19.5 3t-28.5 4.5t-29 4.5t-20 2q-8 0 -8 8v39q0 2 1 5t7 3h535q6 0 7 -3t1 -5v-39q0 -3 -1 -5.5t-7 -2.5h-37q-55 -11 -90.5 -42.5t-60 -74t-41.5 -91 t-34 -93.5l-387 -1046q-9 -25 -22 -30t-36 -5h-147v0z" />
<glyph unicode="W" horiz-adv-x="2352" d="M1448 -27q-24 0 -31 22l-222 537l-224 -524q-11 -24 -23 -29.5t-35 -5.5h-145q-12 0 -19 5.5t-12 17.5l-518 1246q-11 26 -32 43.5t-44.5 28t-45 16t-33.5 7.5q-7 1 -17 3.5t-20 4.5l-17.5 3.5t-9.5 1.5q-8 0 -8 8v44q0 8 8 8h660q6 0 7 -2.5t1 -5.5v-44q0 -2 -1.5 -5 t-6.5 -3h-18q-39 0 -61 -9t-33.5 -22.5t-14 -28.5t-2.5 -27q0 -22 6.5 -41t11.5 -40l359 -865q5 -10 19 -10q6 0 9 3t6 8l173 408l-219 526q-13 31 -40 55t-52 30q-14 5 -32 9t-23 4q-8 0 -8 8v44q0 8 8 8h950q6 0 7 -3t1 -5v-44q0 -3 -1 -5.5t-7 -2.5h-37q-36 0 -63.5 -10 t-49.5 -31t-40.5 -53t-36.5 -75l-123 -286l239 -575q5 -10 19 -10q10 0 15 11l399 935q12 28 12 47q0 26 -22.5 36.5t-83.5 10.5h-62q-8 0 -8 8v44q0 2 1 5t7 3h475q6 0 7 -3t1 -5v-44q0 -3 -1 -5.5t-7 -2.5h-47q-24 0 -42 -9.5t-33.5 -29t-30 -48.5t-30.5 -68l-507 -1187 q-11 -24 -23 -29.5t-35 -5.5h-144zM1349 1276q7 16 8.5 24t1.5 18q0 32 -68 32q-28 0 -46 -6.5t-28.5 -16t-14.5 -21.5t-4 -23t3 -23t10.5 -32.5t21 -53.5t35.5 -86z" />
<glyph unicode="X" horiz-adv-x="1725" d="M5 52q0 8 8 8h39q35 0 70.5 15.5t70 39.5t65.5 53t56 56t43 49t25 32l314 410q-95 123 -165 214.5t-122 158t-89.5 111t-68.5 72t-59.5 42t-60.5 21.5q-11 2 -27 5t-33 5.5t-32.5 4t-25.5 1.5q-5 0 -6.5 3t-1.5 5v44q0 2 1.5 5t6.5 3h753q6 0 7 -3t1 -5v-44q0 -2 -1 -5 t-7 -3q-81 0 -118 -10t-37 -32q0 -5 11 -24t34 -48l201 -265q5 -7 8.5 -8.5t9.5 -1.5q9 0 14.5 7.5t12.5 15.5l193 252q10 12 23 31.5t13 37.5q0 16 -15.5 25t-38 13.5t-48 5.5t-44.5 1q-8 0 -8 8v45q0 2 1 4.5t7 2.5h571q6 0 7 -2.5t1 -5.5v-44q0 -3 -1 -5.5t-7 -2.5 q-104 0 -179 -44t-133 -120l-278 -359l495 -653q13 -17 30.5 -33t37.5 -30t41.5 -24t42.5 -14q12 -6 30 -8.5t35 -5.5t29.5 -8.5t12.5 -17.5q0 -16 -12.5 -24.5t-26.5 -8.5h-665q-5 0 -6.5 3t-1.5 5v44q0 2 1 4q1 3 7 4q9 2 28.5 1.5t39 3.5t34 16t14.5 39q0 8 -4.5 19 t-7.5 16l-315 417q-4 5 -7 7.5t-10 2.5q-8 0 -10.5 -2.5t-6.5 -7.5l-314 -407q-9 -12 -11.5 -20.5t-2.5 -19.5q0 -31 19.5 -43t45 -15t50.5 -2t36 -5q8 -4 8 -8v-44q0 -2 -1.5 -5t-6.5 -3h-581q-5 0 -6.5 3t-1.5 5v11v33z" />
<glyph unicode="Y" horiz-adv-x="1634" d="M712 494q0 6 -3 10l-409 654q-17 27 -36.5 54.5t-43 52t-51 43t-59.5 26.5q-5 1 -16 3.5t-23 4.5t-23 4t-16 3q-10 1 -19 12.5t-9 20.5q0 2 0.5 7t2 9.5t4.5 8t8 3.5h679q11 0 14 -10t3 -18q0 -10 -1.5 -21t-11.5 -11q-27 -2 -51 -4t-41 -9.5t-27 -22.5t-10 -42 q0 -24 12 -43l305 -490q11 -17 14.5 -21t11.5 -4q7 0 12.5 8t13.5 21l241 409q14 23 28.5 51t14.5 57q0 28 -7.5 44.5t-22.5 25.5t-36.5 13t-49.5 7q-11 1 -13 12t-2 20q0 7 2.5 17.5t14.5 10.5h503q8 0 11 -11.5t3 -16.5q0 -10 -6.5 -17t-16 -11.5t-20 -7t-19.5 -4.5 q-50 -11 -86.5 -36.5t-71.5 -63.5q-5 -5 -14.5 -16t-10.5 -13l-387 -665v-353q0 -60 31 -93t110 -41q11 -1 28 -1h29q5 0 6.5 -3t1.5 -5v-44q0 -2 -1.5 -5t-6.5 -3h-681q-5 0 -6.5 3t-1.5 5v44q0 2 1.5 5t6.5 3h28.5t28.5 1q79 8 110 41t31 93v299z" />
<glyph unicode="Z" horiz-adv-x="1536" d="M77 43q0 11 4 22.5t12 20.5l905 1171q4 5 4 10q0 8 -7 9t-13 1h-499q-23 0 -48.5 -6.5t-48 -19t-40.5 -31t-25 -43.5q-4 -11 -10.5 -41.5t-18.5 -91.5q-2 -10 -16 -14.5t-31 -4.5h-8.5t-11 1t-10.5 2t-6 3l15 345q0 3 1 10.5t3 12.5q3 8 11 10q4 1 8 1h1124q3 0 5.5 -5 t5 -11.5t4 -14t1.5 -12.5q0 -21 -13 -40l-870 -1125q-3 -5 -11.5 -17t-8.5 -20q0 -14 16 -20.5t30 -6.5h636q56 0 93 33t59.5 81.5t32.5 102.5t12 96q1 6 6 9t11.5 4.5t13 1.5h11.5q2 0 8 -1t12 -2.5t10.5 -4t4.5 -4.5v-47l-21 -348q-1 -11 -1 -21.5t-2.5 -18.5t-8 -13.5 t-17.5 -5.5h-1275q-13 0 -20.5 4.5t-11.5 11.5t-5 14.5t-1 12.5z" />
<glyph unicode="[" horiz-adv-x="780" d="M742 1731v-116h-238q-73 0 -73 -73v-1695q0 -73 73 -73h261v-116h-560v2073h537z" />
<glyph unicode="\" horiz-adv-x="725" d="M196 1452h-190l525 -1479h189z" />
<glyph unicode="]" horiz-adv-x="780" d="M15 -342v116h262q38 0 55 17.5t17 55.5v1695q0 38 -17 55.5t-55 17.5h-240v116h538v-2073h-560z" />
<glyph unicode="^" horiz-adv-x="1115" d="M561 1127l-304 -448h-161l400 700h131l392 -700h-162z" />
<glyph unicode="_" horiz-adv-x="1014" d="M-16 -205h1046v-115h-1046v115z" />
<glyph unicode="`" horiz-adv-x="740" d="M519 1062q-5 -7 -13.5 -12.5t-14.5 -5.5q-11 0 -20 7l-269 217q-23 19 -42.5 46t-19.5 64q0 19 7 36t19.5 30t29 20.5t36.5 7.5q23 0 46 -13.5t45 -43.5l210 -291q5 -7 6.5 -12.5t1.5 -12.5q0 -3 -1 -7t-5 -9z" />
<glyph unicode="a" horiz-adv-x="1017" d="M487 20q-33 -23 -78 -36t-90 -13q-122 0 -185.5 55t-63.5 149q0 54 24.5 93t72.5 69t118.5 54.5t163.5 48.5q50 13 80.5 28t56.5 29q17 9 19.5 16t2.5 13v174q0 33 -9.5 61.5t-28.5 49.5t-46 33t-61 12q-29 0 -54 -10t-43 -29t-28.5 -45t-10.5 -59q0 -3 0.5 -9t1.5 -12.5 t2 -11.5t1 -6q-1 -2 -16.5 -8t-38 -13.5t-49.5 -15t-51.5 -14.5t-43 -12.5t-25.5 -6.5q-11 0 -13.5 11.5t-2.5 22.5q0 58 35 113t93.5 97.5t134.5 68.5t157 26q72 0 129 -18.5t97 -51t61 -75t21 -90.5v-477q0 -26 19.5 -46.5t50.5 -20.5q18 0 32.5 6.5t26 15t19.5 15t14 6.5 q8 0 9 -6.5t1 -11.5q0 -17 -4.5 -34.5t-15.5 -25.5q-49 -37 -87 -66.5t-69 -50.5t-56 -32t-47 -11q-20 0 -35.5 11t-27 27t-19.5 34.5t-13.5 34.5t-8.5 26t-5 9zM303 199q0 -27 10.5 -44t27.5 -26t38.5 -12.5t44.5 -3.5q21 0 52 10.5t60.5 28t50.5 40t21 45.5v165 q0 11 -8 11q-2 0 -4 -1l-232 -108q-14 -10 -25.5 -18.5t-19.5 -20t-12 -27t-4 -39.5z" />
<glyph unicode="b" horiz-adv-x="1175" d="M358 1639q4 2 8.5 4t6.5 2q17 0 17 -24v-755q0 -10 2.5 -20.5t12.5 -10.5q4 0 16 6q37 17 69.5 34t64 30.5t63.5 22t67 8.5q79 0 148 -36t120.5 -98t81.5 -146.5t30 -180.5q0 -111 -39 -203.5t-108.5 -159t-165 -103t-207.5 -36.5q-60 0 -110.5 4.5t-95.5 12t-86 17.5 t-81 20q-9 2 -11.5 8.5t-2.5 15.5v1312q0 24 -13 37.5t-33 20.5t-43 11.5t-44 10.5q-6 2 -9.5 5.5t-3.5 14.5q0 5 3 10t12 10zM402 751q-8 -5 -10 -10.5t-2 -13.5v-483q10 -95 62 -144t141 -49q72 0 120 28t77.5 78t42 117.5t12.5 147.5q0 78 -12 145.5t-43 118t-84 80 t-135 29.5q-27 0 -48.5 -2t-40.5 -6.5t-38 -13.5t-42 -22z" />
<glyph unicode="c" horiz-adv-x="988" d="M90 423q1 145 44 244.5t115 160.5t167.5 88t200.5 27q22 0 52.5 -1.5t63 -6t64 -13.5t57 -24.5t41 -38t15.5 -54.5q0 -24 -9 -38.5t-25 -23t-37 -11.5t-45 -3q-28 0 -47.5 9.5t-35.5 23t-30 30t-30.5 30t-37.5 23t-51 9.5q-70 0 -115 -35.5t-70.5 -90t-35 -119.5 t-9.5 -124q0 -80 15 -147.5t48.5 -116.5t87 -76.5t129.5 -27.5q28 0 55.5 9t53 24.5t48 35.5t41.5 43q10 12 19.5 20t29.5 8q24 0 41.5 -12.5t17.5 -26.5q0 -4 -1.5 -10.5t-10.5 -18.5q-38 -48 -82 -88t-94 -68t-107.5 -43.5t-122.5 -15.5q-86 0 -160.5 38.5t-130 102 t-87.5 144t-32 164.5z" />
<glyph unicode="d" horiz-adv-x="1166" d="M960 1639q4 2 8.5 4t6.5 2q17 0 17 -24v-1392q0 -44 22.5 -63t67.5 -19l58 4q4 0 5 -5.5t1 -11.5q0 -2 -2.5 -5.5t-12.5 -7.5l-342 -142q-2 -1 -10 -3.5t-9 -2.5q-7 0 -8.5 8.5t-1.5 16.5v69q0 10 -7 10q-3 0 -9 -3q-35 -20 -66 -38.5t-62.5 -32.5t-66 -22t-76.5 -8 q-90 0 -162 37t-122 99t-77 142t-27 167q0 105 41.5 195t111 156t161.5 103.5t193 37.5q27 0 47 -5t37 -10.5t34 -10.5t38 -5q3 0 7.5 2t4.5 11v471q0 24 -13 37.5t-33 20.5t-43 11.5t-44 10.5q-6 2 -9.5 5.5t-3.5 14.5q0 5 3 10t12 10zM312 463q0 -72 16.5 -138.5t51 -117 t87.5 -80.5t125 -30q11 0 39 6t56.5 15.5t50.5 22.5t22 28v497q0 69 -49.5 112t-141.5 43q-67 0 -115.5 -31.5t-80 -82.5t-46.5 -115t-15 -129z" />
<glyph unicode="e" horiz-adv-x="1014" d="M70 405q0 117 33 215.5t95 170.5t151.5 112t203.5 40q34 0 61 -4.5t49.5 -12t42 -18t39.5 -22.5q23 -12 52.5 -43t55.5 -72t44 -87.5t18 -89.5q0 -14 -5.5 -30.5t-18.5 -16.5h-590q-10 0 -13.5 -18t-3.5 -44q0 -88 25.5 -156.5t68.5 -116t99 -72t118 -24.5q39 0 75 10.5 t69 27.5t62 38t55 42q6 2 8 2q3 0 8 -5q9 -8 18 -18.5t14 -17.5q3 -3 3 -6t-4 -7q-33 -39 -81 -76.5t-102.5 -67t-111.5 -47.5t-108 -18q-103 0 -183 37.5t-135 98.5t-83.5 138.5t-28.5 157.5zM657 624q26 0 26 23q0 39 -12.5 73.5t-35.5 61t-55.5 41.5t-72.5 15 q-48 0 -84 -20.5t-61 -49.5t-37.5 -60t-12.5 -53q0 -17 5 -24t13 -7h327z" />
<glyph unicode="f" horiz-adv-x="700" d="M40 30q0 5 3 16.5t7 13.5q13 6 37 9t48 13.5t42 33t18 66.5v579q0 11 -12 11h-109q-12 0 -23 7.5t-11 21.5q0 11 11.5 19t28.5 16t37.5 15.5t37.5 17t28.5 21.5t11.5 29v33q0 140 36 270t108.5 230t181 160t253.5 60q14 0 50 -8t74 -22t67 -33t29 -41q0 -8 -2.5 -14 t-5.5 -15q-2 -5 -10.5 -23t-17.5 -39.5t-17.5 -40.5t-10.5 -24q-2 -4 -7.5 -10t-11.5 -6q-2 0 -4.5 1.5t-12.5 9.5q-23 19 -52 42t-62 43.5t-69 34.5t-73 14q-79 0 -121.5 -23t-62.5 -60t-23.5 -82.5t-3.5 -91.5v-356q0 -6 2.5 -7t7.5 -1h195q28 0 36.5 -5.5t12.5 -20.5 q6 -23 9 -51t3 -50q0 -13 -5 -17t-21 -4h-227q-2 0 -7.5 -1t-5.5 -9v-560q0 -44 22 -71.5t57.5 -43.5t80 -21.5t88.5 -5.5q9 -1 13.5 -13t4.5 -17q0 -2 -0.5 -7t-2 -10t-5.5 -9t-10 -4h-625q-6 2 -8 13t-2 17z" />
<glyph unicode="g" horiz-adv-x="1224" d="M582 943q96 0 172 -25t127 -73q63 2 120.5 7t123.5 5q23 0 37.5 -1.5t22.5 -5t12 -9t6 -13.5q7 -25 10 -45t3 -41q0 -17 -12.5 -22.5t-50.5 -5.5h-183q14 -23 27.5 -54t13.5 -79q0 -69 -31 -134.5t-91 -115.5t-146.5 -80.5t-197.5 -30.5q-34 0 -55 2.5t-44 8.5 q-14 -12 -35 -21.5t-41 -21.5t-34 -27.5t-14 -39.5q0 -42 73.5 -60.5t237.5 -19.5q125 -1 227.5 -7t175.5 -31.5t113 -79t40 -149.5q0 -40 -19 -86.5t-57.5 -92.5t-96.5 -88.5t-136.5 -75t-177.5 -52t-218 -19.5q-105 0 -183 20.5t-129 54.5t-76.5 77.5t-25.5 89.5 q0 35 14 63t37 51.5t51.5 44t57.5 42t56 45t47 53.5q-53 7 -96.5 25t-74 42t-47.5 52.5t-17 57.5q0 27 14.5 47t38 35.5t53.5 28.5t62 25q20 8 42.5 17.5t46.5 26.5q-119 48 -180 125t-61 178q0 80 36 150t99 121.5t148.5 81t184.5 29.5zM298 -316q0 -42 25.5 -84.5 t69 -76.5t102.5 -55.5t126 -21.5q70 0 136 23.5t117 62.5t82 90.5t31 107.5q0 33 -10.5 58t-28.5 42t-42 27t-50 12q-21 2 -70 3.5t-110 3.5q-37 1 -73 1.5t-66.5 1.5t-55 2t-38.5 3q-19 -22 -44 -41.5t-47.5 -42t-38 -50.5t-15.5 -66zM771 559q0 77 -16 137.5t-45.5 102 t-69.5 63t-88 21.5q-29 0 -63.5 -11.5t-64.5 -42t-50 -83.5t-20 -136q0 -53 12 -111t38.5 -107t68.5 -80.5t102 -31.5q45 0 81 20.5t61.5 57t39.5 88t14 113.5z" />
<glyph unicode="h" horiz-adv-x="1276" d="M572 30q0 -6 -2 -17t-8 -13h-522q-6 2 -8 13t-2 17q0 5 3 16.5t7 13.5q13 6 37 9.5t48 14t42 33t18 66.5v1181q0 24 -13 37.5t-33 20.5t-43 11.5t-44 10.5q-6 2 -9.5 5.5t-3.5 14.5q0 5 3 10t12 10l331 155q4 2 8.5 4t6.5 2q17 0 17 -24v-847q0 -4 1 -14t6 -10 q7 0 10 3.5t9 9.5q29 33 59 62.5t66 52t81 35.5t105 13q62 0 122.5 -14.5t108 -54t77 -109t29.5 -179.5v-386q0 -44 18 -66.5t42 -33t48 -14t37 -9.5q4 -2 7 -13.5t3 -16.5q0 -6 -2 -17t-8 -13h-522q-6 2 -8 13t-2 17q0 5 3 16.5t7 13.5q13 6 37 9.5t48 14t42 33t18 66.5 v344q0 58 -3 109t-20.5 89t-56 59.5t-108.5 21.5q-36 0 -80 -17.5t-83 -47t-65 -68t-26 -80.5v-410q0 -44 18 -66.5t42 -33t48 -14t37 -9.5q4 -2 7 -13.5t3 -16.5z" />
<glyph unicode="i" horiz-adv-x="652" d="M70 0q-6 2 -8 13.5t-2 17.5q0 5 3 16t7 13q13 6 37 9.5t48 14t42 33t18 66.5v480q0 24 -13 37.5t-33 20.5t-43 11.5t-44 10.5q-6 2 -9.5 5.5t-3.5 14.5q0 5 3 10t12 10l331 156q4 2 8.5 4t6.5 2q17 0 17 -24v-738q0 -44 18 -66.5t42 -33t48 -14t37 -9.5q4 -2 7 -13t3 -16 q0 -6 -2 -17.5t-8 -13.5h-522zM172 1307q0 64 38 102t102 38t102 -38t38 -102t-38 -101.5t-102 -37.5t-102 37.5t-38 101.5z" />
<glyph unicode="j" horiz-adv-x="653" d="M415 937q4 2 8.5 4t6.5 2q17 0 17 -24v-1026q0 -126 -36 -221.5t-102 -160.5t-159.5 -98t-207.5 -33q-36 0 -70 11t-60.5 29t-42.5 41t-16 47q0 15 5 31t15 28.5t25 20.5t35 8q6 0 12.5 -1.5t21 -9.5t39.5 -26t68 -51q13 -11 26 -17t28 -9t34.5 -4t46.5 -1q35 0 56 24.5 t32 59.5t14.5 74t3.5 68v958q0 24 -13 37.5t-33 20.5t-43 11.5t-44 10.5q-6 2 -9.5 5.5t-3.5 14.5q0 5 3 10t12 10zM156 1307q0 64 38 102t102 38t102 -38t38 -102t-38 -101.5t-102 -37.5t-102 37.5t-38 101.5z" />
<glyph unicode="k" horiz-adv-x="1278" d="M586 30q0 -14 -2 -22t-8 -8h-522q-10 2 -10 30q0 26 10 30q13 6 37 9.5t48 14t42 33t18 66.5v1180q0 24 -13 37.5t-33 20.5t-43 11.5t-44 10.5q-6 2 -9.5 5.5t-3.5 14.5q0 5 3 10t12 10l331 156q4 2 8.5 4t6.5 2q17 0 17 -24v-993q0 -30 11.5 -37t28.5 -7q22 0 55 13.5 t70.5 34.5t75 47t67 51.5t48.5 47t19 33.5q0 20 -19 27t-42.5 11.5t-42.5 11.5t-19 26q0 14 13 23.5t28 9.5h421q45 0 45 -23q0 -16 -23 -26.5t-57 -20.5t-71.5 -23.5t-65.5 -35.5l-287 -224q0 -8 7 -17.5t12 -14.5l381 -402q26 -27 57.5 -42t59.5 -25t46.5 -17t18.5 -19 t-2 -21t-14 -9h-545q-7 0 -8.5 8t-1.5 22q0 25 10 30t21 8t19.5 8.5t14 14.5t5.5 26q0 11 -14 29.5t-29 34.5l-279 296q0 1 -1 2h-1q-6 0 -9 -15t-3 -34v-247q0 -44 18 -66.5t42 -33t48 -14t37 -9.5q10 -4 10 -30z" />
<glyph unicode="l" horiz-adv-x="597" d="M562 30q0 -6 -2 -17t-8 -13h-522q-6 2 -8 13t-2 17q0 5 3 16t7 13q13 6 37 9.5t48 14t42 33t18 66.5v1166q0 24 -13 37.5t-33 20.5t-43 11.5t-44 10.5q-13 5 -13 28q0 5 3 13.5t12 13.5l331 156q4 2 9 4t11 2q8 0 10 -5.5t2 -18.5v-1439q0 -44 18 -66.5t42 -33t48 -14 t37 -9.5q4 -2 7 -13t3 -16z" />
<glyph unicode="m" horiz-adv-x="1884" d="M397 970q4 2 8.5 4t6.5 2q17 0 17 -24v-166q1 -6 8 -6q6 0 14 4q45 24 88 49.5t86.5 46.5t87.5 34t89 13t76 -11t52 -28.5t34.5 -38t23.5 -39.5q1 -3 4 -7.5t7.5 -9.5t9 -8.5t9.5 -3.5q14 1 29 9q97 49 158.5 76.5t103 41t70 16.5t58.5 3q59 0 101.5 -21t71.5 -55.5 t46.5 -79t26.5 -91t12 -92t3 -82.5q0 -35 -1.5 -65t-3 -65.5t-3 -80.5t-1.5 -109q0 -30 11 -50t28.5 -33t38.5 -19.5t41 -10.5t36.5 -6.5t25.5 -6.5q4 -2 7 -13t3 -16q0 -6 -2 -17.5t-8 -13.5h-558q-6 2 -8 13.5t-2 17.5q0 5 3 16t7 13q13 6 37 9.5t48 15t41.5 35.5t17.5 72 v2q5 31 6.5 68.5t1.5 82.5q0 22 -0.5 41.5t-0.5 40t-0.5 44.5t-0.5 55q0 49 -4.5 98t-22 88t-51.5 63.5t-94 24.5q-10 0 -22 -2.5t-33 -10t-56 -22.5t-92 -39q-8 -5 -16.5 -11.5t-9.5 -16.5v-512q0 -45 18 -68.5t42 -34t48 -14t37 -9.5q4 -2 7 -13t3 -16q0 -6 -2 -17.5 t-8 -13.5h-522q-6 2 -8 13.5t-2 17.5q0 5 3 16t7 13q13 6 37 9.5t48 14t42 34t18 68.5v436q0 39 -6 71.5t-23 56t-47.5 36.5t-79.5 13q-23 0 -58 -12.5t-71.5 -31.5t-68 -40t-46.5 -39v-490q0 -45 18 -68.5t42 -34t48 -14t37 -9.5q4 -2 7 -13t3 -16q0 -6 -2 -17.5t-8 -13.5 h-522q-6 2 -8 13.5t-2 17.5q0 5 3 16t7 13q13 6 37 9.5t48 14t42 33t18 67.5v509q0 24 -13 37.5t-33 20.5t-43 11.5t-44 10.5q-6 2 -9.5 5.5t-3.5 14.5q0 5 3 10t12 10z" />
<glyph unicode="n" horiz-adv-x="1316" d="M407 970q4 2 8.5 4t6.5 2q17 0 17 -24v-156q3 -10 8 -10t8 0.5t8 3.5q64 33 108.5 55.5t77 38t58 24t51.5 13t57 5.5t76 1q49 0 85 -21t60.5 -55.5t40 -79t23.5 -91t11 -92t3 -82.5q0 -35 -1.5 -65t-3 -65.5t-3 -80.5t-1.5 -109q0 -30 11 -50t28.5 -33t38.5 -19.5 t41 -10.5t36.5 -6.5t25.5 -6.5q4 -2 7 -13t3 -16q0 -6 -2 -17.5t-8 -13.5h-558q-6 2 -8 13.5t-2 17.5q0 5 3 16t7 13q13 6 34.5 9.5t44 15.5t41 36.5t24.5 72.5q2 15 3.5 28t2.5 26.5t1.5 29.5t0.5 37q0 45 -1 96t-1 114q0 49 -4.5 97t-22 86t-51.5 62t-94 24 q-21 0 -37.5 -2.5t-40 -11.5t-61.5 -27t-102 -49q-8 -5 -16.5 -11.5t-9.5 -16.5v-490q0 -45 18 -68.5t42 -34t48 -14t37 -9.5q4 -2 7 -13t3 -16q0 -6 -2 -17.5t-8 -13.5h-522q-6 2 -8 13.5t-2 17.5q0 5 3 16t7 13q13 6 37 9.5t48 14t42 34t18 68.5v508q0 24 -13 37.5 t-33 20.5t-43 11.5t-44 10.5q-6 2 -9.5 5.5t-3.5 14.5q0 5 3 10t12 10z" />
<glyph unicode="o" horiz-adv-x="1197" d="M75 467q0 94 41.5 180t111.5 152t163 105t196 39q108 0 205 -37t170.5 -101.5t116.5 -152t43 -189.5q0 -104 -39.5 -193.5t-109.5 -155.5t-166.5 -103.5t-210.5 -37.5q-113 0 -208.5 38.5t-165 105t-108.5 156.5t-39 194zM331 530q0 -54 8 -111.5t24 -112t40.5 -102.5 t58.5 -84.5t77 -57.5t97 -21q59 0 101.5 30.5t70 79.5t40.5 110t13 122q0 49 -9 103.5t-27 108t-44 102.5t-60.5 86.5t-77 59.5t-92.5 22q-56 0 -97.5 -30.5t-68.5 -79t-40.5 -108t-13.5 -117.5z" />
<glyph unicode="p" horiz-adv-x="1166" d="M367 970q4 2 8.5 4t6.5 2q17 0 17 -24v-106q0 -5 4.5 -8t7.5 -3q5 0 9.5 2.5t8.5 4.5q40 24 72 40.5t61 26t60 13.5t70 4q85 0 152.5 -40.5t114.5 -106t72 -147.5t25 -165q0 -61 -17 -122t-47 -115.5t-72 -101.5t-92.5 -81.5t-108 -54t-118.5 -19.5q-45 0 -87.5 6 t-93.5 17q-17 0 -18.5 -12t-2.5 -25v-407q0 -29 12.5 -48.5t32 -32t43 -19t45.5 -10.5t40 -6.5t27 -6.5q10 -4 10 -13q0 -14 -10 -16h-577q-10 2 -10 16q0 9 10 13q13 6 37 9.5t48 14t42 33t18 66.5v1142q0 24 -13 37.5t-33 20.5t-43 11.5t-44 10.5q-6 2 -9.5 5.5t-3.5 14.5 q0 5 3 10t12 10zM603 813q-54 0 -98.5 -15t-90.5 -49q-2 -1 -4.5 -3.5l-4.5 -4.5l-6 -6v-534q0 -3 1 -16.5t3 -24.5q3 -21 26 -38.5t52.5 -30t59 -19t47.5 -6.5q66 0 111.5 24t73.5 64.5t40.5 94.5t12.5 115q0 47 -5 98.5t-15.5 101.5t-28 95t-42 79t-57.5 54.5t-75 20.5z " />
<glyph unicode="q" horiz-adv-x="1172" d="M1009 -448q0 -44 18 -66.5t42 -33t48 -14t37 -9.5q10 -4 10 -13q0 -14 -10 -16h-612q-10 2 -10 16q0 9 10 13q9 4 29.5 6.5t46.5 6.5t54 10.5t51.5 19t38.5 31.5t15 49v518q0 5 -1 5.5t-3 0.5q-5 0 -18 -8q-53 -30 -87.5 -48.5t-63.5 -29t-58 -14t-71 -3.5q-77 0 -145 37 t-119 100t-81 145.5t-30 172.5q0 116 43.5 211.5t116 163t166 104.5t193.5 37q66 0 125 -16.5t116 -47.5h7q13 0 32 11t38 24.5t34.5 25t21.5 11.5h10q2 0 4 -0.5t2 -5.5v-1394zM777 626q0 127 -53 184t-144 57q-49 0 -94.5 -33t-81 -92.5t-56.5 -143t-21 -183.5 q0 -75 24.5 -134.5t62.5 -101t84.5 -63.5t91.5 -22q66 0 131 28q21 9 38.5 28t17.5 32v444z" />
<glyph unicode="r" horiz-adv-x="823" d="M407 939q4 2 8.5 4t6.5 2q17 0 17 -24v-170q0 -3 0.5 -7.5t5.5 -4.5t8 3.5t6 6.5q18 24 40.5 53.5t48 55.5t52.5 43.5t53 17.5q18 0 47 -10t56.5 -23.5t47 -28t19.5 -23.5t-9 -33.5t-22.5 -49.5t-29 -44.5t-28.5 -19.5h-2q-18 6 -36.5 14.5t-37.5 17t-38.5 14t-39.5 5.5 q-30 0 -56 -12.5t-44.5 -32t-29.5 -43.5t-11 -46v-422q0 -29 12.5 -48.5t32 -32t43 -19t45.5 -10.5t40 -6.5t27 -6.5q10 -4 10 -28q0 -29 -10 -31h-577q-10 2 -10 31q0 24 10 28q13 6 37 9.5t48 14t42 33t18 66.5v481q0 24 -13 37.5t-33 20.5t-43 11.5t-44 10.5 q-6 2 -9.5 5.5t-3.5 14.5q0 5 3 10t12 10z" />
<glyph unicode="s" horiz-adv-x="758" d="M197 6q-9 0 -16 -5t-13.5 -11.5t-12.5 -11.5t-14 -5h-36q-2 0 -6 29t-8.5 69.5t-7.5 84t-3 72.5q0 16 11.5 20.5t24.5 4.5q7 0 15.5 -5t16 -12.5t13.5 -15.5t9 -14q17 -37 34 -67t39 -51t52 -32.5t72 -11.5q32 0 52 11t31 29t14.5 41t3.5 48q0 50 -30 84.5t-74.5 64.5 t-97 61t-97 72t-74.5 97.5t-30 139.5q0 48 30 93.5t78 80.5t107.5 56t118.5 21q31 0 62.5 -5.5t58 -12.5t45 -14t23.5 -10q7 -5 11.5 -15.5t6 -33.5t2 -61.5t0.5 -100.5q0 -17 -12.5 -24.5t-24.5 -7.5q-11 0 -21.5 4t-13.5 13q-12 31 -27 62.5t-34.5 57t-45.5 41t-60 15.5 q-20 0 -40 -5t-36 -19.5t-25.5 -39.5t-9.5 -64q0 -34 31.5 -63t78.5 -58.5t102.5 -63.5t102.5 -78t78.5 -101.5t31.5 -135.5q0 -58 -30 -104.5t-77 -78.5t-104.5 -49.5t-112.5 -17.5q-28 0 -56 5t-51 11.5t-38 11.5t-17 5z" />
<glyph unicode="t" horiz-adv-x="723" d="M151 771h-75q-14 0 -22 7t-9 15q0 5 2 11t5 8q20 13 43.5 30.5t46.5 36.5t45 38t39 35q10 11 27.5 33t40 43.5t48.5 38t53 16.5q6 0 14 -4t8 -10q0 -7 -3.5 -21.5t-8.5 -32.5t-11 -38t-11 -39q0 -8 2.5 -13t13.5 -6h255q16 0 22 -5.5t9 -14.5q2 -5 4 -20.5t4 -34t3.5 -37 t1.5 -30.5q0 -6 -8 -6h-301q-5 0 -5.5 -2t-0.5 -7v-497q0 -32 8 -56t20.5 -40t28.5 -24t32 -8q46 0 75 13.5t50 29.5t37 29.5t36 13.5q14 0 16.5 -11t2.5 -17q0 -13 -3.5 -20.5t-5.5 -11.5q-1 -2 -11 -17t-27 -36t-41.5 -45t-54.5 -44.5t-65.5 -34t-74.5 -13.5 q-54 0 -101 20t-81 53.5t-53.5 76.5t-19.5 89v559z" />
<glyph unicode="u" horiz-adv-x="1200" d="M164 730q-3 29 -26.5 49.5t-50.5 26.5q-7 2 -15.5 2.5t-15.5 2t-11.5 5t-4.5 12.5q0 8 2.5 14t13.5 9l305 88q6 2 12.5 3t12.5 1q10 0 10 -17v-675q0 -34 15.5 -61.5t40.5 -46.5t57 -29t66 -10q24 0 50 8t50 20.5t45 29t34 34.5v535q-3 29 -26.5 49.5t-50.5 26.5 q-7 2 -15.5 2.5t-15.5 2t-11.5 5t-4.5 12.5q0 8 2.5 14t13.5 9l305 87q6 2 12.5 3t12.5 1q10 0 10 -9v-690q5 -44 25 -63t65 -19l58 4q4 0 5 -13.5t1 -19.5q0 -2 -2.5 -13t-12.5 -16l-304 -125q-2 -1 -10 -3.5t-9 -2.5q-7 0 -8.5 8.5t-1.5 16.5v96q-3 4 -10 4h-4t-2 -2 l-160 -78q-22 -8 -41 -15.5t-37.5 -14.5t-39.5 -11t-46 -4q-42 0 -92.5 8.5t-94 27t-72.5 47.5t-29 70v604v0z" />
<glyph unicode="v" horiz-adv-x="1130" d="M479 -27q-8 0 -13.5 11.5t-8.5 19.5l-271 735q-17 46 -49 80.5t-78 49.5q-7 2 -17 3t-19.5 3t-16 7t-6.5 16q0 10 5 18.5t17 8.5h526q6 0 8 -10.5t2 -13.5q0 -14 -11 -18.5t-28 -5.5t-36 -0.5t-36 -4.5t-28 -17.5t-11 -38.5q0 -3 3 -12.5t3 -11.5l199 -544 q2 -5 6.5 -14.5t12.5 -9.5q4 0 8.5 4.5t7.5 10.5t5 11.5t3 7.5q47 120 79 202.5t53 137.5t32.5 86.5t16.5 48.5t6 24.5t1 14.5q0 35 -22 57.5t-54 34.5q-9 2 -22.5 2t-26 2t-22 8t-9.5 20q0 8 8 16t16 8h399q6 -1 7.5 -7.5t1.5 -17.5q0 -7 -2 -10.5t-9.5 -6t-21 -4.5 t-35.5 -6t-38.5 -20.5t-30 -38.5t-23.5 -45.5t-19 -42.5q-68 -174 -114.5 -295t-77.5 -201t-48.5 -124.5t-26.5 -66.5t-11 -27l-2 -5q-3 -7 -8.5 -18t-13.5 -11h-160v0z" />
<glyph unicode="w" horiz-adv-x="1723" d="M481 -27q-8 0 -13.5 11.5t-8.5 19.5l-265 717q-17 46 -49 80.5t-78 49.5q-7 2 -17 4.5t-19.5 6.5t-16 10.5t-6.5 17.5q0 10 6 20t18 10h525q6 0 7 -12t1 -15q0 -14 -11 -19.5t-27 -7t-35 -3t-35 -7t-27 -19t-11 -39.5q0 -3 1 -12.5t1 -11.5l193 -525q2 -5 6.5 -14.5 t12.5 -9.5q4 0 8.5 4.5t7.5 10.5t5 11.5t3 7.5l174 462q-17 46 -49 80.5t-78 49.5q-7 2 -17 4.5t-19.5 6.5t-16 10.5t-6.5 17.5q0 10 6 20t18 10h526q6 0 7 -12t1 -15q0 -14 -11 -19.5t-27 -7t-35 -3t-35 -7t-27 -19t-11 -39.5q0 -3 1 -12.5t1 -11.5l164 -446 q2 -5 6.5 -14.5t12.5 -9.5q4 0 8.5 4.5t8 10.5t5.5 11.5t3 7.5l149 391q4 11 4 24q0 24 -10.5 42.5t-26.5 31t-33.5 18.5t-31.5 6q-20 0 -39.5 10t-19.5 32q0 8 7 17.5t15 9.5h401q8 -2 9.5 -12.5t1.5 -15.5q0 -7 -2 -12t-9.5 -9.5t-21 -8t-35.5 -7.5t-38.5 -20.5t-30 -38.5 t-23.5 -45.5t-19 -42.5q-67 -175 -113.5 -295t-77 -198t-47 -121t-24.5 -63t-9.5 -24.5l-1.5 -4.5q-3 -7 -8 -18t-13 -11h-102q-8 0 -13.5 11.5t-8.5 19.5l-217 586l-227 -588q-3 -7 -8.5 -18t-13.5 -11h-149v0z" />
<glyph unicode="x" horiz-adv-x="1111" d="M491 920q6 0 7 -7t1 -10q-1 -8 -16 -11.5t-33 -9t-33 -16.5t-15 -33q0 -9 2 -18t7 -14l131 -161q8 -9 16.5 -19.5t16.5 -10.5q5 0 13 10l117 140q13 15 19 26.5t6 30.5q0 30 -16 41.5t-35.5 17t-35.5 10.5t-16 22q0 4 1.5 8t9.5 4h333q6 0 7 -2.5t1 -14.5q0 -4 -1 -10 t-7 -9q-29 -8 -50 -17.5t-39 -22.5t-34.5 -30.5t-36.5 -41.5l-183 -218q-3 -5 -3.5 -7.5t-0.5 -8.5l360 -447q10 -13 27.5 -20.5t34 -14.5t28.5 -15.5t12 -22.5q0 -9 -2 -12t-10 -6h-465q-8 0 -9 8t-1 11q0 13 16.5 15.5t37 5.5t37 12t16.5 36q0 14 -8.5 25t-16.5 20 l-172 202q-8 11 -12.5 17t-18.5 6q-12 0 -19.5 -10.5t-15.5 -18.5l-147 -175q-13 -15 -17 -30.5t-4 -24.5q0 -18 13.5 -31.5t32.5 -22t38 -12.5t31 -4q4 0 5.5 -5t1.5 -10t-1.5 -9.5t-5.5 -4.5h-341q-11 0 -13.5 4.5t-2.5 13.5t16 19t36.5 19.5t41 20t29.5 21.5l275 333 l-326 410q-8 9 -22.5 16.5t-29.5 14t-25.5 13.5t-10.5 15q2 20 24 20h450z" />
<glyph unicode="y" horiz-adv-x="1165" d="M331 -620q-18 0 -35 6t-31 17t-22.5 25.5t-8.5 32.5q0 28 14.5 43t35.5 25t44 17t39 19q11 8 23.5 18.5t22.5 33.5l131 305l-383 799q-17 46 -49 80.5t-78 49.5q-7 2 -17 4.5t-19.5 6.5t-16 10.5t-6.5 17.5q0 10 6 20t18 10h528q6 0 7 -12t1 -15q0 -14 -11.5 -19.5 t-28.5 -7.5t-36.5 -3t-36.5 -7t-28.5 -19t-11.5 -39q0 -3 4.5 -12.5t4.5 -11.5l248 -531q2 -5 7.5 -14.5t12.5 -9.5q4 0 8 4.5t7 10.5t5 11.5t3 7.5q46 118 77.5 200t52 136t31 84.5t15 47t5.5 24t1 14.5q2 35 -21 58t-55 34q-9 3 -22.5 4.5t-26 5t-22 11t-9.5 21.5 q0 8 7 17.5t15 9.5h399q8 0 9.5 -11.5t1.5 -16.5q0 -7 -2 -12t-9.5 -9t-21 -8t-35.5 -8q-21 -4 -38 -20.5t-30.5 -38t-24 -45.5t-18.5 -43l-507 -1256q-8 -19 -23 -32.5t-33 -22.5t-36 -13t-31 -4z" />
<glyph unicode="z" horiz-adv-x="1000" d="M62 20q0 8 0.5 12t5.5 13l493 671q10 14 17.5 24t7.5 25q1 3 -13 4.5t-35 2.5t-44 1.5t-39 0.5h-165q-34 0 -57 -15t-39.5 -37.5t-27.5 -49t-20 -49t-17.5 -37.5t-20.5 -15q-3 0 -14 0.5t-11 3.5l60 353q2 9 15 10.5t21 1.5q7 0 13.5 -7t14 -15.5t16.5 -15.5t22 -7 q15 0 39.5 -1.5t62 -3t90.5 -2.5t127 -1q30 0 70.5 0.5t87 1.5t96.5 2t98 2q6 -2 8 -9t2 -14q0 -2 -5 -16.5t-11 -19.5l-506 -688q-4 -6 -7.5 -11t-3.5 -12q0 -5 0.5 -6.5t5.5 -1.5h345q27 0 48.5 11.5t40 29.5t33.5 38t29 38t26.5 29.5t25.5 11.5q6 0 17.5 -3t11.5 -9 l-83 -215q-2 -4 -5 -12t-7.5 -15.5t-11 -13t-14.5 -5.5h-771q-22 0 -22 20z" />
<glyph unicode="{" horiz-adv-x="1134" d="M206 702q0 29 19.5 45.5t47.5 16.5q54 0 85 33.5t31 111.5q0 58 -12.5 115t-27.5 113.5t-27.5 114t-12.5 116.5q0 69 24.5 123.5t66.5 95t96.5 69t115 46t122 25.5t117.5 8q40 0 57.5 -12t17.5 -37q0 -18 -5.5 -29.5t-15.5 -17.5t-22.5 -8.5t-27.5 -3.5 q-60 -3 -113.5 -17.5t-93.5 -44t-63.5 -75t-23.5 -110.5q0 -59 4.5 -116.5t15.5 -124.5q7 -45 12 -87.5t5 -86.5q0 -32 -7 -60.5t-18 -52.5t-24 -43t-25 -31q-8 -8 -19 -17.5t-20.5 -19.5t-16.5 -20t-7 -19t8 -20.5t19 -23.5t22 -22.5t17 -16.5q11 -13 23.5 -32t23 -42.5 t17.5 -51.5t7 -59q0 -32 -5.5 -78.5t-15.5 -112.5q-8 -54 -12 -111t-4 -107q0 -57 14.5 -100.5t39 -76t56 -54.5t66.5 -35.5t70 -19t66 -5.5q35 0 44 -15t9 -43q0 -24 -13.5 -37.5t-39.5 -13.5q-48 0 -108.5 6.5t-123 22.5t-122.5 44t-106.5 70.5t-75 101.5t-28.5 138 q0 55 12.5 111.5t27.5 112.5t27.5 111.5t12.5 109.5q0 38 -6.5 72t-21 59.5t-37.5 41.5t-57 19q-26 6 -43.5 21.5t-17.5 35.5z" />
<glyph unicode="|" horiz-adv-x="491" d="M150 1645h191v-1680h-191v1680z" />
<glyph unicode="}" horiz-adv-x="1134" d="M928 702q0 -20 -17.5 -35.5t-43.5 -21.5q-34 -3 -57 -19t-37.5 -41.5t-21 -59.5t-6.5 -72q0 -54 12.5 -109.5t27.5 -111.5t27.5 -112.5t12.5 -111.5q0 -79 -28.5 -138t-75 -101.5t-106.5 -70.5t-122.5 -44t-123 -22.5t-108.5 -6.5q-26 0 -39.5 13.5t-13.5 37.5q0 28 9 43 t44 15q46 0 101 13.5t101.5 46.5t78 89t31.5 142q0 50 -4 107t-12 111q-9 65 -15 113t-6 78q0 31 6.5 59t17 51.5t22.5 42.5t23 31q6 7 17.5 17.5t23 22t19.5 23.5t8 21q0 8 -7 18t-17 20.5t-20 20t-17 16.5q-12 13 -25.5 32t-24.5 43t-18.5 52.5t-7.5 60.5q0 44 5 86.5 t12 87.5q11 67 15.5 124.5t4.5 116.5q0 65 -25.5 111.5t-67.5 76.5t-96 44t-111 14q-36 0 -50.5 16t-14.5 44q0 25 12.5 37t52.5 12q63 0 128.5 -8t127 -25.5t115.5 -46t94 -69t63.5 -95t23.5 -123.5q0 -59 -12.5 -116.5t-27.5 -114t-27.5 -113.5t-12.5 -115 q0 -23 5.5 -45.5t19.5 -41.5t38 -34t61 -24q24 -3 41.5 -19.5t17.5 -42.5z" />
<glyph unicode="~" horiz-adv-x="1109" d="M1018 811q0 -89 -20.5 -158.5t-55.5 -117.5t-80.5 -73.5t-96.5 -25.5q-57 0 -106 23t-97 56q-44 30 -76.5 50.5t-56.5 32.5t-43 17t-36 5q-13 0 -27 -8.5t-26 -29t-19.5 -55t-8.5 -87.5h-179q0 89 20.5 158.5t55.5 117.5t80.5 73.5t96.5 25.5q28 0 58 -5.5t67.5 -21 t85 -43t109.5 -70.5q23 -16 48 -30t48 -14q16 0 30.5 9.5t25.5 31t18 56t7 83.5h178z" />
<glyph unicode="&#xa1;" horiz-adv-x="544" d="M328 436q-2 28 -16 45.5t-40 17.5t-40.5 -17.5t-16.5 -45.5l-74 -963v-53q0 -22 11 -31t30 -9q5 0 12.5 -0.5t17.5 -0.5q13 -1 30.5 -1h29.5h38.5t38.5 2q12 0 28.5 6.5t24.5 28.5v58zM130 794q0 -29 11.5 -55t31 -45.5t45 -30.5t54.5 -11q30 0 56 11.5t45 31.5t30 46 t11 54q0 29 -11 54.5t-30.5 45t-45.5 30.5t-55 11q-31 0 -57 -11t-45 -30.5t-29.5 -45t-10.5 -55.5z" />
<glyph unicode="&#xa2;" horiz-adv-x="988" d="M90 423q1 139 40 235.5t106 158t155.5 91t187.5 34.5l63 178h150l-65 -184q33 -5 65.5 -13.5t59 -24t42.5 -38t16 -55.5q0 -24 -9 -38.5t-25 -23t-37 -11.5t-45 -3q-22 0 -39 5.5t-30.5 15t-25 21.5t-22.5 25l-225 -634q31 -22 70.5 -33.5t89.5 -11.5q28 0 55.5 9 t53 24.5t48 35.5t41.5 43q10 12 19.5 20t29.5 8q24 0 41.5 -12.5t17.5 -26.5q0 -4 -1.5 -10.5t-10.5 -18.5q-38 -48 -82 -88t-94 -68t-107.5 -43.5t-122.5 -15.5q-57 0 -109 18l-124 -351h-149l148 419q-40 32 -72.5 73.5t-55.5 88.5t-35.5 98t-12.5 103zM332 485 q0 -49 5.5 -93.5t16.5 -82.5l193 544q-66 -4 -107.5 -40.5t-65.5 -90t-33 -117t-9 -120.5z" />
<glyph unicode="&#xa3;" horiz-adv-x="1110" d="M212 623q-26 0 -42.5 8.5t-16.5 22.5v24q0 14 16.5 23t42.5 9h139q-19 37 -36.5 75t-31 77t-21.5 79.5t-8 83.5q0 81 30.5 151t82.5 122t121 81.5t145 29.5t146.5 -19.5t125 -53t87.5 -78.5t33 -96q0 -14 -6 -29t-18 -27.5t-29 -20.5t-39 -8q-27 0 -46.5 7.5t-34.5 22 t-28 35t-27 46.5q-19 34 -37.5 60t-40 43t-47.5 26t-60 9q-30 0 -60 -13.5t-54 -36.5t-39 -55t-15 -68q0 -54 9.5 -100t25 -88t35 -80t39.5 -75q14 -27 26.5 -49.5t25.5 -50.5h161q26 0 42.5 -9t16.5 -23v-24q0 -14 -16.5 -22.5t-42.5 -8.5h-126q12 -37 18.5 -73.5 t6.5 -76.5q0 -24 -2 -53.5t-6.5 -60.5t-11 -61t-15.5 -57q21 -20 46 -39.5t51 -34.5t52 -24.5t50 -9.5q38 0 66.5 24t48 54t29.5 57t10 33h91q-2 -26 -9 -61t-21.5 -71.5t-38 -71.5t-58.5 -62.5t-83 -44.5t-111 -17q-37 0 -69.5 11t-60 27.5t-49.5 35t-37 34.5 q-18 -20 -41 -39.5t-50.5 -34.5t-59 -24.5t-66.5 -9.5q-53 0 -91.5 14t-63.5 38t-37 55t-12 64q0 44 20 80.5t54 63t77 41t90 14.5q42 0 72.5 -7t51.5 -15v5q0 40 -7.5 79.5t-19.5 77t-27 73t-31 67.5h-184zM235 140q0 -17 5 -33.5t15 -29.5t23.5 -21t30.5 -8 q27 0 50.5 15.5t42 37t31 44t18.5 36.5q-10 12 -23 25.5t-28.5 24.5t-34.5 18.5t-40 7.5q-18 0 -34.5 -9.5t-28.5 -25.5t-19.5 -37t-7.5 -45z" />
<glyph unicode="&#xa4;" horiz-adv-x="1049" d="M230 493q-27 44 -42.5 88.5t-15.5 100.5q0 61 17 105.5t51 89.5l-199 200l99 99l200 -201q23 16 44.5 28t44 20t47.5 12t55 4q55 0 99.5 -15t89.5 -44l197 197l98 -98l-197 -197q17 -23 31 -45.5t23.5 -46.5t15 -50.5t5.5 -57.5q0 -60 -18 -106t-48 -91l190 -191l-98 -98 l-191 191q-46 -32 -92 -49t-105 -17q-63 0 -111 19t-96 52q-19 -19 -45 -45.5t-53.5 -54l-53 -53t-42.5 -41.5l-98 98zM320 682q0 -47 15.5 -86.5t43 -68t66.5 -44t86 -15.5t86.5 15.5t68 44t44 68t15.5 86.5t-15.5 86t-44 66.5t-68 43t-86.5 15.5t-86 -15.5t-66.5 -43 t-43 -66.5t-15.5 -86z" />
<glyph unicode="&#xa5;" horiz-adv-x="1634" d="M284 515q-21 0 -21 25v76q0 25 21 25h339l-323 517q-17 27 -36.5 54.5t-43 52t-51 43t-59.5 26.5q-5 1 -16 3.5t-23 4.5t-23 4t-16 3q-10 1 -19 12.5t-9 20.5q0 2 0.5 7t2 9.5t4.5 8t8 3.5h679q11 0 14 -10t3 -18q0 -10 -1.5 -21t-11.5 -11q-27 -2 -51 -4t-41 -9.5 t-27 -22.5t-10 -42q0 -24 12 -43l305 -490q11 -17 14.5 -21t11.5 -4q7 0 12.5 8t13.5 21l241 409q14 23 28.5 51t14.5 57q0 28 -7.5 44.5t-22.5 25.5t-36.5 13t-49.5 7q-11 1 -13 12t-2 20q0 7 2.5 17.5t14.5 10.5h503q8 0 11 -11.5t3 -16.5q0 -10 -6.5 -17t-16 -11.5 t-20 -7t-19.5 -4.5q-50 -11 -86.5 -36.5t-71.5 -63.5q-5 -5 -14.5 -16t-10.5 -13l-333 -572h345q10 0 15.5 -7.5t5.5 -17.5v-76q0 -11 -6 -18t-15 -7h-399v-115h402q8 -2 13 -8.5t5 -16.5v-76q0 -11 -6 -18t-15 -7h-399v-79q0 -60 31 -93t110 -41q11 -1 28 -1h29q5 0 6.5 -3 t1.5 -5v-44q0 -2 -1.5 -5t-6.5 -3h-681q-5 0 -6.5 3t-1.5 5v44q0 2 1.5 5t6.5 3h28.5t28.5 1q79 8 110 41t31 93v79h-428q-21 0 -21 25v76q0 25 21 25h428v94q0 6 -3 10l-7 11h-418v0z" />
<glyph unicode="&#xa6;" horiz-adv-x="841" d="M511 1645v-750h-181v750h181zM511 717v-752h-181v752h181z" />
<glyph unicode="&#xa7;" horiz-adv-x="1164" d="M481 1119q26 -45 64 -97.5t82 -111.5q65 -87 137 -189.5t132 -217t99 -239.5t39 -257q0 -58 -15 -123t-46 -129.5t-79 -124.5t-113.5 -107.5t-150 -79t-188.5 -38.5q-27 0 -61.5 6.5t-70.5 18t-70 28t-60.5 37.5t-43 45.5t-16.5 51.5q0 13 3.5 30t16.5 32.5t38.5 26.5 t70.5 11q25 0 47 -12t42.5 -30.5t41.5 -39.5t43.5 -39.5t47.5 -30.5t55 -12q29 0 65 11t67 32.5t52 52.5t21 70q0 23 -9.5 52t-23 57.5t-28 53.5t-25.5 41q-48 71 -92 133.5t-87 122.5q-82 114 -151 215t-119 201.5t-78 206.5t-28 229q0 54 16.5 120.5t48.5 134.5t81 132 t113 114t144.5 80t176.5 30q26 0 60.5 -6t71.5 -17t73 -27.5t64.5 -37.5t46.5 -46t18 -53q0 -12 -3.5 -29t-16 -33t-38.5 -27t-71 -11q-25 0 -47 12t-42.5 30.5t-41 39.5t-43 39.5t-47.5 30.5t-55 12q-29 0 -65 -11t-67 -32t-52 -51.5t-21 -70.5q0 -24 7.5 -52t20 -56 t27.5 -53.5t30 -45.5zM371 1036q-12 16 -24.5 38.5t-24.5 47.5t-22.5 52t-19.5 53q-25 -57 -37 -116.5t-12 -119.5q0 -49 8.5 -97.5t26.5 -94.5q13 -55 45.5 -121.5t76 -138.5t94 -147t99.5 -146q47 -68 92.5 -135.5t80.5 -122.5q10 -17 22 -40t24 -50t23.5 -55.5 t20.5 -56.5q26 49 35 101t9 120q0 33 -2.5 60.5t-6.5 53t-9.5 51t-11.5 52.5q-12 53 -42.5 115.5t-71.5 130t-88 136.5t-92 134q-57 81 -109 159t-84 137z" />
<glyph unicode="&#xa8;" horiz-adv-x="780" d="M170 1092q-29 0 -54 10.5t-43.5 28.5t-29 42.5t-10.5 53.5t10.5 54.5t29 44t43.5 29.5t54 11t54 -11t43.5 -29.5t29 -44t10.5 -54.5t-10.5 -53.5t-29 -42.5t-43.5 -28.5t-54 -10.5zM609 1092q-29 0 -53.5 10.5t-43.5 28.5t-29.5 42.5t-10.5 53.5t10.5 54.5t29.5 44 t43.5 29.5t53.5 11q30 0 55 -11t43 -29.5t28.5 -44t10.5 -54.5t-10.5 -53.5t-28.5 -42.5t-43 -28.5t-55 -10.5z" />
<glyph unicode="&#xa9;" horiz-adv-x="1717" d="M90 723q0 105 27 202t77 182t119 154t154 119t182 77t202 27t202 -27t182 -77t154 -119t119 -154t77 -182t27 -202t-27 -202t-77 -182t-119 -154t-154 -119t-182 -77t-202 -27t-202 27t-182 77t-154 119t-119 154t-77 182t-27 202zM226 723q0 -86 22.5 -166t63 -149.5 t97.5 -126.5t126.5 -97.5t149.5 -63t166 -22.5t166 22.5t149.5 63t126.5 97.5t97.5 126.5t63 149.5t22.5 166t-22.5 166t-63 149.5t-97.5 126.5t-126.5 97.5t-149.5 63t-166 22.5t-166 -22.5t-149.5 -63t-126.5 -97.5t-97.5 -126.5t-63 -149.5t-22.5 -166zM368 711 q0 73 17 137.5t47.5 119t73.5 98t95.5 74t112.5 46.5t125 16q56 0 107 -10.5t106 -24.5q9 -3 19 -7t18.5 -7.5t15.5 -6t11 -2.5q1 0 8 2.5t10 2.5h28q7 0 7 -11v-212q0 -4 -3 -5.5t-12 -1.5q-1 0 -8.5 0.5t-9.5 3.5q-1 2 -4.5 8t-7.5 12t-7 11.5t-4 7.5q-23 49 -50 82.5 t-59.5 54.5t-71 30.5t-83.5 9.5q-57 0 -101 -14.5t-77 -40.5t-55.5 -62.5t-36.5 -79.5t-20.5 -92.5t-6.5 -101.5q0 -55 7.5 -109t23.5 -103.5t41.5 -91.5t61.5 -72.5t84 -48.5t108 -18q51 0 95.5 17t81 45t65 65t48.5 77q1 3 2.5 3.5t4.5 0.5h31q2 0 4 -1.5t2 -6.5 q0 -2 -2.5 -10.5t-5.5 -14.5l-83 -197q-1 -2 -3.5 -3.5t-4.5 -1.5q-14 0 -20 2.5t-12 2.5q-18 0 -47.5 -6.5t-64 -14.5t-69.5 -15t-63 -7q-63 0 -122.5 15t-111.5 43.5t-95 70t-74.5 93.5t-48.5 114.5t-17 134.5z" />
<glyph unicode="&#xaa;" horiz-adv-x="682" d="M326 756q-23 -17 -53.5 -25.5t-61.5 -8.5q-84 0 -127.5 38t-43.5 102q0 37 17 63.5t50 47t81.5 37t111.5 33.5q35 9 56 19t38 20q11 7 13 11.5t2 8.5v119q0 46 -25.5 76.5t-73.5 30.5q-40 0 -66.5 -26.5t-26.5 -71.5q0 -4 1 -14t2 -12q-2 -3 -23.5 -10t-48 -15t-51 -15 t-31.5 -8q-7 0 -9 7.5t-2 15.5q0 40 24 77.5t64.5 66.5t92.5 47t108 18q49 0 88 -13t66.5 -35t42 -51t14.5 -62v-327q0 -17 13.5 -31.5t34.5 -14.5q13 0 23 4.5t17.5 10.5t13 10.5t9.5 4.5q5 0 6 -4.5t1 -8.5q0 -11 -3 -23t-11 -18q-33 -25 -59.5 -45t-47.5 -34.5t-38 -22 t-32 -7.5q-21 0 -35 15.5t-22 34t-12 33.5t-6 14zM200 878q0 -18 7 -29.5t18.5 -18t26.5 -9t31 -2.5q14 0 35.5 7.5t41.5 19.5t34.5 27t14.5 31v113q0 9 -3 9l-164 -76q-10 -7 -17.5 -13t-13 -13.5t-8.5 -18.5t-3 -27z" />
<glyph unicode="&#xab;" horiz-adv-x="893" d="M448 927l-188 -375l190 -373h-100l-282 373l282 375h98zM781 927l-188 -375l190 -373h-100l-282 373l282 375h98z" />
<glyph unicode="&#xac;" horiz-adv-x="1049" d="M972 719v-573h-187v386h-717v187h904z" />
<glyph unicode="&#xad;" horiz-adv-x="973" d="M888 608v-197h-803v197h803z" />
<glyph unicode="&#xae;" horiz-adv-x="1702" d="M90 723q0 105 27 202t77 182t119 154t154 119t182 77t202 27t202 -27t182 -77t154 -119t119 -154t77 -182t27 -202t-27 -202t-77 -182t-119 -154t-154 -119t-182 -77t-202 -27t-202 27t-182 77t-154 119t-119 154t-77 182t-27 202zM226 723q0 -86 22.5 -166t63 -149.5 t97.5 -126.5t126.5 -97.5t149.5 -63t166 -22.5t166 22.5t149.5 63t126.5 97.5t97.5 126.5t63 149.5t22.5 166t-22.5 166t-63 149.5t-97.5 126.5t-126.5 97.5t-149.5 63t-166 22.5t-166 -22.5t-149.5 -63t-126.5 -97.5t-97.5 -126.5t-63 -149.5t-22.5 -166zM415 336q0 1 1 3 t4 2q4 0 11.5 1t16 2.5t16 3t10.5 1.5q34 8 47.5 26t13.5 44v610q0 30 -12.5 47t-29 26t-32 11t-20.5 2h-23q-3 0 -4 2t-1 3v26q0 1 0.5 2.5t4.5 2.5h2.5t9 0.5t19 0.5t35.5 1q33 0 70.5 1.5t76 2.5t76 2t70.5 1h60q47 0 96.5 -16t89.5 -47.5t65.5 -78.5t25.5 -108 q0 -40 -11 -71t-30 -54.5t-45 -41.5t-57 -32l182 -288q24 -37 55 -67.5t72 -42.5q5 -1 6 -3t1 -5q0 -9 -5 -12t-15 -3q-25 0 -57 3.5t-64.5 11t-61.5 19.5t-49 30q-19 16 -39 42t-40 55.5t-39.5 62t-38 63t-35 57t-30.5 44.5l-93 7h-5t-6 -1q-2 -2 -2.5 -3t-0.5 -5v-255 q0 -16 4 -28t14 -21t26 -14.5t39 -8.5q3 0 10 -1.5t15 -3t16 -2.5t13 -1q4 0 4.5 -2t0.5 -3v-26q0 -1 -1 -3t-4 -2h-423q-3 0 -4 8.5t-1 15.5v7zM707 745q1 -5 3 -9t8 -4q6 -1 16.5 -2.5t30.5 -1.5q52 0 86.5 16t54 43.5t27 63t7.5 73.5q0 40 -12.5 76t-35 62.5t-54 42 t-69.5 15.5h-13t-9.5 -0.5t-10 -0.5t-15.5 -1q-4 0 -9.5 -1.5t-5.5 -8.5v-345z" />
<glyph unicode="&#xaf;" horiz-adv-x="739" d="M26 1342h687v-169h-687v169z" />
<glyph unicode="&#xb0;" horiz-adv-x="1099" d="M295 1150q0 53 20 99t54.5 80.5t80.5 54.5t99 20t99 -20t80.5 -54.5t54.5 -80.5t20 -99t-20 -99.5t-54.5 -81t-80.5 -54.5t-99 -20t-99 20t-80.5 54.5t-54.5 81t-20 99.5zM418 1148q0 -27 10.5 -50.5t28 -41.5t41.5 -28t51 -10t51 10t41.5 28t28 41.5t10.5 50.5t-10.5 51 t-28 42.5t-41.5 29t-51 10.5t-51 -10.5t-41.5 -29t-28 -42.5t-10.5 -51z" />
<glyph unicode="&#xb1;" horiz-adv-x="1049" d="M68 814h363v363h187v-363h363v-187h-363v-363h-187v363h-363v187zM68 162h913v-187h-913v187z" />
<glyph unicode="&#xb2;" horiz-adv-x="687" d="M74 551q-20 0 -23 3.5t-3 20.5q0 10 6.5 20t16.5 21q29 34 68 68.5t73 68.5q46 45 91 91t80.5 92t57.5 91t22 88q0 33 -13 62.5t-34.5 52.5t-49 36.5t-56.5 13.5q-31 0 -58.5 -10.5t-49.5 -28.5t-37.5 -42.5t-22.5 -52.5q-3 -14 -12.5 -27.5t-37.5 -13.5q-8 0 -12.5 7.5 t-4.5 15.5q0 54 24.5 99.5t64 79.5t89.5 53t102 19q58 0 106 -18.5t81.5 -51.5t52 -77.5t18.5 -95.5q0 -75 -54 -149.5t-156 -161.5q-8 -7 -30.5 -28.5t-48.5 -47.5t-50.5 -51t-35.5 -38h296q13 0 21.5 4t14.5 14t11.5 26.5t12.5 42.5h49l-28 -170q-2 -8 -10 -17t-30 -9 h-501v0z" />
<glyph unicode="&#xb3;" horiz-adv-x="682" d="M297 535q-36 0 -79.5 4.5t-82 16t-64.5 32t-26 53.5q0 26 17 45t57 19q25 0 48 -16.5t47 -36.5t50.5 -36.5t59.5 -16.5q36 0 63 19.5t45 50.5t27 69t9 74q0 44 -10 72.5t-25.5 44.5t-34 22t-35.5 6q-21 0 -31.5 -2.5t-17.5 -6t-14 -6t-22 -2.5q-5 0 -11.5 3.5t-12.5 9 t-10 11t-4 8.5t7 12t14 15q22 19 47 42.5t46.5 49t35.5 52.5t14 54q0 20 -9.5 37.5t-25 30.5t-34.5 20.5t-37 7.5q-34 0 -62.5 -12t-51 -29t-38.5 -36.5t-24 -35.5q-4 -7 -8 -8.5t-12 -1.5q-6 0 -16 5t-10 14l6 15q15 36 36.5 68t51 56t67.5 37.5t86 13.5q47 0 87.5 -9.5 t70 -28t46 -45.5t16.5 -63q0 -27 -9.5 -51t-25.5 -45.5t-37 -40.5t-44 -35q53 -6 89 -26.5t58.5 -51t32 -68.5t9.5 -78q0 -67 -28 -122.5t-73.5 -95.5t-102.5 -62t-115 -22z" />
<glyph unicode="&#xb4;" horiz-adv-x="740" d="M176 1084q-3 4 -5.5 8t-2.5 10t3 10t5 8l213 295q22 30 45 43.5t46 13.5q19 0 36 -7.5t29.5 -20.5t19.5 -30t7 -36q0 -37 -20 -64t-43 -46l-270 -218q-6 -5 -8.5 -5.5t-9.5 -0.5q-9 0 -13.5 2.5t-9.5 8.5z" />
<glyph unicode="&#xb5;" horiz-adv-x="1175" d="M976 231q0 -44 22.5 -63t67.5 -19l58 4q4 0 5 -5.5t1 -11.5q0 -2 -2.5 -5t-12.5 -8l-341 -144q-2 -1 -10 -3.5t-9 -2.5q-7 0 -8.5 8.5t-1.5 16.5v78q0 6 -5 6t-11 -3q-55 -24 -92.5 -41.5t-64 -29t-44.5 -18.5t-32.5 -11t-29 -5t-33.5 -1q-23 0 -42 3t-42 8v-512 q0 -9 -1 -13t-8 -7l-173 -72q-9 0 -10.5 3.5t-1.5 17.5v1498q0 14 1.5 17.5t10.5 3.5h208q9 0 10.5 -3.5t1.5 -17.5v-642q0 -34 15.5 -61.5t40.5 -46.5t57 -29t66 -10q12 0 36 6t51 18t52.5 29t39.5 39v697q0 14 1.5 17.5t10.5 3.5h207q9 0 10.5 -3.5t1.5 -17.5v-668z" />
<glyph unicode="&#xb6;" horiz-adv-x="1216" d="M729 -275q0 -19 -2.5 -26t-13.5 -7h-94q-11 0 -13 8.5t-2 28.5v1106q-42 2 -95.5 6t-109.5 16t-110 34.5t-96 61t-67.5 96t-25.5 140.5q0 98 28 166t79 113t123.5 70t162 37t193.5 14.5t219 2.5h251q25 0 25 -16v-69q0 -9 -5 -12.5t-22 -3.5h-133v-1781q0 -9 -3 -13.5 t-14 -4.5h-93q-11 0 -13.5 6.5t-2.5 28.5v1759h-166v-1761z" />
<glyph unicode="&#xb7;" horiz-adv-x="604" d="M130 678q0 34 13.5 65.5t37 55t55 37.5t66.5 14q36 0 67 -14t54.5 -37.5t37 -55t13.5 -65.5q0 -37 -13.5 -68.5t-37 -54.5t-54.5 -36t-67 -13q-35 0 -66.5 13t-55 36t-37 54.5t-13.5 68.5z" />
<glyph unicode="&#xb8;" horiz-adv-x="775" d="M564 15l-140 -165q39 -15 65 -37t41.5 -44t22 -42t6.5 -32q0 -62 -33 -106t-85.5 -72t-117 -41t-128.5 -13q-40 0 -67.5 8t-27.5 40q0 8 9.5 19.5t29.5 19.5q8 3 23 5.5t32 5.5q24 4 52.5 10t52.5 18.5t40.5 33t16.5 53.5q0 22 -18 39t-43 29.5t-52 19.5t-46 9l196 242 h171z" />
<glyph unicode="&#xb9;" horiz-adv-x="688" d="M153 552q-18 0 -23 4.5t-5 9.5v33q0 5 4.5 9t21.5 4q12 0 30 0.5t35.5 1.5t32 3.5t19.5 7.5v606q-20 -14 -34.5 -22.5t-26.5 -15.5t-25 -14t-30 -16q-3 -2 -10.5 -5t-12.5 -3q-6 0 -9 6t-12 20q-1 1 -1 2v1q0 2 14 12q18 12 41 31t49 43t53 52t52 57h86q23 0 28.5 -3.5 t5.5 -15.5v-686q0 -17 1 -33.5t3 -16.5q15 -9 41 -10.5t52 -1.5q19 0 24 -4.5t5 -8.5v-33q0 -5 -5 -9.5t-24 -4.5h-380v0z" />
<glyph unicode="&#xba;" horiz-adv-x="824" d="M29 1061q0 64 28.5 123t76.5 104t111.5 72t134.5 27q74 0 141 -25.5t117.5 -69.5t80 -104t29.5 -130q0 -71 -27 -132.5t-75 -106.5t-114.5 -70.5t-145.5 -25.5q-78 0 -143.5 26t-113 72t-74 107.5t-26.5 132.5zM204 1104q0 -56 12.5 -115.5t38 -108t65 -80t94.5 -31.5 q40 0 69.5 21t48 54.5t27.5 75t9 83.5q0 50 -14 108t-41 107.5t-66.5 82t-91.5 32.5q-38 0 -66.5 -21t-47.5 -54t-28 -73.5t-9 -80.5z" />
<glyph unicode="&#xbb;" horiz-adv-x="893" d="M543 927l282 -375l-282 -373h-100l190 373q-46 92 -94.5 187.5t-93.5 187.5h98zM210 927l282 -375l-282 -373h-100l190 373q-46 92 -94.5 187.5t-93.5 187.5h98z" />
<glyph unicode="&#xbc;" horiz-adv-x="1646" d="M1317 1480h190l-1101 -1535h-189zM128 552q-18 0 -23 4.5t-5 9.5v33q0 5 4.5 9t21.5 4q12 0 30 0.5t35.5 1.5t32 3.5t19.5 7.5v606q-20 -14 -34.5 -22.5t-26.5 -15.5t-25 -14t-30 -16q-3 -2 -10.5 -5t-12.5 -3q-6 0 -9 6t-12 20q-1 1 -1 2v1q0 2 14 12q18 12 41 31t49 43 t53 52t52 57h86q23 0 28.5 -3.5t5.5 -15.5v-686q0 -17 1 -33.5t3 -16.5q15 -9 41 -10.5t52 -1.5q19 0 24 -4.5t5 -8.5v-33q0 -5 -5 -9.5t-24 -4.5h-380v0zM929 270q0 13 2 16l394 551q3 5 11.5 7.5t18.5 4t18.5 1.5h11.5h16t22 -1.5t19.5 -4.5t8.5 -9v-469q0 -15 11 -15h100 q7 0 13 -1.5t6 -9.5v-79q0 -14 -12 -14h-109q-6 0 -7.5 -1.5t-1.5 -10.5v-217q0 -3 -2 -10t-15 -7h-121q-9 0 -10.5 6t-1.5 8v214q0 9 -5 13.5t-19 4.5h-322q-11 0 -18.5 7.5t-7.5 15.5zM1102 358q0 -5 4 -6t15 -1h167q8 0 10 3.5t3 8.5v240q0 8 -2 16t-13 8q-5 0 -9 -4.5 t-8 -8.5l-161 -246l-3 -6q-1 -2 -3 -4z" />
<glyph unicode="&#xbd;" horiz-adv-x="1765" d="M1335 1480h190l-1101 -1535h-189zM1126 0q-20 0 -23 3.5t-3 20.5q0 10 6.5 20t16.5 21q29 34 68 68.5t73 68.5q46 45 91 91t80.5 92t57.5 91t22 88q0 33 -13 62.5t-34.5 52.5t-49 36.5t-56.5 13.5q-31 0 -58.5 -10.5t-49.5 -28.5t-37.5 -42.5t-22.5 -52.5 q-3 -14 -12.5 -27.5t-37.5 -13.5q-8 0 -12.5 7.5t-4.5 15.5q0 54 24.5 99.5t64 79.5t89.5 53t102 19q58 0 106 -18.5t81.5 -51.5t52 -77.5t18.5 -95.5q0 -75 -54 -149.5t-156 -161.5q-8 -7 -30.5 -28.5t-48.5 -47.5t-50.5 -51t-35.5 -38h296q13 0 21.5 4t14.5 14t11.5 26.5 t12.5 42.5h49l-28 -170q-2 -8 -10 -17t-30 -9h-501v0zM128 552q-18 0 -23 4.5t-5 9.5v33q0 5 4.5 9t21.5 4q12 0 30 0.5t35.5 1.5t32 3.5t19.5 7.5v606q-20 -14 -34.5 -22.5t-26.5 -15.5t-25 -14t-30 -16q-3 -2 -10.5 -5t-12.5 -3q-6 0 -9 6t-12 20q-1 1 -1 2v1q0 2 14 12 q18 12 41 31t49 43t53 52t52 57h86q23 0 28.5 -3.5t5.5 -15.5v-686q0 -17 1 -33.5t3 -16.5q15 -9 41 -10.5t52 -1.5q19 0 24 -4.5t5 -8.5v-33q0 -5 -5 -9.5t-24 -4.5h-380v0z" />
<glyph unicode="&#xbe;" horiz-adv-x="1696" d="M1329 1480h190l-1101 -1535h-189zM295 535q-36 0 -79.5 4.5t-82 16t-64.5 32t-26 53.5q0 26 17 45t57 19q25 0 48 -16.5t47 -36.5t50.5 -36.5t59.5 -16.5q36 0 63 19.5t45 50.5t27 69t9 74q0 44 -10 72.5t-25.5 44.5t-34 22t-35.5 6q-21 0 -31.5 -2.5t-17.5 -6t-14 -6 t-22 -2.5q-5 0 -11.5 3.5t-12.5 9t-10 11t-4 8.5t7 12t14 15q22 19 47 42.5t46.5 49t35.5 52.5t14 54q0 20 -9.5 37.5t-25 30.5t-34.5 20.5t-37 7.5q-34 0 -62.5 -12t-51 -29t-38.5 -36.5t-24 -35.5q-4 -7 -8 -8.5t-12 -1.5q-6 0 -16 5t-10 14l6 15q15 36 36.5 68t51 56 t67.5 37.5t86 13.5q47 0 87.5 -9.5t70 -28t46 -45.5t16.5 -63q0 -27 -9.5 -51t-25.5 -45.5t-37 -40.5t-44 -35q53 -6 89 -26.5t58.5 -51t32 -68.5t9.5 -78q0 -67 -28 -122.5t-73.5 -95.5t-102.5 -62t-115 -22zM919 270q0 13 2 16l394 551q3 5 11.5 7.5t18.5 4t18.5 1.5h11.5 h16t22 -1.5t19.5 -4.5t8.5 -9v-469q0 -15 11 -15h100q7 0 13 -1.5t6 -9.5v-79q0 -14 -12 -14h-109q-6 0 -7.5 -1.5t-1.5 -10.5v-217q0 -3 -2 -10t-15 -7h-121q-9 0 -10.5 6t-1.5 8v214q0 9 -5 13.5t-19 4.5h-322q-11 0 -18.5 7.5t-7.5 15.5zM1092 358q0 -5 4 -6t15 -1h167 q8 0 10 3.5t3 8.5v240q0 8 -2 16t-13 8q-5 0 -9 -4.5t-8 -8.5l-161 -246l-3 -6q-1 -2 -3 -4z" />
<glyph unicode="&#xbf;" horiz-adv-x="778" d="M506 565q8 0 19.5 -14.5t23.5 -38t23.5 -52.5t21 -57.5t16 -54t7.5 -41.5q0 -64 -25 -104t-64.5 -67t-88.5 -45t-96 -38q-31 -13 -58.5 -30t-48 -39.5t-32.5 -52t-12 -67.5q0 -46 21 -76t67 -47.5t120 -24t180 -6.5q18 -1 37 -8.5t34.5 -19.5t26 -29.5t10.5 -38.5 q0 -30 -9 -56.5t-29 -46.5t-52.5 -31.5t-79.5 -11.5q-84 0 -156 35t-124.5 94.5t-82.5 137t-30 162.5q0 59 18 119t50 113.5t76 96.5t96 68q25 12 50.5 22t45.5 24.5t33 36.5t13 58q0 21 -2 31t-6.5 18.5t-10.5 19.5t-15 33q0 2 4.5 7t10 9.5t11 8t7.5 3.5zM662 808 q0 -31 -12 -59t-32.5 -49t-48 -33t-59.5 -12q-31 0 -59 12t-48 33t-32 49t-12 59t12 59t32 49.5t48 34t59 12.5q32 0 59.5 -12.5t48 -34t32.5 -49.5t12 -59z" />
<glyph unicode="&#xc0;" horiz-adv-x="1541" d="M5 47q0 8 8 8q19 1 44.5 5.5t52 19t51.5 43t42 78.5l402 1166q0 -1 0.5 1t0.5 4q0 7 -5.5 17.5t-5.5 15.5t4 5h290q2 -1 5.5 -2t5.5 -6l423 -1187q10 -28 19 -48t21.5 -35.5t31.5 -28t49 -25.5q14 -7 38 -15t46 -8q5 0 6.5 -3t1.5 -6v-38q0 -2 -1.5 -5t-6.5 -3h-702 q-5 0 -6.5 3t-1.5 5v39q0 2 1.5 5t6.5 3q4 0 8 0.5t6 0.5q11 1 31.5 2t44.5 3.5t48.5 8t44.5 16t33 27.5t13 42q0 6 -2 14l-131 361q-1 2 -3.5 9t-8 14.5t-14 13.5t-20.5 6h-361q-13 0 -22 -6t-15 -13t-9.5 -14t-3.5 -8q-32 -94 -54 -158.5t-36.5 -106.5t-22.5 -65 t-11.5 -33.5t-4 -13l-0.5 -2.5q0 -3 1 -6.5t2 -6.5q8 -25 29.5 -41.5t49.5 -26t57.5 -13.5t52.5 -4h26q5 0 6.5 -3t1.5 -5v-39q0 -2 -1.5 -5t-6.5 -3h-541q-8 0 -8 8v39zM529 717q-2 -5 -3 -10t-1 -10q0 -6 3 -9.5t12 -3.5h300q11 0 14.5 4.5t3.5 10.5q0 5 -1 9t-3 9 l-133 365q-5 14 -15 20.5t-18 6.5t-18 -7.5t-15 -20.5zM862 1560q-5 -7 -13.5 -12.5t-14.5 -5.5q-11 0 -20 7l-269 217q-23 19 -42.5 46t-19.5 64q0 19 7 36t19.5 30t29 20.5t36.5 7.5q23 0 46 -13.5t45 -43.5l210 -291q5 -7 6.5 -12.5t1.5 -12.5q0 -3 -1 -7t-5 -9z" />
<glyph unicode="&#xc1;" horiz-adv-x="1541" d="M5 47q0 8 8 8q19 1 44.5 5.5t52 19t51.5 43t42 78.5l402 1166q0 -1 0.5 1t0.5 4q0 7 -5.5 17.5t-5.5 15.5t4 5h290q2 -1 5.5 -2t5.5 -6l423 -1187q10 -28 19 -48t21.5 -35.5t31.5 -28t49 -25.5q14 -7 38 -15t46 -8q5 0 6.5 -3t1.5 -6v-38q0 -2 -1.5 -5t-6.5 -3h-702 q-5 0 -6.5 3t-1.5 5v39q0 2 1.5 5t6.5 3q4 0 8 0.5t6 0.5q11 1 31.5 2t44.5 3.5t48.5 8t44.5 16t33 27.5t13 42q0 6 -2 14l-131 361q-1 2 -3.5 9t-8 14.5t-14 13.5t-20.5 6h-361q-13 0 -22 -6t-15 -13t-9.5 -14t-3.5 -8q-32 -94 -54 -158.5t-36.5 -106.5t-22.5 -65 t-11.5 -33.5t-4 -13l-0.5 -2.5q0 -3 1 -6.5t2 -6.5q8 -25 29.5 -41.5t49.5 -26t57.5 -13.5t52.5 -4h26q5 0 6.5 -3t1.5 -5v-39q0 -2 -1.5 -5t-6.5 -3h-541q-8 0 -8 8v39zM529 717q-2 -5 -3 -10t-1 -10q0 -6 3 -9.5t12 -3.5h300q11 0 14.5 4.5t3.5 10.5q0 5 -1 9t-3 9 l-133 365q-5 14 -15 20.5t-18 6.5t-18 -7.5t-15 -20.5zM705 1583q-3 4 -5.5 8t-2.5 10t3 10t5 8l213 295q22 30 45 43.5t46 13.5q19 0 36 -7.5t29.5 -20.5t19.5 -30t7 -36q0 -37 -20 -64t-43 -46l-270 -218q-6 -5 -8.5 -5.5t-9.5 -0.5q-9 0 -13.5 2.5t-9.5 8.5z" />
<glyph unicode="&#xc2;" horiz-adv-x="1541" d="M5 47q0 8 8 8q19 1 44.5 5.5t52 19t51.5 43t42 78.5l402 1166q0 -1 0.5 1t0.5 4q0 7 -5.5 17.5t-5.5 15.5t4 5h290q2 -1 5.5 -2t5.5 -6l423 -1187q10 -28 19 -48t21.5 -35.5t31.5 -28t49 -25.5q14 -7 38 -15t46 -8q5 0 6.5 -3t1.5 -6v-38q0 -2 -1.5 -5t-6.5 -3h-702 q-5 0 -6.5 3t-1.5 5v39q0 2 1.5 5t6.5 3q4 0 8 0.5t6 0.5q11 1 31.5 2t44.5 3.5t48.5 8t44.5 16t33 27.5t13 42q0 6 -2 14l-131 361q-1 2 -3.5 9t-8 14.5t-14 13.5t-20.5 6h-361q-13 0 -22 -6t-15 -13t-9.5 -14t-3.5 -8q-32 -94 -54 -158.5t-36.5 -106.5t-22.5 -65 t-11.5 -33.5t-4 -13l-0.5 -2.5q0 -3 1 -6.5t2 -6.5q8 -25 29.5 -41.5t49.5 -26t57.5 -13.5t52.5 -4h26q5 0 6.5 -3t1.5 -5v-39q0 -2 -1.5 -5t-6.5 -3h-541q-8 0 -8 8v39zM529 717q-2 -5 -3 -10t-1 -10q0 -6 3 -9.5t12 -3.5h300q11 0 14.5 4.5t3.5 10.5q0 5 -1 9t-3 9 l-133 365q-5 14 -15 20.5t-18 6.5t-18 -7.5t-15 -20.5zM740 1780l-220 -230q-5 -5 -12.5 -7.5t-11.5 -2.5q-5 0 -12.5 6.5t-15 15.5t-12.5 17.5t-5 12.5q0 9 2.5 14t8.5 13l245 330q5 8 14.5 14.5t18.5 6.5q12 0 23 -9.5t19 -20.5l248 -322q11 -14 11 -26q0 -4 -5 -12.5 t-12.5 -17.5t-15 -15.5t-12.5 -6.5t-11 2.5t-11 7.5z" />
<glyph unicode="&#xc3;" horiz-adv-x="1541" d="M5 47q0 8 8 8q19 1 44.5 5.5t52 19t51.5 43t42 78.5l402 1166q0 -1 0.5 1t0.5 4q0 7 -5.5 17.5t-5.5 15.5t4 5h290q2 -1 5.5 -2t5.5 -6l423 -1187q10 -28 19 -48t21.5 -35.5t31.5 -28t49 -25.5q14 -7 38 -15t46 -8q5 0 6.5 -3t1.5 -6v-38q0 -2 -1.5 -5t-6.5 -3h-702 q-5 0 -6.5 3t-1.5 5v39q0 2 1.5 5t6.5 3q4 0 8 0.5t6 0.5q11 1 31.5 2t44.5 3.5t48.5 8t44.5 16t33 27.5t13 42q0 6 -2 14l-131 361q-1 2 -3.5 9t-8 14.5t-14 13.5t-20.5 6h-361q-13 0 -22 -6t-15 -13t-9.5 -14t-3.5 -8q-32 -94 -54 -158.5t-36.5 -106.5t-22.5 -65 t-11.5 -33.5t-4 -13l-0.5 -2.5q0 -3 1 -6.5t2 -6.5q8 -25 29.5 -41.5t49.5 -26t57.5 -13.5t52.5 -4h26q5 0 6.5 -3t1.5 -5v-39q0 -2 -1.5 -5t-6.5 -3h-541q-8 0 -8 8v39zM529 717q-2 -5 -3 -10t-1 -10q0 -6 3 -9.5t12 -3.5h300q11 0 14.5 4.5t3.5 10.5q0 5 -1 9t-3 9 l-133 365q-5 14 -15 20.5t-18 6.5t-18 -7.5t-15 -20.5zM1032 1948q5 0 7.5 -5t4 -11.5t2 -13.5t0.5 -11q0 -33 -11 -73.5t-32 -75.5t-51 -59t-68 -24q-41 0 -79 16t-74.5 35.5t-73.5 36t-76 16.5q-14 0 -29.5 -9t-28.5 -24.5t-21.5 -36.5t-8.5 -45q0 -8 -5 -10t-11 -2h-21 q-8 0 -8 16q0 46 11 94t31 87t49 63.5t65 24.5q42 0 82 -16.5t79.5 -36t79 -36t78.5 -16.5q18 0 32 10t23.5 25.5t14 33.5t4.5 33q0 6 5 10t11 4h19z" />
<glyph unicode="&#xc4;" horiz-adv-x="1541" d="M5 47q0 8 8 8q19 1 44.5 5.5t52 19t51.5 43t42 78.5l402 1166q0 -1 0.5 1t0.5 4q0 7 -5.5 17.5t-5.5 15.5t4 5h290q2 -1 5.5 -2t5.5 -6l423 -1187q10 -28 19 -48t21.5 -35.5t31.5 -28t49 -25.5q14 -7 38 -15t46 -8q5 0 6.5 -3t1.5 -6v-38q0 -2 -1.5 -5t-6.5 -3h-702 q-5 0 -6.5 3t-1.5 5v39q0 2 1.5 5t6.5 3q4 0 8 0.5t6 0.5q11 1 31.5 2t44.5 3.5t48.5 8t44.5 16t33 27.5t13 42q0 6 -2 14l-131 361q-1 2 -3.5 9t-8 14.5t-14 13.5t-20.5 6h-361q-13 0 -22 -6t-15 -13t-9.5 -14t-3.5 -8q-32 -94 -54 -158.5t-36.5 -106.5t-22.5 -65 t-11.5 -33.5t-4 -13l-0.5 -2.5q0 -3 1 -6.5t2 -6.5q8 -25 29.5 -41.5t49.5 -26t57.5 -13.5t52.5 -4h26q5 0 6.5 -3t1.5 -5v-39q0 -2 -1.5 -5t-6.5 -3h-541q-8 0 -8 8v39zM529 717q-2 -5 -3 -10t-1 -10q0 -6 3 -9.5t12 -3.5h300q11 0 14.5 4.5t3.5 10.5q0 5 -1 9t-3 9 l-133 365q-5 14 -15 20.5t-18 6.5t-18 -7.5t-15 -20.5zM509 1663q-29 0 -54 10.5t-43.5 28.5t-29 42.5t-10.5 53.5t10.5 54.5t29 44t43.5 29.5t54 11t54 -11t43.5 -29.5t29 -44t10.5 -54.5t-10.5 -53.5t-29 -42.5t-43.5 -28.5t-54 -10.5zM948 1663q-29 0 -53.5 10.5 t-43.5 28.5t-29.5 42.5t-10.5 53.5t10.5 54.5t29.5 44t43.5 29.5t53.5 11q30 0 55 -11t43 -29.5t28.5 -44t10.5 -54.5t-10.5 -53.5t-28.5 -42.5t-43 -28.5t-55 -10.5z" />
<glyph unicode="&#xc5;" horiz-adv-x="1541" d="M5 47q0 8 8 8q19 1 44.5 5.5t52 19t51.5 43t42 78.5l402 1166q0 -1 0.5 1t0.5 4q0 7 -5.5 17.5t-5.5 15.5t4 5h290q2 -1 5.5 -2t5.5 -6l423 -1187q10 -28 19 -48t21.5 -35.5t31.5 -28t49 -25.5q14 -7 38 -15t46 -8q5 0 6.5 -3t1.5 -6v-38q0 -2 -1.5 -5t-6.5 -3h-702 q-5 0 -6.5 3t-1.5 5v39q0 2 1.5 5t6.5 3q4 0 8 0.5t6 0.5q11 1 31.5 2t44.5 3.5t48.5 8t44.5 16t33 27.5t13 42q0 6 -2 14l-131 361q-1 2 -3.5 9t-8 14.5t-14 13.5t-20.5 6h-361q-13 0 -22 -6t-15 -13t-9.5 -14t-3.5 -8q-32 -94 -54 -158.5t-36.5 -106.5t-22.5 -65 t-11.5 -33.5t-4 -13l-0.5 -2.5q0 -3 1 -6.5t2 -6.5q8 -25 29.5 -41.5t49.5 -26t57.5 -13.5t52.5 -4h26q5 0 6.5 -3t1.5 -5v-39q0 -2 -1.5 -5t-6.5 -3h-541q-8 0 -8 8v39zM529 717q-2 -5 -3 -10t-1 -10q0 -6 3 -9.5t12 -3.5h300q11 0 14.5 4.5t3.5 10.5q0 5 -1 9t-3 9 l-133 365q-5 14 -15 20.5t-18 6.5t-18 -7.5t-15 -20.5zM645 1800q0 -24 9 -45t24 -36t36 -24t45 -9q23 0 43.5 9t36.5 24t25 36t9 45q0 23 -9 43.5t-25 36.5t-36.5 25t-43.5 9q-24 0 -45 -9t-36 -25t-24 -36.5t-9 -43.5zM545 1800q0 44 17 83t46 68t68 46t83 17t83 -17 t68 -46t46 -68t17 -83t-17 -83t-46 -68t-68 -46t-83 -17t-83 17t-68 46t-46 68t-17 83z" />
<glyph unicode="&#xc6;" horiz-adv-x="1995" d="M5 22q0 10 8.5 18.5t20.5 14.5t26 10t25 7q21 5 38.5 19t32.5 32.5t28.5 39.5t27.5 41l641 1063q12 16 12 30q0 13 -8 22.5t-20 16t-25.5 10t-23.5 3.5q-16 0 -37 0.5t-65 0.5q-18 0 -25.5 11t-7.5 17q0 7 3 19.5t15 12.5h1091q18 0 26 -6.5t10 -28.5l18 -320 q0 -5 -8.5 -7.5t-15.5 -2.5q-8 0 -16 2t-11 6q-7 10 -10 29.5t-6.5 43.5t-10 50t-19.5 48t-35.5 38.5t-57.5 22.5h-357q-13 0 -13 -13v-477q0 -10 10 -10h286q25 0 49.5 6.5t43 23.5t30 47.5t11.5 78.5q0 8 8 8h39q8 0 8 -8v-458q0 -5 -3 -6.5t-5 -1.5h-39q-5 0 -6.5 3 t-1.5 5q0 56 -11.5 90.5t-30.5 54t-43.5 26t-51.5 6.5h-283q-10 0 -10 -10v-437q0 -29 9 -46.5t24.5 -26.5t35.5 -12t42 -3h273q58 0 97 26.5t63 64.5t35.5 79t14.5 70q2 13 13 20.5t25 7.5q5 0 12 -4t7 -9l-33 -366q-2 -5 -5.5 -9.5t-8.5 -4.5h-1160q-7 0 -7 6v45 q0 1 1 4.5t7 3.5h22q42 3 86 3.5t80 11t59 37t23 82.5v362h-331q-16 0 -28.5 -6t-21.5 -13.5t-14 -14t-6 -7.5l-211 -361q-2 -4 -2.5 -8.5t-0.5 -9.5q0 -27 21.5 -41.5t52 -21.5t63 -9t54.5 -4q10 -1 17 -12.5t7 -18.5q0 -9 -3.5 -18.5t-14.5 -9.5h-532q-12 0 -14 7t-2 15z M971 666v433q0 11 -5.5 15t-11.5 4q-14 0 -22 -8.5t-15 -19.5l-244 -406q-1 -2 -1 -5q0 -13 33 -13h266z" />
<glyph unicode="&#xc7;" horiz-adv-x="1589" d="M105 696q0 112 28 211.5t79 183.5t123 151t159.5 113.5t187.5 71.5t209 25q92 0 177.5 -16.5t176.5 -38.5q15 -4 31.5 -10t31 -11.5t26.5 -9.5t18 -4q2 0 13.5 4t16.5 4h46q12 0 12 -17v-326q0 -6 -4.5 -8t-19.5 -2q-3 0 -15.5 0.5t-15.5 5.5q-2 3 -7.5 12t-12 18.5 t-12 18t-6.5 11.5q-38 75 -83 126.5t-99.5 83.5t-118.5 46.5t-139 14.5q-95 0 -168.5 -22t-128.5 -62t-92.5 -96t-61 -122.5t-34 -142t-10.5 -155.5q0 -85 12 -168.5t39 -159t69.5 -140t102.5 -112t140 -74.5t181 -27q85 0 158.5 25.5t134.5 69t108.5 100t81.5 118.5 q2 5 4.5 5.5t7.5 0.5h51q3 0 6.5 -2.5t3.5 -10.5q0 -3 -4.5 -15.5t-9.5 -21.5l-138 -304q-2 -3 -6 -5t-7 -2q-24 0 -33.5 4t-19.5 4q-29 0 -76 -9.5t-101.5 -21t-111 -22t-103.5 -12.5l-104 -124q39 -15 65 -37t41.5 -44t22 -42t6.5 -32q0 -62 -33 -106t-85.5 -72t-117 -41 t-128.5 -13q-40 0 -67.5 8t-27.5 40q0 8 9.5 19.5t29.5 19.5q8 3 23 5.5t32 5.5q24 4 52.5 10t52.5 18.5t40.5 33t16.5 53.5q0 22 -18 39t-43 29.5t-52 19.5t-46 9l171 212q-134 21 -250 80t-202 150.5t-135.5 213t-49.5 267.5z" />
<glyph unicode="&#xc8;" horiz-adv-x="1309" d="M7 51q0 1 1 4.5t7 3.5h22q42 3 86 3.5t80 11t59 37t23 82.5v1024q0 39 -16 63.5t-42 39.5t-59 22.5t-67 12.5h-21q-5 0 -6.5 3t-1.5 5v39q0 2 1.5 5t6.5 3h996q18 0 26 -6.5t10 -28.5l18 -320q0 -5 -8.5 -7.5t-15.5 -2.5q-8 0 -16 2t-11 6q-7 10 -10 29.5t-6.5 43.5 t-10 50t-19.5 48t-35.5 38.5t-57.5 22.5h-357q-13 0 -13 -13v-477q0 -10 10 -10h286q25 0 49.5 6.5t43 23.5t30 47.5t11.5 78.5q0 8 8 8h39q8 0 8 -8v-458q0 -5 -3 -6.5t-5 -1.5h-39q-5 0 -6.5 3t-1.5 5q0 56 -11.5 90.5t-30.5 54t-43.5 26t-51.5 6.5h-283q-10 0 -10 -10 v-437q0 -29 9 -46.5t24.5 -26.5t35.5 -12t42 -3h273q58 0 97 26.5t63 64.5t35.5 79t14.5 70q2 13 13 20.5t25 7.5q5 0 12 -4t7 -9l-33 -366q-2 -5 -5.5 -9.5t-8.5 -4.5h-1159q-6 0 -7 3.5t-1 4.5v14v29zM789 1560q-5 -7 -13.5 -12.5t-14.5 -5.5q-11 0 -20 7l-269 217 q-23 19 -42.5 46t-19.5 64q0 19 7 36t19.5 30t29 20.5t36.5 7.5q23 0 46 -13.5t45 -43.5l210 -291q5 -7 6.5 -12.5t1.5 -12.5q0 -3 -1 -7t-5 -9z" />
<glyph unicode="&#xc9;" horiz-adv-x="1309" d="M7 51q0 1 1 4.5t7 3.5h22q42 3 86 3.5t80 11t59 37t23 82.5v1024q0 39 -16 63.5t-42 39.5t-59 22.5t-67 12.5h-21q-5 0 -6.5 3t-1.5 5v39q0 2 1.5 5t6.5 3h996q18 0 26 -6.5t10 -28.5l18 -320q0 -5 -8.5 -7.5t-15.5 -2.5q-8 0 -16 2t-11 6q-7 10 -10 29.5t-6.5 43.5 t-10 50t-19.5 48t-35.5 38.5t-57.5 22.5h-357q-13 0 -13 -13v-477q0 -10 10 -10h286q25 0 49.5 6.5t43 23.5t30 47.5t11.5 78.5q0 8 8 8h39q8 0 8 -8v-458q0 -5 -3 -6.5t-5 -1.5h-39q-5 0 -6.5 3t-1.5 5q0 56 -11.5 90.5t-30.5 54t-43.5 26t-51.5 6.5h-283q-10 0 -10 -10 v-437q0 -29 9 -46.5t24.5 -26.5t35.5 -12t42 -3h273q58 0 97 26.5t63 64.5t35.5 79t14.5 70q2 13 13 20.5t25 7.5q5 0 12 -4t7 -9l-33 -366q-2 -5 -5.5 -9.5t-8.5 -4.5h-1159q-6 0 -7 3.5t-1 4.5v14v29zM571 1582q-3 4 -5.5 8t-2.5 10t3 10t5 8l213 295q22 30 45 43.5 t46 13.5q19 0 36 -7.5t29.5 -20.5t19.5 -30t7 -36q0 -37 -20 -64t-43 -46l-270 -218q-6 -5 -8.5 -5.5t-9.5 -0.5q-9 0 -13.5 2.5t-9.5 8.5z" />
<glyph unicode="&#xca;" horiz-adv-x="1309" d="M7 51q0 1 1 4.5t7 3.5h22q42 3 86 3.5t80 11t59 37t23 82.5v1024q0 39 -16 63.5t-42 39.5t-59 22.5t-67 12.5h-21q-5 0 -6.5 3t-1.5 5v39q0 2 1.5 5t6.5 3h996q18 0 26 -6.5t10 -28.5l18 -320q0 -5 -8.5 -7.5t-15.5 -2.5q-8 0 -16 2t-11 6q-7 10 -10 29.5t-6.5 43.5 t-10 50t-19.5 48t-35.5 38.5t-57.5 22.5h-357q-13 0 -13 -13v-477q0 -10 10 -10h286q25 0 49.5 6.5t43 23.5t30 47.5t11.5 78.5q0 8 8 8h39q8 0 8 -8v-458q0 -5 -3 -6.5t-5 -1.5h-39q-5 0 -6.5 3t-1.5 5q0 56 -11.5 90.5t-30.5 54t-43.5 26t-51.5 6.5h-283q-10 0 -10 -10 v-437q0 -29 9 -46.5t24.5 -26.5t35.5 -12t42 -3h273q58 0 97 26.5t63 64.5t35.5 79t14.5 70q2 13 13 20.5t25 7.5q5 0 12 -4t7 -9l-33 -366q-2 -5 -5.5 -9.5t-8.5 -4.5h-1159q-6 0 -7 3.5t-1 4.5v14v29zM680 1804l-220 -230q-5 -5 -12.5 -7.5t-11.5 -2.5q-5 0 -12.5 6.5 t-15 15.5t-12.5 17.5t-5 12.5q0 9 2.5 14t8.5 13l245 330q5 8 14.5 14.5t18.5 6.5q12 0 23 -9.5t19 -20.5l248 -322q11 -14 11 -26q0 -4 -5 -12.5t-12.5 -17.5t-15 -15.5t-12.5 -6.5t-11 2.5t-11 7.5z" />
<glyph unicode="&#xcb;" horiz-adv-x="1309" d="M7 51q0 1 1 4.5t7 3.5h22q42 3 86 3.5t80 11t59 37t23 82.5v1024q0 39 -16 63.5t-42 39.5t-59 22.5t-67 12.5h-21q-5 0 -6.5 3t-1.5 5v39q0 2 1.5 5t6.5 3h996q18 0 26 -6.5t10 -28.5l18 -320q0 -5 -8.5 -7.5t-15.5 -2.5q-8 0 -16 2t-11 6q-7 10 -10 29.5t-6.5 43.5 t-10 50t-19.5 48t-35.5 38.5t-57.5 22.5h-357q-13 0 -13 -13v-477q0 -10 10 -10h286q25 0 49.5 6.5t43 23.5t30 47.5t11.5 78.5q0 8 8 8h39q8 0 8 -8v-458q0 -5 -3 -6.5t-5 -1.5h-39q-5 0 -6.5 3t-1.5 5q0 56 -11.5 90.5t-30.5 54t-43.5 26t-51.5 6.5h-283q-10 0 -10 -10 v-437q0 -29 9 -46.5t24.5 -26.5t35.5 -12t42 -3h273q58 0 97 26.5t63 64.5t35.5 79t14.5 70q2 13 13 20.5t25 7.5q5 0 12 -4t7 -9l-33 -366q-2 -5 -5.5 -9.5t-8.5 -4.5h-1159q-6 0 -7 3.5t-1 4.5v14v29zM435 1663q-29 0 -54 10.5t-43.5 28.5t-29 42.5t-10.5 53.5t10.5 54.5 t29 44t43.5 29.5t54 11t54 -11t43.5 -29.5t29 -44t10.5 -54.5t-10.5 -53.5t-29 -42.5t-43.5 -28.5t-54 -10.5zM874 1663q-29 0 -53.5 10.5t-43.5 28.5t-29.5 42.5t-10.5 53.5t10.5 54.5t29.5 44t43.5 29.5t53.5 11q30 0 55 -11t43 -29.5t28.5 -44t10.5 -54.5t-10.5 -53.5 t-28.5 -42.5t-43 -28.5t-55 -10.5z" />
<glyph unicode="&#xcc;" horiz-adv-x="789" d="M537 190q0 -34 10.5 -57t30 -37t48 -20t63.5 -6q8 0 8 -8v-54q0 -3 -1 -5.5t-7 -2.5h-591q-5 0 -6.5 3t-1.5 5v54q0 2 1.5 5t6.5 3q35 0 63.5 4.5t48.5 19.5t31 43t11 76v1007q0 34 -10.5 57t-30 37t-48 20t-63.5 6q-8 0 -8 8v54q0 8 8 8h591q5 0 6.5 -3t1.5 -5v-54 q0 -2 -1.5 -5t-6.5 -3q-35 0 -63.5 -4.5t-48.5 -19.5t-31 -43t-11 -76v-1007v0zM537 1560q-5 -7 -13.5 -12.5t-14.5 -5.5q-11 0 -20 7l-269 217q-23 19 -42.5 46t-19.5 64q0 19 7 36t19.5 30t29 20.5t36.5 7.5q23 0 46 -13.5t45 -43.5l210 -291q5 -7 6.5 -12.5t1.5 -12.5 q0 -3 -1 -7t-5 -9z" />
<glyph unicode="&#xcd;" horiz-adv-x="789" d="M537 190q0 -34 10.5 -57t30 -37t48 -20t63.5 -6q8 0 8 -8v-54q0 -3 -1 -5.5t-7 -2.5h-591q-5 0 -6.5 3t-1.5 5v54q0 2 1.5 5t6.5 3q35 0 63.5 4.5t48.5 19.5t31 43t11 76v1007q0 34 -10.5 57t-30 37t-48 20t-63.5 6q-8 0 -8 8v54q0 8 8 8h591q5 0 6.5 -3t1.5 -5v-54 q0 -2 -1.5 -5t-6.5 -3q-35 0 -63.5 -4.5t-48.5 -19.5t-31 -43t-11 -76v-1007v0zM264 1582q-3 4 -5.5 8t-2.5 10t3 10t5 8l213 295q22 30 45 43.5t46 13.5q19 0 36 -7.5t29.5 -20.5t19.5 -30t7 -36q0 -37 -20 -64t-43 -46l-270 -218q-6 -5 -8.5 -5.5t-9.5 -0.5 q-9 0 -13.5 2.5t-9.5 8.5z" />
<glyph unicode="&#xce;" horiz-adv-x="789" d="M537 190q0 -34 10.5 -57t30 -37t48 -20t63.5 -6q8 0 8 -8v-54q0 -3 -1 -5.5t-7 -2.5h-591q-5 0 -6.5 3t-1.5 5v54q0 2 1.5 5t6.5 3q35 0 63.5 4.5t48.5 19.5t31 43t11 76v1007q0 34 -10.5 57t-30 37t-48 20t-63.5 6q-8 0 -8 8v54q0 8 8 8h591q5 0 6.5 -3t1.5 -5v-54 q0 -2 -1.5 -5t-6.5 -3q-35 0 -63.5 -4.5t-48.5 -19.5t-31 -43t-11 -76v-1007v0zM389 1780l-220 -230q-5 -5 -12.5 -7.5t-11.5 -2.5q-5 0 -12.5 6.5t-15 15.5t-12.5 17.5t-5 12.5q0 9 2.5 14t8.5 13l245 330q5 8 14.5 14.5t18.5 6.5q12 0 23 -9.5t19 -20.5l248 -322 q11 -14 11 -26q0 -4 -5 -12.5t-12.5 -17.5t-15 -15.5t-12.5 -6.5t-11 2.5t-11 7.5z" />
<glyph unicode="&#xcf;" horiz-adv-x="789" d="M537 190q0 -34 10.5 -57t30 -37t48 -20t63.5 -6q8 0 8 -8v-54q0 -3 -1 -5.5t-7 -2.5h-591q-5 0 -6.5 3t-1.5 5v54q0 2 1.5 5t6.5 3q35 0 63.5 4.5t48.5 19.5t31 43t11 76v1007q0 34 -10.5 57t-30 37t-48 20t-63.5 6q-8 0 -8 8v54q0 8 8 8h591q5 0 6.5 -3t1.5 -5v-54 q0 -2 -1.5 -5t-6.5 -3q-35 0 -63.5 -4.5t-48.5 -19.5t-31 -43t-11 -76v-1007v0zM170 1663q-29 0 -54 10.5t-43.5 28.5t-29 42.5t-10.5 53.5t10.5 54.5t29 44t43.5 29.5t54 11t54 -11t43.5 -29.5t29 -44t10.5 -54.5t-10.5 -53.5t-29 -42.5t-43.5 -28.5t-54 -10.5zM609 1663 q-29 0 -53.5 10.5t-43.5 28.5t-29.5 42.5t-10.5 53.5t10.5 54.5t29.5 44t43.5 29.5t53.5 11q30 0 55 -11t43 -29.5t28.5 -44t10.5 -54.5t-10.5 -53.5t-28.5 -42.5t-43 -28.5t-55 -10.5z" />
<glyph unicode="&#x189;" horiz-adv-x="1754" d="M60 644q-21 0 -21 25v76q0 25 21 25h197v471q0 31 -13.5 52.5t-34 35t-45.5 19.5t-47 6h-64q-6 0 -7 3.5t-1 4.5v43q0 1 1 4.5t7 3.5h22l411 7q58 1 125.5 1.5t125.5 0.5q63 0 113 -1.5t96 -6t93 -11.5t105 -19q111 -23 206.5 -85t165 -150t109 -195t39.5 -219 q0 -108 -30 -204.5t-83.5 -178t-127 -147t-161.5 -111t-187 -70t-203 -24.5h-819q-6 0 -7 3.5t-1 4.5v43q0 1 1 4.5t7 3.5h22q21 0 52 2.5t60 14t49.5 35t20.5 64.5v469h-197zM542 155q0 -29 18.5 -45t49 -23.5t71.5 -8.5t86 -1q297 0 445.5 164t148.5 478q0 138 -33.5 253 t-102 198t-172 129t-244.5 46h-242q-15 0 -20 -6.5t-5 -20.5v-548h328q10 0 15.5 -7.5t5.5 -17.5v-76q0 -11 -6 -18t-15 -7h-328v-489z" />
<glyph unicode="&#x110;" horiz-adv-x="1754" d="M60 644q-21 0 -21 25v76q0 25 21 25h197v471q0 31 -13.5 52.5t-34 35t-45.5 19.5t-47 6h-64q-6 0 -7 3.5t-1 4.5v43q0 1 1 4.5t7 3.5h22l411 7q58 1 125.5 1.5t125.5 0.5q63 0 113 -1.5t96 -6t93 -11.5t105 -19q111 -23 206.5 -85t165 -150t109 -195t39.5 -219 q0 -108 -30 -204.5t-83.5 -178t-127 -147t-161.5 -111t-187 -70t-203 -24.5h-819q-6 0 -7 3.5t-1 4.5v43q0 1 1 4.5t7 3.5h22q21 0 52 2.5t60 14t49.5 35t20.5 64.5v469h-197zM542 155q0 -29 18.5 -45t49 -23.5t71.5 -8.5t86 -1q297 0 445.5 164t148.5 478q0 138 -33.5 253 t-102 198t-172 129t-244.5 46h-242q-15 0 -20 -6.5t-5 -20.5v-548h328q10 0 15.5 -7.5t5.5 -17.5v-76q0 -11 -6 -18t-15 -7h-328v-489z" />
<glyph unicode="&#xd0;" horiz-adv-x="1754" d="M60 644q-21 0 -21 25v76q0 25 21 25h197v471q0 31 -13.5 52.5t-34 35t-45.5 19.5t-47 6h-64q-6 0 -7 3.5t-1 4.5v43q0 1 1 4.5t7 3.5h22l411 7q58 1 125.5 1.5t125.5 0.5q63 0 113 -1.5t96 -6t93 -11.5t105 -19q111 -23 206.5 -85t165 -150t109 -195t39.5 -219 q0 -108 -30 -204.5t-83.5 -178t-127 -147t-161.5 -111t-187 -70t-203 -24.5h-819q-6 0 -7 3.5t-1 4.5v43q0 1 1 4.5t7 3.5h22q21 0 52 2.5t60 14t49.5 35t20.5 64.5v469h-197zM542 155q0 -29 18.5 -45t49 -23.5t71.5 -8.5t86 -1q297 0 445.5 164t148.5 478q0 138 -33.5 253 t-102 198t-172 129t-244.5 46h-242q-15 0 -20 -6.5t-5 -20.5v-548h328q10 0 15.5 -7.5t5.5 -17.5v-76q0 -11 -6 -18t-15 -7h-328v-489z" />
<glyph unicode="&#xd1;" horiz-adv-x="1747" d="M54 0q-2 0 -5 2.5t-3 5.5v44q0 8 8 8h25t27.5 1t24.5 2t17 4q25 12 41 32t24.5 46t11.5 57t3 66v999q0 27 -21.5 43.5t-50 25t-58 11.5t-44.5 3q-5 0 -6.5 3t-1.5 5v44q0 2 1.5 5t6.5 3h453l862 -954q5 -5 7 -7.5t5 -2.5q4 0 5 3t1 6v594q0 99 -7 158.5t-26 91t-51 41.5 t-82 10h-51q-5 0 -6.5 3t-1.5 5v44q0 2 1.5 5t6.5 3h550q6 0 7 -3t1 -5v-44q0 -2 -1.5 -5t-6.5 -3q-20 0 -51.5 -8t-61.5 -23t-51.5 -37t-21.5 -50v-1183q0 -17 -8 -28.5t-20.5 -18.5t-27 -10.5t-26.5 -3.5q-20 0 -46.5 8.5t-52.5 37.5l-944 1047q-7 7 -10 8.5t-8 1.5 t-5 -10v-893q0 -28 13.5 -48.5t34.5 -35t46.5 -23t50 -13.5t44 -6.5t29.5 -1.5q5 0 7 -4q1 -2 1 -4v-44q0 -2 -1.5 -5t-6.5 -3h-550v0zM1168 1948q5 0 7.5 -5t4 -11.5t2 -13.5t0.5 -11q0 -33 -11 -73.5t-32 -75.5t-51 -59t-68 -24q-41 0 -79 16t-74.5 35.5t-73.5 36 t-76 16.5q-14 0 -29.5 -9t-28.5 -24.5t-21.5 -36.5t-8.5 -45q0 -8 -5 -10t-11 -2h-21q-8 0 -8 16q0 46 11 94t31 87t49 63.5t65 24.5q42 0 82 -16.5t79.5 -36t79 -36t78.5 -16.5q18 0 32 10t23.5 25.5t14 33.5t4.5 33q0 6 5 10t11 4h19z" />
<glyph unicode="&#xd2;" horiz-adv-x="1826" d="M902 -26q-35 0 -87.5 6t-115 22t-130.5 42t-133.5 66.5t-124.5 96t-103.5 129t-71 167.5t-26.5 211q0 104 28.5 199t81.5 177t128.5 149t168.5 114t202 73t229 26q104 0 201.5 -25.5t182.5 -72t155.5 -111.5t121.5 -145t79 -172.5t28 -192.5q0 -94 -27 -186.5t-78 -177 t-123.5 -156.5t-162.5 -125.5t-197 -83.5t-226 -30zM404 751q0 -81 16.5 -162t48.5 -156t79 -140.5t107 -114t133.5 -76t159.5 -27.5q121 0 210 51.5t147.5 136.5t87 195.5t28.5 228.5q0 86 -16.5 168.5t-48 157t-78 137t-107 108.5t-134 71.5t-159.5 25.5q-77 0 -142 -24 t-117.5 -65.5t-92.5 -99t-67 -124.5t-41 -141.5t-14 -149.5zM1075 1585q-5 -7 -13.5 -12.5t-14.5 -5.5q-11 0 -20 7l-269 217q-23 19 -42.5 46t-19.5 64q0 19 7 36t19.5 30t29 20.5t36.5 7.5q23 0 46 -13.5t45 -43.5l210 -291q5 -7 6.5 -12.5t1.5 -12.5q0 -3 -1 -7t-5 -9z " />
<glyph unicode="&#xd3;" horiz-adv-x="1826" d="M902 -26q-35 0 -87.5 6t-115 22t-130.5 42t-133.5 66.5t-124.5 96t-103.5 129t-71 167.5t-26.5 211q0 104 28.5 199t81.5 177t128.5 149t168.5 114t202 73t229 26q104 0 201.5 -25.5t182.5 -72t155.5 -111.5t121.5 -145t79 -172.5t28 -192.5q0 -94 -27 -186.5t-78 -177 t-123.5 -156.5t-162.5 -125.5t-197 -83.5t-226 -30zM404 751q0 -81 16.5 -162t48.5 -156t79 -140.5t107 -114t133.5 -76t159.5 -27.5q121 0 210 51.5t147.5 136.5t87 195.5t28.5 228.5q0 86 -16.5 168.5t-48 157t-78 137t-107 108.5t-134 71.5t-159.5 25.5q-77 0 -142 -24 t-117.5 -65.5t-92.5 -99t-67 -124.5t-41 -141.5t-14 -149.5zM811 1607q-3 4 -5.5 8t-2.5 10t3 10t5 8l213 295q22 30 45 43.5t46 13.5q19 0 36 -7.5t29.5 -20.5t19.5 -30t7 -36q0 -37 -20 -64t-43 -46l-270 -218q-6 -5 -8.5 -5.5t-9.5 -0.5q-9 0 -13.5 2.5t-9.5 8.5z" />
<glyph unicode="&#xd4;" horiz-adv-x="1826" d="M902 -26q-35 0 -87.5 6t-115 22t-130.5 42t-133.5 66.5t-124.5 96t-103.5 129t-71 167.5t-26.5 211q0 104 28.5 199t81.5 177t128.5 149t168.5 114t202 73t229 26q104 0 201.5 -25.5t182.5 -72t155.5 -111.5t121.5 -145t79 -172.5t28 -192.5q0 -94 -27 -186.5t-78 -177 t-123.5 -156.5t-162.5 -125.5t-197 -83.5t-226 -30zM404 751q0 -81 16.5 -162t48.5 -156t79 -140.5t107 -114t133.5 -76t159.5 -27.5q121 0 210 51.5t147.5 136.5t87 195.5t28.5 228.5q0 86 -16.5 168.5t-48 157t-78 137t-107 108.5t-134 71.5t-159.5 25.5q-77 0 -142 -24 t-117.5 -65.5t-92.5 -99t-67 -124.5t-41 -141.5t-14 -149.5zM911 1805l-220 -230q-5 -5 -12.5 -7.5t-11.5 -2.5q-5 0 -12.5 6.5t-15 15.5t-12.5 17.5t-5 12.5q0 9 2.5 14t8.5 13l245 330q5 8 14.5 14.5t18.5 6.5q12 0 23 -9.5t19 -20.5l248 -322q11 -14 11 -26 q0 -4 -5 -12.5t-12.5 -17.5t-15 -15.5t-12.5 -6.5t-11 2.5t-11 7.5z" />
<glyph unicode="&#xd5;" horiz-adv-x="1826" d="M902 -26q-35 0 -87.5 6t-115 22t-130.5 42t-133.5 66.5t-124.5 96t-103.5 129t-71 167.5t-26.5 211q0 104 28.5 199t81.5 177t128.5 149t168.5 114t202 73t229 26q104 0 201.5 -25.5t182.5 -72t155.5 -111.5t121.5 -145t79 -172.5t28 -192.5q0 -94 -27 -186.5t-78 -177 t-123.5 -156.5t-162.5 -125.5t-197 -83.5t-226 -30zM404 751q0 -81 16.5 -162t48.5 -156t79 -140.5t107 -114t133.5 -76t159.5 -27.5q121 0 210 51.5t147.5 136.5t87 195.5t28.5 228.5q0 86 -16.5 168.5t-48 157t-78 137t-107 108.5t-134 71.5t-159.5 25.5q-77 0 -142 -24 t-117.5 -65.5t-92.5 -99t-67 -124.5t-41 -141.5t-14 -149.5zM1204 1877q5 0 7.5 -5t4 -11.5t2 -13.5t0.5 -11q0 -33 -11 -73.5t-32 -75.5t-51 -59t-68 -24q-41 0 -79 16t-74.5 35.5t-73.5 36t-76 16.5q-14 0 -29.5 -9t-28.5 -24.5t-21.5 -36.5t-8.5 -45q0 -8 -5 -10t-11 -2 h-21q-8 0 -8 16q0 46 11 94t31 87t49 63.5t65 24.5q42 0 82 -16.5t79.5 -36t79 -36t78.5 -16.5q18 0 32 10t23.5 25.5t14 33.5t4.5 33q0 6 5 10t11 4h19z" />
<glyph unicode="&#xd6;" horiz-adv-x="1826" d="M902 -26q-35 0 -87.5 6t-115 22t-130.5 42t-133.5 66.5t-124.5 96t-103.5 129t-71 167.5t-26.5 211q0 104 28.5 199t81.5 177t128.5 149t168.5 114t202 73t229 26q104 0 201.5 -25.5t182.5 -72t155.5 -111.5t121.5 -145t79 -172.5t28 -192.5q0 -94 -27 -186.5t-78 -177 t-123.5 -156.5t-162.5 -125.5t-197 -83.5t-226 -30zM404 751q0 -81 16.5 -162t48.5 -156t79 -140.5t107 -114t133.5 -76t159.5 -27.5q121 0 210 51.5t147.5 136.5t87 195.5t28.5 228.5q0 86 -16.5 168.5t-48 157t-78 137t-107 108.5t-134 71.5t-159.5 25.5q-77 0 -142 -24 t-117.5 -65.5t-92.5 -99t-67 -124.5t-41 -141.5t-14 -149.5zM696 1594q-29 0 -54 10.5t-43.5 28.5t-29 42.5t-10.5 53.5t10.5 54.5t29 44t43.5 29.5t54 11t54 -11t43.5 -29.5t29 -44t10.5 -54.5t-10.5 -53.5t-29 -42.5t-43.5 -28.5t-54 -10.5zM1135 1594q-29 0 -53.5 10.5 t-43.5 28.5t-29.5 42.5t-10.5 53.5t10.5 54.5t29.5 44t43.5 29.5t53.5 11q30 0 55 -11t43 -29.5t28.5 -44t10.5 -54.5t-10.5 -53.5t-28.5 -42.5t-43 -28.5t-55 -10.5z" />
<glyph unicode="&#xd7;" horiz-adv-x="1049" d="M238 1045l287 -286l286 287l132 -132l-287 -286l285 -287l-131 -133l-286 287l-287 -287l-132 133l286 286l-286 286z" />
<glyph unicode="&#xd8;" horiz-adv-x="1826" d="M333 186q-48 42 -88.5 95t-70.5 118t-47 143.5t-17 171.5q0 104 28.5 199t81.5 177t128.5 149t168.5 114t202 73t229 26q127 0 242 -37t212 -104l195 206l88 -83l-189 -199q102 -97 161 -225.5t59 -276.5q0 -94 -27 -186.5t-78 -177t-123.5 -156.5t-162.5 -125.5 t-197 -83.5t-226 -30q-36 0 -89 6.5t-116 22t-131.5 42.5t-134.5 68l-226 -238l-88 83zM404 751q0 -100 25 -199.5t73 -187.5l763 803q-70 86 -167 137t-220 51q-77 0 -142 -24t-117.5 -65.5t-92.5 -99t-67 -124.5t-41 -141.5t-14 -149.5zM1421 687q0 101 -22.5 196.5 t-66.5 178.5l-760 -801q69 -84 163.5 -135t212.5 -51q121 0 210 51.5t147.5 136.5t87 195.5t28.5 228.5z" />
<glyph unicode="&#xd9;" horiz-adv-x="1672" d="M211 1235q0 29 -13.5 51.5t-36.5 37.5t-53 23t-64 8q-8 0 -8 8v39q0 8 7 8h632q5 0 6.5 -3t1.5 -5v-39q0 -2 -1.5 -5t-6.5 -3q-30 0 -61.5 -4t-58 -18t-43 -40.5t-16.5 -71.5v-701q0 -200 102 -309.5t305 -109.5q84 0 161 23.5t136 72.5t94 125t35 181v621q0 34 -2.5 70 t-16.5 68t-44 55.5t-85 32.5q-25 4 -41.5 4.5t-21.5 0.5q-8 0 -8 8v39q0 8 8 8h522q5 0 6.5 -3t1.5 -5v-39q0 -2 -2 -5t-6 -3q-36 0 -63.5 -5.5t-41.5 -11.5q-17 -7 -31 -21.5t-23.5 -31t-14.5 -34t-5 -30.5v-640q0 -141 -37 -253.5t-111.5 -191t-187.5 -121t-264 -42.5 q-72 0 -148.5 11t-149 35t-136.5 62t-112 91t-76 122t-28 156v785v0zM979 1560q-5 -7 -13.5 -12.5t-14.5 -5.5q-11 0 -20 7l-269 217q-23 19 -42.5 46t-19.5 64q0 19 7 36t19.5 30t29 20.5t36.5 7.5q23 0 46 -13.5t45 -43.5l210 -291q5 -7 6.5 -12.5t1.5 -12.5q0 -3 -1 -7 t-5 -9z" />
<glyph unicode="&#xda;" horiz-adv-x="1672" d="M211 1235q0 29 -13.5 51.5t-36.5 37.5t-53 23t-64 8q-8 0 -8 8v39q0 8 7 8h632q5 0 6.5 -3t1.5 -5v-39q0 -2 -1.5 -5t-6.5 -3q-30 0 -61.5 -4t-58 -18t-43 -40.5t-16.5 -71.5v-701q0 -200 102 -309.5t305 -109.5q84 0 161 23.5t136 72.5t94 125t35 181v621q0 34 -2.5 70 t-16.5 68t-44 55.5t-85 32.5q-25 4 -41.5 4.5t-21.5 0.5q-8 0 -8 8v39q0 8 8 8h522q5 0 6.5 -3t1.5 -5v-39q0 -2 -2 -5t-6 -3q-36 0 -63.5 -5.5t-41.5 -11.5q-17 -7 -31 -21.5t-23.5 -31t-14.5 -34t-5 -30.5v-640q0 -141 -37 -253.5t-111.5 -191t-187.5 -121t-264 -42.5 q-72 0 -148.5 11t-149 35t-136.5 62t-112 91t-76 122t-28 156v785v0zM766 1582q-3 4 -5.5 8t-2.5 10t3 10t5 8l213 295q22 30 45 43.5t46 13.5q19 0 36 -7.5t29.5 -20.5t19.5 -30t7 -36q0 -37 -20 -64t-43 -46l-270 -218q-6 -5 -8.5 -5.5t-9.5 -0.5q-9 0 -13.5 2.5t-9.5 8.5 z" />
<glyph unicode="&#xdb;" horiz-adv-x="1672" d="M211 1235q0 29 -13.5 51.5t-36.5 37.5t-53 23t-64 8q-8 0 -8 8v39q0 8 7 8h632q5 0 6.5 -3t1.5 -5v-39q0 -2 -1.5 -5t-6.5 -3q-30 0 -61.5 -4t-58 -18t-43 -40.5t-16.5 -71.5v-701q0 -200 102 -309.5t305 -109.5q84 0 161 23.5t136 72.5t94 125t35 181v621q0 34 -2.5 70 t-16.5 68t-44 55.5t-85 32.5q-25 4 -41.5 4.5t-21.5 0.5q-8 0 -8 8v39q0 8 8 8h522q5 0 6.5 -3t1.5 -5v-39q0 -2 -2 -5t-6 -3q-36 0 -63.5 -5.5t-41.5 -11.5q-17 -7 -31 -21.5t-23.5 -31t-14.5 -34t-5 -30.5v-640q0 -141 -37 -253.5t-111.5 -191t-187.5 -121t-264 -42.5 q-72 0 -148.5 11t-149 35t-136.5 62t-112 91t-76 122t-28 156v785v0zM887 1780l-220 -230q-5 -5 -12.5 -7.5t-11.5 -2.5q-5 0 -12.5 6.5t-15 15.5t-12.5 17.5t-5 12.5q0 9 2.5 14t8.5 13l245 330q5 8 14.5 14.5t18.5 6.5q12 0 23 -9.5t19 -20.5l248 -322q11 -14 11 -26 q0 -4 -5 -12.5t-12.5 -17.5t-15 -15.5t-12.5 -6.5t-11 2.5t-11 7.5z" />
<glyph unicode="&#xdc;" horiz-adv-x="1672" d="M211 1235q0 29 -13.5 51.5t-36.5 37.5t-53 23t-64 8q-8 0 -8 8v39q0 8 7 8h632q5 0 6.5 -3t1.5 -5v-39q0 -2 -1.5 -5t-6.5 -3q-30 0 -61.5 -4t-58 -18t-43 -40.5t-16.5 -71.5v-701q0 -200 102 -309.5t305 -109.5q84 0 161 23.5t136 72.5t94 125t35 181v621q0 34 -2.5 70 t-16.5 68t-44 55.5t-85 32.5q-25 4 -41.5 4.5t-21.5 0.5q-8 0 -8 8v39q0 8 8 8h522q5 0 6.5 -3t1.5 -5v-39q0 -2 -2 -5t-6 -3q-36 0 -63.5 -5.5t-41.5 -11.5q-17 -7 -31 -21.5t-23.5 -31t-14.5 -34t-5 -30.5v-640q0 -141 -37 -253.5t-111.5 -191t-187.5 -121t-264 -42.5 q-72 0 -148.5 11t-149 35t-136.5 62t-112 91t-76 122t-28 156v785v0zM700 1663q-29 0 -54 10.5t-43.5 28.5t-29 42.5t-10.5 53.5t10.5 54.5t29 44t43.5 29.5t54 11t54 -11t43.5 -29.5t29 -44t10.5 -54.5t-10.5 -53.5t-29 -42.5t-43.5 -28.5t-54 -10.5zM1139 1663 q-29 0 -53.5 10.5t-43.5 28.5t-29.5 42.5t-10.5 53.5t10.5 54.5t29.5 44t43.5 29.5t53.5 11q30 0 55 -11t43 -29.5t28.5 -44t10.5 -54.5t-10.5 -53.5t-28.5 -42.5t-43 -28.5t-55 -10.5z" />
<glyph unicode="&#xdd;" horiz-adv-x="1564" d="M624 494q0 6 -3 10l-409 654q-17 27 -36.5 54.5t-43 52t-51 43t-59.5 26.5q-5 1 -16 3.5t-23 4.5t-23 4t-16 3q-10 1 -19 12.5t-9 20.5q0 2 0.5 7t2 9.5t4.5 8t8 3.5h679q11 0 14 -10t3 -18q0 -10 -1.5 -21t-11.5 -11q-27 -2 -51 -4t-41 -9.5t-27 -22.5t-10 -42 q0 -24 12 -43l305 -490q11 -17 14.5 -21t11.5 -4q7 0 12.5 8t13.5 21l241 409q14 23 28.5 51t14.5 57q0 28 -7.5 44.5t-22.5 25.5t-36.5 13t-49.5 7q-11 1 -13 12t-2 20q0 7 2.5 17.5t14.5 10.5h503q8 0 11 -11.5t3 -16.5q0 -10 -6.5 -17t-16 -11.5t-20 -7t-19.5 -4.5 q-50 -11 -86.5 -36.5t-71.5 -63.5q-5 -5 -14.5 -16t-10.5 -13l-387 -665v-353q0 -60 31 -93t110 -41q11 -1 28 -1h29q5 0 6.5 -3t1.5 -5v-44q0 -2 -1.5 -5t-6.5 -3h-681q-5 0 -6.5 3t-1.5 5v44q0 2 1.5 5t6.5 3h28.5t28.5 1q79 8 110 41t31 93v299zM676 1582q-3 4 -5.5 8 t-2.5 10t3 10t5 8l213 295q22 30 45 43.5t46 13.5q19 0 36 -7.5t29.5 -20.5t19.5 -30t7 -36q0 -37 -20 -64t-43 -46l-270 -218q-6 -5 -8.5 -5.5t-9.5 -0.5q-9 0 -13.5 2.5t-9.5 8.5z" />
<glyph unicode="&#xde;" horiz-adv-x="1249" d="M40 52q0 2 1.5 5t6.5 3q78 0 120.5 36.5t42.5 93.5v1017q0 77 -34 110t-111 33h-18q-5 0 -6.5 3.5t-1.5 5.5v43q0 2 1.5 5t6.5 3h609q5 0 6.5 -3t1.5 -5v-43q0 -2 -1.5 -5.5t-6.5 -3.5h-18q-30 0 -56 -2.5t-45.5 -12t-30.5 -28.5t-11 -52v-80l43.5 1.5t26 1.5t25.5 1.5 t43 0.5h81q80 0 162.5 -28.5t149 -86t108.5 -144t42 -203.5q0 -58 -20.5 -110.5t-54.5 -98.5t-78 -83.5t-91 -64t-94.5 -41t-87.5 -14.5h-6l-226 7h-8t-11 -2q-4 -3 -4 -8v-126q0 -39 23 -62t58 -35t77.5 -16t81.5 -4q8 0 8 -7v-45q0 -8 -8 -8h-688q-5 0 -6.5 3t-1.5 5v44z M496 436q1 -8 5.5 -14.5t15.5 -7.5q9 -1 27 -3.5t50 -2.5q67 0 121 27t92.5 75.5t59 115t20.5 146.5q0 82 -20.5 144t-58 103t-90 61.5t-116.5 20.5q-14 0 -22 -0.5t-15.5 -1t-17 -1t-26.5 -1.5q-6 0 -14.5 -2.5t-10.5 -10.5v-618v-30z" />
<glyph unicode="&#xdf;" horiz-adv-x="1305" d="M559 911q159 16 247 104t88 234q0 67 -16 123t-45.5 96t-72 62.5t-94.5 22.5q-55 0 -102.5 -26.5t-82 -73.5t-54.5 -111t-20 -139v-1020q0 -39 5.5 -63t19 -38t36 -19t55.5 -5q52 -5 52 -28q0 -4 -1.5 -9.5t-6.5 -10t-16.5 -7.5t-30.5 -3h-458q-24 6 -31.5 12.5 t-7.5 17.5t15.5 17.5t54.5 17.5q12 3 26.5 7t27 14.5t20.5 28.5t8 49v895q0 105 21 188.5t58 148.5t87 111t108 76t120.5 44t125.5 14q92 0 171 -29t137.5 -79t92 -117.5t33.5 -145.5q0 -121 -84.5 -218.5t-239.5 -159.5q75 -20 147.5 -56.5t129.5 -92t92 -130t35 -169.5 q0 -83 -19 -150.5t-51 -119.5t-74 -90t-87.5 -62.5t-91.5 -36t-87 -11.5q-66 0 -107 16t-41 57q0 32 18.5 52.5t55.5 20.5q19 0 38 -8t37 -18t36.5 -18t36.5 -8q21 0 37.5 27t28.5 73.5t18.5 107.5t6.5 130q0 124 -29.5 215.5t-81.5 143.5q-26 25 -55.5 41t-65.5 25.5 t-79 13t-94 3.5v63z" />
<glyph unicode="&#xe0;" horiz-adv-x="1017" d="M487 20q-33 -23 -78 -36t-90 -13q-122 0 -185.5 55t-63.5 149q0 54 24.5 93t72.5 69t118.5 54.5t163.5 48.5q50 13 80.5 28t56.5 29q17 9 19.5 16t2.5 13v174q0 33 -9.5 61.5t-28.5 49.5t-46 33t-61 12q-29 0 -54 -10t-43 -29t-28.5 -45t-10.5 -59q0 -3 0.5 -9t1.5 -12.5 t2 -11.5t1 -6q-1 -2 -16.5 -8t-38 -13.5t-49.5 -15t-51.5 -14.5t-43 -12.5t-25.5 -6.5q-11 0 -13.5 11.5t-2.5 22.5q0 58 35 113t93.5 97.5t134.5 68.5t157 26q72 0 129 -18.5t97 -51t61 -75t21 -90.5v-477q0 -26 19.5 -46.5t50.5 -20.5q18 0 32.5 6.5t26 15t19.5 15t14 6.5 q8 0 9 -6.5t1 -11.5q0 -17 -4.5 -34.5t-15.5 -25.5q-49 -37 -87 -66.5t-69 -50.5t-56 -32t-47 -11q-20 0 -35.5 11t-27 27t-19.5 34.5t-13.5 34.5t-8.5 26t-5 9zM303 199q0 -27 10.5 -44t27.5 -26t38.5 -12.5t44.5 -3.5q21 0 52 10.5t60.5 28t50.5 40t21 45.5v165 q0 11 -8 11q-2 0 -4 -1l-232 -108q-14 -10 -25.5 -18.5t-19.5 -20t-12 -27t-4 -39.5zM630 1062q-5 -7 -13.5 -12.5t-14.5 -5.5q-11 0 -20 7l-269 217q-23 19 -42.5 46t-19.5 64q0 19 7 36t19.5 30t29 20.5t36.5 7.5q23 0 46 -13.5t45 -43.5l210 -291q5 -7 6.5 -12.5 t1.5 -12.5q0 -3 -1 -7t-5 -9z" />
<glyph unicode="&#xe1;" horiz-adv-x="1017" d="M487 20q-33 -23 -78 -36t-90 -13q-122 0 -185.5 55t-63.5 149q0 54 24.5 93t72.5 69t118.5 54.5t163.5 48.5q50 13 80.5 28t56.5 29q17 9 19.5 16t2.5 13v174q0 33 -9.5 61.5t-28.5 49.5t-46 33t-61 12q-29 0 -54 -10t-43 -29t-28.5 -45t-10.5 -59q0 -3 0.5 -9t1.5 -12.5 t2 -11.5t1 -6q-1 -2 -16.5 -8t-38 -13.5t-49.5 -15t-51.5 -14.5t-43 -12.5t-25.5 -6.5q-11 0 -13.5 11.5t-2.5 22.5q0 58 35 113t93.5 97.5t134.5 68.5t157 26q72 0 129 -18.5t97 -51t61 -75t21 -90.5v-477q0 -26 19.5 -46.5t50.5 -20.5q18 0 32.5 6.5t26 15t19.5 15t14 6.5 q8 0 9 -6.5t1 -11.5q0 -17 -4.5 -34.5t-15.5 -25.5q-49 -37 -87 -66.5t-69 -50.5t-56 -32t-47 -11q-20 0 -35.5 11t-27 27t-19.5 34.5t-13.5 34.5t-8.5 26t-5 9zM303 199q0 -27 10.5 -44t27.5 -26t38.5 -12.5t44.5 -3.5q21 0 52 10.5t60.5 28t50.5 40t21 45.5v165 q0 11 -8 11q-2 0 -4 -1l-232 -108q-14 -10 -25.5 -18.5t-19.5 -20t-12 -27t-4 -39.5zM405 1084q-3 4 -5.5 8t-2.5 10t3 10t5 8l213 295q22 30 45 43.5t46 13.5q19 0 36 -7.5t29.5 -20.5t19.5 -30t7 -36q0 -37 -20 -64t-43 -46l-270 -218q-6 -5 -8.5 -5.5t-9.5 -0.5 q-9 0 -13.5 2.5t-9.5 8.5z" />
<glyph unicode="&#xe2;" horiz-adv-x="1017" d="M487 20q-33 -23 -78 -36t-90 -13q-122 0 -185.5 55t-63.5 149q0 54 24.5 93t72.5 69t118.5 54.5t163.5 48.5q50 13 80.5 28t56.5 29q17 9 19.5 16t2.5 13v174q0 33 -9.5 61.5t-28.5 49.5t-46 33t-61 12q-29 0 -54 -10t-43 -29t-28.5 -45t-10.5 -59q0 -3 0.5 -9t1.5 -12.5 t2 -11.5t1 -6q-1 -2 -16.5 -8t-38 -13.5t-49.5 -15t-51.5 -14.5t-43 -12.5t-25.5 -6.5q-11 0 -13.5 11.5t-2.5 22.5q0 58 35 113t93.5 97.5t134.5 68.5t157 26q72 0 129 -18.5t97 -51t61 -75t21 -90.5v-477q0 -26 19.5 -46.5t50.5 -20.5q18 0 32.5 6.5t26 15t19.5 15t14 6.5 q8 0 9 -6.5t1 -11.5q0 -17 -4.5 -34.5t-15.5 -25.5q-49 -37 -87 -66.5t-69 -50.5t-56 -32t-47 -11q-20 0 -35.5 11t-27 27t-19.5 34.5t-13.5 34.5t-8.5 26t-5 9zM303 199q0 -27 10.5 -44t27.5 -26t38.5 -12.5t44.5 -3.5q21 0 52 10.5t60.5 28t50.5 40t21 45.5v165 q0 11 -8 11q-2 0 -4 -1l-232 -108q-14 -10 -25.5 -18.5t-19.5 -20t-12 -27t-4 -39.5zM501 1283l-220 -230q-5 -5 -12.5 -7.5t-11.5 -2.5q-5 0 -12.5 6.5t-15 15.5t-12.5 17.5t-5 12.5q0 9 2.5 14t8.5 13l245 330q5 8 14.5 14.5t18.5 6.5q12 0 23 -9.5t19 -20.5l248 -322 q11 -14 11 -26q0 -4 -5 -12.5t-12.5 -17.5t-15 -15.5t-12.5 -6.5t-11 2.5t-11 7.5z" />
<glyph unicode="&#xe3;" horiz-adv-x="1017" d="M487 20q-33 -23 -78 -36t-90 -13q-122 0 -185.5 55t-63.5 149q0 54 24.5 93t72.5 69t118.5 54.5t163.5 48.5q50 13 80.5 28t56.5 29q17 9 19.5 16t2.5 13v174q0 33 -9.5 61.5t-28.5 49.5t-46 33t-61 12q-29 0 -54 -10t-43 -29t-28.5 -45t-10.5 -59q0 -3 0.5 -9t1.5 -12.5 t2 -11.5t1 -6q-1 -2 -16.5 -8t-38 -13.5t-49.5 -15t-51.5 -14.5t-43 -12.5t-25.5 -6.5q-11 0 -13.5 11.5t-2.5 22.5q0 58 35 113t93.5 97.5t134.5 68.5t157 26q72 0 129 -18.5t97 -51t61 -75t21 -90.5v-477q0 -26 19.5 -46.5t50.5 -20.5q18 0 32.5 6.5t26 15t19.5 15t14 6.5 q8 0 9 -6.5t1 -11.5q0 -17 -4.5 -34.5t-15.5 -25.5q-49 -37 -87 -66.5t-69 -50.5t-56 -32t-47 -11q-20 0 -35.5 11t-27 27t-19.5 34.5t-13.5 34.5t-8.5 26t-5 9zM303 199q0 -27 10.5 -44t27.5 -26t38.5 -12.5t44.5 -3.5q21 0 52 10.5t60.5 28t50.5 40t21 45.5v165 q0 11 -8 11q-2 0 -4 -1l-232 -108q-14 -10 -25.5 -18.5t-19.5 -20t-12 -27t-4 -39.5zM780 1388q5 0 7.5 -5t4 -11.5t2 -13.5t0.5 -11q0 -33 -11 -73.5t-32 -75.5t-51 -59t-68 -24q-41 0 -79 16t-74.5 35.5t-73.5 36t-76 16.5q-14 0 -29.5 -9t-28.5 -24.5t-21.5 -36.5 t-8.5 -45q0 -8 -5 -10t-11 -2h-21q-8 0 -8 16q0 46 11 94t31 87t49 63.5t65 24.5q42 0 82 -16.5t79.5 -36t79 -36t78.5 -16.5q18 0 32 10t23.5 25.5t14 33.5t4.5 33q0 6 5 10t11 4h19z" />
<glyph unicode="&#xe4;" horiz-adv-x="1017" d="M487 20q-33 -23 -78 -36t-90 -13q-122 0 -185.5 55t-63.5 149q0 54 24.5 93t72.5 69t118.5 54.5t163.5 48.5q50 13 80.5 28t56.5 29q17 9 19.5 16t2.5 13v174q0 33 -9.5 61.5t-28.5 49.5t-46 33t-61 12q-29 0 -54 -10t-43 -29t-28.5 -45t-10.5 -59q0 -3 0.5 -9t1.5 -12.5 t2 -11.5t1 -6q-1 -2 -16.5 -8t-38 -13.5t-49.5 -15t-51.5 -14.5t-43 -12.5t-25.5 -6.5q-11 0 -13.5 11.5t-2.5 22.5q0 58 35 113t93.5 97.5t134.5 68.5t157 26q72 0 129 -18.5t97 -51t61 -75t21 -90.5v-477q0 -26 19.5 -46.5t50.5 -20.5q18 0 32.5 6.5t26 15t19.5 15t14 6.5 q8 0 9 -6.5t1 -11.5q0 -17 -4.5 -34.5t-15.5 -25.5q-49 -37 -87 -66.5t-69 -50.5t-56 -32t-47 -11q-20 0 -35.5 11t-27 27t-19.5 34.5t-13.5 34.5t-8.5 26t-5 9zM303 199q0 -27 10.5 -44t27.5 -26t38.5 -12.5t44.5 -3.5q21 0 52 10.5t60.5 28t50.5 40t21 45.5v165 q0 11 -8 11q-2 0 -4 -1l-232 -108q-14 -10 -25.5 -18.5t-19.5 -20t-12 -27t-4 -39.5zM254 1092q-29 0 -54 10.5t-43.5 28.5t-29 42.5t-10.5 53.5t10.5 54.5t29 44t43.5 29.5t54 11t54 -11t43.5 -29.5t29 -44t10.5 -54.5t-10.5 -53.5t-29 -42.5t-43.5 -28.5t-54 -10.5z M693 1092q-29 0 -53.5 10.5t-43.5 28.5t-29.5 42.5t-10.5 53.5t10.5 54.5t29.5 44t43.5 29.5t53.5 11q30 0 55 -11t43 -29.5t28.5 -44t10.5 -54.5t-10.5 -53.5t-28.5 -42.5t-43 -28.5t-55 -10.5z" />
<glyph unicode="&#xe5;" horiz-adv-x="1017" d="M487 20q-33 -23 -78 -36t-90 -13q-122 0 -185.5 55t-63.5 149q0 54 24.5 93t72.5 69t118.5 54.5t163.5 48.5q50 13 80.5 28t56.5 29q17 9 19.5 16t2.5 13v174q0 33 -9.5 61.5t-28.5 49.5t-46 33t-61 12q-29 0 -54 -10t-43 -29t-28.5 -45t-10.5 -59q0 -3 0.5 -9t1.5 -12.5 t2 -11.5t1 -6q-1 -2 -16.5 -8t-38 -13.5t-49.5 -15t-51.5 -14.5t-43 -12.5t-25.5 -6.5q-11 0 -13.5 11.5t-2.5 22.5q0 58 35 113t93.5 97.5t134.5 68.5t157 26q72 0 129 -18.5t97 -51t61 -75t21 -90.5v-477q0 -26 19.5 -46.5t50.5 -20.5q18 0 32.5 6.5t26 15t19.5 15t14 6.5 q8 0 9 -6.5t1 -11.5q0 -17 -4.5 -34.5t-15.5 -25.5q-49 -37 -87 -66.5t-69 -50.5t-56 -32t-47 -11q-20 0 -35.5 11t-27 27t-19.5 34.5t-13.5 34.5t-8.5 26t-5 9zM303 199q0 -27 10.5 -44t27.5 -26t38.5 -12.5t44.5 -3.5q21 0 52 10.5t60.5 28t50.5 40t21 45.5v165 q0 11 -8 11q-2 0 -4 -1l-232 -108q-14 -10 -25.5 -18.5t-19.5 -20t-12 -27t-4 -39.5zM394 1263q0 -24 9 -45t24 -36t36 -24t45 -9q23 0 43.5 9t36.5 24t25 36t9 45q0 23 -9 43.5t-25 36.5t-36.5 25t-43.5 9q-24 0 -45 -9t-36 -25t-24 -36.5t-9 -43.5zM294 1263q0 44 17 83 t46 68t68 46t83 17t83 -17t68 -46t46 -68t17 -83t-17 -83t-46 -68t-68 -46t-83 -17t-83 17t-68 46t-46 68t-17 83z" />
<glyph unicode="&#xe6;" horiz-adv-x="1522" d="M319 -29q-122 0 -185.5 55t-63.5 149q0 54 24.5 93t72.5 69t118.5 54.5t163.5 48.5q50 13 80.5 28t56.5 29q17 9 19.5 16t2.5 13v174q0 33 -9.5 61.5t-28.5 49.5t-46 33t-61 12q-29 0 -54 -10t-43 -29t-28.5 -45t-10.5 -59q0 -3 0.5 -9t1.5 -12.5t2 -11.5t1 -6 q-1 -2 -16.5 -8t-38 -13.5t-49.5 -15t-51.5 -14.5t-43 -12.5t-25.5 -6.5q-11 0 -13.5 11.5t-2.5 22.5q0 58 35 113t93.5 97.5t134.5 68.5t157 26q93 0 160 -30t105 -80q60 53 138 81.5t175 28.5q34 0 61 -4.5t49.5 -12t42 -18t39.5 -22.5q23 -12 52.5 -43t55.5 -72t44 -87.5 t18 -89.5q0 -14 -5.5 -30.5t-18.5 -16.5h-590q-10 0 -13.5 -18t-3.5 -44q0 -88 25.5 -156.5t68.5 -116t99 -72t118 -24.5q39 0 75 10.5t69 27.5t62 38t55 42q6 2 8 2q3 0 8 -5q9 -8 18 -18.5t14 -17.5q3 -3 3 -6t-4 -7q-33 -39 -81 -76.5t-102.5 -67t-111.5 -47.5t-108 -18 q-63 0 -117 14.5t-99.5 40t-81.5 60.5t-63 77q-39 -36 -83.5 -71t-91 -62t-93 -44t-89.5 -17zM1194 624q26 0 26 23q0 39 -12.5 73.5t-35.5 61t-55.5 41.5t-72.5 15q-48 0 -84 -20.5t-61 -49.5t-37.5 -60t-12.5 -53q0 -17 5 -24t13 -7h327zM607 410q-2 3 -7 3q-2 0 -4 -1 l-232 -108q-14 -10 -25.5 -18.5t-19.5 -20t-12 -27t-4 -39.5q0 -27 10.5 -44t27.5 -26t38.5 -12.5t44.5 -3.5q21 0 52 10.5t60.5 28t50.5 40t21 45.5v136q-1 8 -1 16v16v5z" />
<glyph unicode="&#xe7;" horiz-adv-x="988" d="M90 403q1 153 41 256t110.5 166t166.5 90t209 27q22 0 52.5 -1.5t63 -6t64 -13t57 -24t41 -38t15.5 -54.5q0 -47 -34 -66.5t-82 -19.5q-42 0 -71 19.5t-53.5 43t-49 43t-58.5 19.5q-39 0 -71.5 -17t-58 -45.5t-44.5 -65.5t-31.5 -77t-18.5 -80t-6 -74q0 -73 15 -139.5 t48.5 -117.5t87 -81t129.5 -30q28 0 55.5 9t53 24.5t48 35.5t41.5 43q10 12 19.5 20t29.5 8q24 0 41.5 -12.5t17.5 -26.5q0 -4 -1.5 -10.5t-10.5 -18.5q-52 -66 -113.5 -114.5t-136.5 -74.5l-127 -150q39 -15 65 -37t41.5 -44t22 -42t6.5 -32q0 -62 -33 -106t-85.5 -72 t-117 -41t-128.5 -13q-40 0 -67.5 8t-27.5 40q0 8 9.5 19.5t29.5 19.5q8 3 23 5.5t32 5.5q24 4 52.5 10t52.5 18.5t40.5 33t16.5 53.5q0 22 -18 39t-43 29.5t-52 19.5t-46 9l164 203q-86 7 -155.5 44.5t-118.5 95.5t-75.5 132.5t-26.5 154.5z" />
<glyph unicode="&#xe8;" horiz-adv-x="1014" d="M70 405q0 117 33 215.5t95 170.5t151.5 112t203.5 40q34 0 61 -4.5t49.5 -12t42 -18t39.5 -22.5q23 -12 52.5 -43t55.5 -72t44 -87.5t18 -89.5q0 -14 -5.5 -30.5t-18.5 -16.5h-590q-10 0 -13.5 -18t-3.5 -44q0 -88 25.5 -156.5t68.5 -116t99 -72t118 -24.5q39 0 75 10.5 t69 27.5t62 38t55 42q6 2 8 2q3 0 8 -5q9 -8 18 -18.5t14 -17.5q3 -3 3 -6t-4 -7q-33 -39 -81 -76.5t-102.5 -67t-111.5 -47.5t-108 -18q-103 0 -183 37.5t-135 98.5t-83.5 138.5t-28.5 157.5zM657 624q26 0 26 23q0 39 -12.5 73.5t-35.5 61t-55.5 41.5t-72.5 15 q-48 0 -84 -20.5t-61 -49.5t-37.5 -60t-12.5 -53q0 -17 5 -24t13 -7h327zM597 1062q-5 -7 -13.5 -12.5t-14.5 -5.5q-11 0 -20 7l-269 217q-23 19 -42.5 46t-19.5 64q0 19 7 36t19.5 30t29 20.5t36.5 7.5q23 0 46 -13.5t45 -43.5l210 -291q5 -7 6.5 -12.5t1.5 -12.5 q0 -3 -1 -7t-5 -9z" />
<glyph unicode="&#xe9;" horiz-adv-x="1014" d="M70 405q0 117 33 215.5t95 170.5t151.5 112t203.5 40q34 0 61 -4.5t49.5 -12t42 -18t39.5 -22.5q23 -12 52.5 -43t55.5 -72t44 -87.5t18 -89.5q0 -14 -5.5 -30.5t-18.5 -16.5h-590q-10 0 -13.5 -18t-3.5 -44q0 -88 25.5 -156.5t68.5 -116t99 -72t118 -24.5q39 0 75 10.5 t69 27.5t62 38t55 42q6 2 8 2q3 0 8 -5q9 -8 18 -18.5t14 -17.5q3 -3 3 -6t-4 -7q-33 -39 -81 -76.5t-102.5 -67t-111.5 -47.5t-108 -18q-103 0 -183 37.5t-135 98.5t-83.5 138.5t-28.5 157.5zM657 624q26 0 26 23q0 39 -12.5 73.5t-35.5 61t-55.5 41.5t-72.5 15 q-48 0 -84 -20.5t-61 -49.5t-37.5 -60t-12.5 -53q0 -17 5 -24t13 -7h327zM396 1084q-3 4 -5.5 8t-2.5 10t3 10t5 8l213 295q22 30 45 43.5t46 13.5q19 0 36 -7.5t29.5 -20.5t19.5 -30t7 -36q0 -37 -20 -64t-43 -46l-270 -218q-6 -5 -8.5 -5.5t-9.5 -0.5q-9 0 -13.5 2.5 t-9.5 8.5z" />
<glyph unicode="&#xea;" horiz-adv-x="1014" d="M70 405q0 117 33 215.5t95 170.5t151.5 112t203.5 40q34 0 61 -4.5t49.5 -12t42 -18t39.5 -22.5q23 -12 52.5 -43t55.5 -72t44 -87.5t18 -89.5q0 -14 -5.5 -30.5t-18.5 -16.5h-590q-10 0 -13.5 -18t-3.5 -44q0 -88 25.5 -156.5t68.5 -116t99 -72t118 -24.5q39 0 75 10.5 t69 27.5t62 38t55 42q6 2 8 2q3 0 8 -5q9 -8 18 -18.5t14 -17.5q3 -3 3 -6t-4 -7q-33 -39 -81 -76.5t-102.5 -67t-111.5 -47.5t-108 -18q-103 0 -183 37.5t-135 98.5t-83.5 138.5t-28.5 157.5zM657 624q26 0 26 23q0 39 -12.5 73.5t-35.5 61t-55.5 41.5t-72.5 15 q-48 0 -84 -20.5t-61 -49.5t-37.5 -60t-12.5 -53q0 -17 5 -24t13 -7h327zM489 1283l-220 -230q-5 -5 -12.5 -7.5t-11.5 -2.5q-5 0 -12.5 6.5t-15 15.5t-12.5 17.5t-5 12.5q0 9 2.5 14t8.5 13l245 330q5 8 14.5 14.5t18.5 6.5q12 0 23 -9.5t19 -20.5l248 -322q11 -14 11 -26 q0 -4 -5 -12.5t-12.5 -17.5t-15 -15.5t-12.5 -6.5t-11 2.5t-11 7.5z" />
<glyph unicode="&#xeb;" horiz-adv-x="1014" d="M70 405q0 117 33 215.5t95 170.5t151.5 112t203.5 40q34 0 61 -4.5t49.5 -12t42 -18t39.5 -22.5q23 -12 52.5 -43t55.5 -72t44 -87.5t18 -89.5q0 -14 -5.5 -30.5t-18.5 -16.5h-590q-10 0 -13.5 -18t-3.5 -44q0 -88 25.5 -156.5t68.5 -116t99 -72t118 -24.5q39 0 75 10.5 t69 27.5t62 38t55 42q6 2 8 2q3 0 8 -5q9 -8 18 -18.5t14 -17.5q3 -3 3 -6t-4 -7q-33 -39 -81 -76.5t-102.5 -67t-111.5 -47.5t-108 -18q-103 0 -183 37.5t-135 98.5t-83.5 138.5t-28.5 157.5zM657 624q26 0 26 23q0 39 -12.5 73.5t-35.5 61t-55.5 41.5t-72.5 15 q-48 0 -84 -20.5t-61 -49.5t-37.5 -60t-12.5 -53q0 -17 5 -24t13 -7h327zM291 1092q-29 0 -54 10.5t-43.5 28.5t-29 42.5t-10.5 53.5t10.5 54.5t29 44t43.5 29.5t54 11t54 -11t43.5 -29.5t29 -44t10.5 -54.5t-10.5 -53.5t-29 -42.5t-43.5 -28.5t-54 -10.5zM730 1092 q-29 0 -53.5 10.5t-43.5 28.5t-29.5 42.5t-10.5 53.5t10.5 54.5t29.5 44t43.5 29.5t53.5 11q30 0 55 -11t43 -29.5t28.5 -44t10.5 -54.5t-10.5 -53.5t-28.5 -42.5t-43 -28.5t-55 -10.5z" />
<glyph unicode="&#xec;" horiz-adv-x="652" d="M70 0q-6 2 -8 13.5t-2 17.5q0 5 3 15.5t7 12.5q13 6 37 9.5t48 14t42 33t18 66.5v481q0 24 -13 37.5t-33 20.5t-43 11.5t-44 10.5q-6 2 -9.5 5.5t-3.5 14.5q0 5 3 10t12 10l331 156q4 2 8.5 4t6.5 2q17 0 17 -24v-739q0 -44 18 -66.5t42 -33t48 -14t37 -9.5q4 -2 7 -12.5 t3 -15.5q0 -6 -2 -17.5t-8 -13.5h-522v0zM380 1062q-5 -7 -13.5 -12.5t-14.5 -5.5q-11 0 -20 7l-269 217q-23 19 -42.5 46t-19.5 64q0 19 7 36t19.5 30t29 20.5t36.5 7.5q23 0 46 -13.5t45 -43.5l210 -291q5 -7 6.5 -12.5t1.5 -12.5q0 -3 -1 -7t-5 -9z" />
<glyph unicode="&#xed;" horiz-adv-x="652" d="M70 0q-6 2 -8 13.5t-2 17.5q0 5 3 15.5t7 12.5q13 6 37 9.5t48 14t42 33t18 66.5v481q0 24 -13 37.5t-33 20.5t-43 11.5t-44 10.5q-6 2 -9.5 5.5t-3.5 14.5q0 5 3 10t12 10l331 156q4 2 8.5 4t6.5 2q17 0 17 -24v-739q0 -44 18 -66.5t42 -33t48 -14t37 -9.5q4 -2 7 -12.5 t3 -15.5q0 -6 -2 -17.5t-8 -13.5h-522v0zM137 1084q-3 4 -5.5 8t-2.5 10t3 10t5 8l213 295q22 30 45 43.5t46 13.5q19 0 36 -7.5t29.5 -20.5t19.5 -30t7 -36q0 -37 -20 -64t-43 -46l-270 -218q-6 -5 -8.5 -5.5t-9.5 -0.5q-9 0 -13.5 2.5t-9.5 8.5z" />
<glyph unicode="&#xee;" horiz-adv-x="652" d="M70 0q-6 2 -8 13.5t-2 17.5q0 5 3 15.5t7 12.5q13 6 37 9.5t48 14t42 33t18 66.5v481q0 24 -13 37.5t-33 20.5t-43 11.5t-44 10.5q-6 2 -9.5 5.5t-3.5 14.5q0 5 3 10t12 10l331 156q4 2 8.5 4t6.5 2q17 0 17 -24v-739q0 -44 18 -66.5t42 -33t48 -14t37 -9.5q4 -2 7 -12.5 t3 -15.5q0 -6 -2 -17.5t-8 -13.5h-522v0zM318 1283l-220 -230q-5 -5 -12.5 -7.5t-11.5 -2.5q-5 0 -12.5 6.5t-15 15.5t-12.5 17.5t-5 12.5q0 9 2.5 14t8.5 13l245 330q5 8 14.5 14.5t18.5 6.5q12 0 23 -9.5t19 -20.5l248 -322q11 -14 11 -26q0 -4 -5 -12.5t-12.5 -17.5 t-15 -15.5t-12.5 -6.5t-11 2.5t-11 7.5z" />
<glyph unicode="&#xef;" horiz-adv-x="652" d="M70 0q-6 2 -8 13.5t-2 17.5q0 5 3 15.5t7 12.5q13 6 37 9.5t48 14t42 33t18 66.5v481q0 24 -13 37.5t-33 20.5t-43 11.5t-44 10.5q-6 2 -9.5 5.5t-3.5 14.5q0 5 3 10t12 10l331 156q4 2 8.5 4t6.5 2q17 0 17 -24v-739q0 -44 18 -66.5t42 -33t48 -14t37 -9.5q4 -2 7 -12.5 t3 -15.5q0 -6 -2 -17.5t-8 -13.5h-522v0zM106 1092q-29 0 -54 10.5t-43.5 28.5t-29 42.5t-10.5 53.5t10.5 54.5t29 44t43.5 29.5t54 11t54 -11t43.5 -29.5t29 -44t10.5 -54.5t-10.5 -53.5t-29 -42.5t-43.5 -28.5t-54 -10.5zM545 1092q-29 0 -53.5 10.5t-43.5 28.5 t-29.5 42.5t-10.5 53.5t10.5 54.5t29.5 44t43.5 29.5t53.5 11q30 0 55 -11t43 -29.5t28.5 -44t10.5 -54.5t-10.5 -53.5t-28.5 -42.5t-43 -28.5t-55 -10.5z" />
<glyph unicode="&#xf0;" horiz-adv-x="1179" d="M530 1348q-36 44 -78.5 91.5t-83 86.5t-74.5 64.5t-52 25.5v29h190q51 -34 108.5 -84.5t115.5 -114.5l236 186l90 -120l-230 -179q67 -87 129 -188t109.5 -211t75.5 -229t28 -242q0 -103 -38 -192.5t-106.5 -155.5t-162.5 -104t-205 -38q-110 0 -203 39t-160.5 106 t-105.5 157t-38 192q0 62 18.5 121t51.5 112t79 97.5t102 77t119 50.5t131 18q40 0 97.5 -11t117.5 -37q-2 31 -15.5 69.5t-36 81.5t-53 89.5t-64.5 94.5q-26 -21 -55.5 -43.5t-58.5 -45.5t-56.5 -44t-50.5 -39l-90 118zM326 528q0 -78 17 -161.5t53 -153t91.5 -114.5 t133.5 -45q57 0 98.5 31t67.5 82t38.5 117.5t12.5 138.5q0 37 -8.5 83.5t-26 94.5t-42.5 93.5t-58.5 80.5t-74.5 56.5t-89 21.5q-54 0 -94 -30t-66.5 -77t-39.5 -105t-13 -113z" />
<glyph unicode="&#xf1;" horiz-adv-x="1316" d="M407 970q4 2 8.5 4t6.5 2q17 0 17 -24v-156q3 -10 8 -10t8 0.5t8 3.5q64 33 108.5 55.5t77 38t58 24t51.5 13t57 5.5t76 1q49 0 85 -21t60.5 -55.5t40 -79t23.5 -91t11 -92t3 -82.5q0 -35 -1.5 -65t-3 -65.5t-3 -80.5t-1.5 -109q0 -30 11 -50t28.5 -33t38.5 -19.5 t41 -10.5t36.5 -6.5t25.5 -6.5q4 -2 7 -13t3 -16q0 -6 -2 -17.5t-8 -13.5h-558q-6 2 -8 13.5t-2 17.5q0 5 3 16t7 13q13 6 34.5 9.5t44 15.5t41 36.5t24.5 72.5q2 15 3.5 28t2.5 26.5t1.5 29.5t0.5 37q0 45 -1 96t-1 114q0 49 -4.5 97t-22 86t-51.5 62t-94 24 q-21 0 -37.5 -2.5t-40 -11.5t-61.5 -27t-102 -49q-8 -5 -16.5 -11.5t-9.5 -16.5v-490q0 -45 18 -68.5t42 -34t48 -14t37 -9.5q4 -2 7 -13t3 -16q0 -6 -2 -17.5t-8 -13.5h-522q-6 2 -8 13.5t-2 17.5q0 5 3 16t7 13q13 6 37 9.5t48 14t42 34t18 68.5v508q0 24 -13 37.5 t-33 20.5t-43 11.5t-44 10.5q-6 2 -9.5 5.5t-3.5 14.5q0 5 3 10t12 10zM924 1388q5 0 7.5 -5t4 -11.5t2 -13.5t0.5 -11q0 -33 -11 -73.5t-32 -75.5t-51 -59t-68 -24q-41 0 -79 16t-74.5 35.5t-73.5 36t-76 16.5q-14 0 -29.5 -9t-28.5 -24.5t-21.5 -36.5t-8.5 -45 q0 -8 -5 -10t-11 -2h-21q-8 0 -8 16q0 46 11 94t31 87t49 63.5t65 24.5q42 0 82 -16.5t79.5 -36t79 -36t78.5 -16.5q18 0 32 10t23.5 25.5t14 33.5t4.5 33q0 6 5 10t11 4h19z" />
<glyph unicode="&#xf2;" horiz-adv-x="1197" d="M75 467q0 94 41.5 180t111.5 152t163 105t196 39q108 0 205 -37t170.5 -101.5t116.5 -152t43 -189.5q0 -104 -39.5 -193.5t-109.5 -155.5t-166.5 -103.5t-210.5 -37.5q-113 0 -208.5 38.5t-165 105t-108.5 156.5t-39 194zM331 530q0 -54 8 -111.5t24 -112t40.5 -102.5 t58.5 -84.5t77 -57.5t97 -21q59 0 101.5 30.5t70 79.5t40.5 110t13 122q0 49 -9 103.5t-27 108t-44 102.5t-60.5 86.5t-77 59.5t-92.5 22q-56 0 -97.5 -30.5t-68.5 -79t-40.5 -108t-13.5 -117.5zM619 1062q-5 -7 -13.5 -12.5t-14.5 -5.5q-11 0 -20 7l-269 217 q-23 19 -42.5 46t-19.5 64q0 19 7 36t19.5 30t29 20.5t36.5 7.5q23 0 46 -13.5t45 -43.5l210 -291q5 -7 6.5 -12.5t1.5 -12.5q0 -3 -1 -7t-5 -9z" />
<glyph unicode="&#xf3;" horiz-adv-x="1197" d="M75 467q0 94 41.5 180t111.5 152t163 105t196 39q108 0 205 -37t170.5 -101.5t116.5 -152t43 -189.5q0 -104 -39.5 -193.5t-109.5 -155.5t-166.5 -103.5t-210.5 -37.5q-113 0 -208.5 38.5t-165 105t-108.5 156.5t-39 194zM331 530q0 -54 8 -111.5t24 -112t40.5 -102.5 t58.5 -84.5t77 -57.5t97 -21q59 0 101.5 30.5t70 79.5t40.5 110t13 122q0 49 -9 103.5t-27 108t-44 102.5t-60.5 86.5t-77 59.5t-92.5 22q-56 0 -97.5 -30.5t-68.5 -79t-40.5 -108t-13.5 -117.5zM496 1084q-3 4 -5.5 8t-2.5 10t3 10t5 8l213 295q22 30 45 43.5t46 13.5 q19 0 36 -7.5t29.5 -20.5t19.5 -30t7 -36q0 -37 -20 -64t-43 -46l-270 -218q-6 -5 -8.5 -5.5t-9.5 -0.5q-9 0 -13.5 2.5t-9.5 8.5z" />
<glyph unicode="&#xf4;" horiz-adv-x="1197" d="M75 467q0 94 41.5 180t111.5 152t163 105t196 39q108 0 205 -37t170.5 -101.5t116.5 -152t43 -189.5q0 -104 -39.5 -193.5t-109.5 -155.5t-166.5 -103.5t-210.5 -37.5q-113 0 -208.5 38.5t-165 105t-108.5 156.5t-39 194zM331 530q0 -54 8 -111.5t24 -112t40.5 -102.5 t58.5 -84.5t77 -57.5t97 -21q59 0 101.5 30.5t70 79.5t40.5 110t13 122q0 49 -9 103.5t-27 108t-44 102.5t-60.5 86.5t-77 59.5t-92.5 22q-56 0 -97.5 -30.5t-68.5 -79t-40.5 -108t-13.5 -117.5zM639 1283l-220 -230q-5 -5 -12.5 -7.5t-11.5 -2.5q-5 0 -12.5 6.5t-15 15.5 t-12.5 17.5t-5 12.5q0 9 2.5 14t8.5 13l245 330q5 8 14.5 14.5t18.5 6.5q12 0 23 -9.5t19 -20.5l248 -322q11 -14 11 -26q0 -4 -5 -12.5t-12.5 -17.5t-15 -15.5t-12.5 -6.5t-11 2.5t-11 7.5z" />
<glyph unicode="&#xf5;" horiz-adv-x="1197" d="M75 467q0 94 41.5 180t111.5 152t163 105t196 39q108 0 205 -37t170.5 -101.5t116.5 -152t43 -189.5q0 -104 -39.5 -193.5t-109.5 -155.5t-166.5 -103.5t-210.5 -37.5q-113 0 -208.5 38.5t-165 105t-108.5 156.5t-39 194zM331 530q0 -54 8 -111.5t24 -112t40.5 -102.5 t58.5 -84.5t77 -57.5t97 -21q59 0 101.5 30.5t70 79.5t40.5 110t13 122q0 49 -9 103.5t-27 108t-44 102.5t-60.5 86.5t-77 59.5t-92.5 22q-56 0 -97.5 -30.5t-68.5 -79t-40.5 -108t-13.5 -117.5zM888 1388q5 0 7.5 -5t4 -11.5t2 -13.5t0.5 -11q0 -33 -11 -73.5t-32 -75.5 t-51 -59t-68 -24q-41 0 -79 16t-74.5 35.5t-73.5 36t-76 16.5q-14 0 -29.5 -9t-28.5 -24.5t-21.5 -36.5t-8.5 -45q0 -8 -5 -10t-11 -2h-21q-8 0 -8 16q0 46 11 94t31 87t49 63.5t65 24.5q42 0 82 -16.5t79.5 -36t79 -36t78.5 -16.5q18 0 32 10t23.5 25.5t14 33.5t4.5 33 q0 6 5 10t11 4h19z" />
<glyph unicode="&#xf6;" horiz-adv-x="1197" d="M75 467q0 94 41.5 180t111.5 152t163 105t196 39q108 0 205 -37t170.5 -101.5t116.5 -152t43 -189.5q0 -104 -39.5 -193.5t-109.5 -155.5t-166.5 -103.5t-210.5 -37.5q-113 0 -208.5 38.5t-165 105t-108.5 156.5t-39 194zM331 530q0 -54 8 -111.5t24 -112t40.5 -102.5 t58.5 -84.5t77 -57.5t97 -21q59 0 101.5 30.5t70 79.5t40.5 110t13 122q0 49 -9 103.5t-27 108t-44 102.5t-60.5 86.5t-77 59.5t-92.5 22q-56 0 -97.5 -30.5t-68.5 -79t-40.5 -108t-13.5 -117.5zM380 1092q-29 0 -54 10.5t-43.5 28.5t-29 42.5t-10.5 53.5t10.5 54.5t29 44 t43.5 29.5t54 11t54 -11t43.5 -29.5t29 -44t10.5 -54.5t-10.5 -53.5t-29 -42.5t-43.5 -28.5t-54 -10.5zM819 1092q-29 0 -53.5 10.5t-43.5 28.5t-29.5 42.5t-10.5 53.5t10.5 54.5t29.5 44t43.5 29.5t53.5 11q30 0 55 -11t43 -29.5t28.5 -44t10.5 -54.5t-10.5 -53.5 t-28.5 -42.5t-43 -28.5t-55 -10.5z" />
<glyph unicode="&#xf7;" horiz-adv-x="1049" d="M68 720h912v-187h-912v187zM373 1015q0 32 12 60.5t32.5 49.5t48.5 33t60 12q33 0 61 -12t48.5 -33t32.5 -49.5t12 -60.5q0 -33 -12 -61.5t-32.5 -49.5t-48.5 -33.5t-61 -12.5q-32 0 -60 12.5t-48.5 33.5t-32.5 49.5t-12 61.5zM373 230q0 32 12 60.5t32.5 49.5t48.5 33 t60 12q33 0 61 -12t48.5 -33t32.5 -49.5t12 -60.5q0 -33 -12 -61.5t-32.5 -49.5t-48.5 -33.5t-61 -12.5q-32 0 -60 12.5t-48.5 33.5t-32.5 49.5t-12 61.5z" />
<glyph unicode="&#xf8;" horiz-adv-x="1228" d="M60 -43l170 171q-64 71 -99.5 158t-35.5 181t41.5 180t111.5 152t163 105t196 39q90 0 164.5 -20.5t137.5 -62.5l144 144l105 -98l-138 -138q57 -67 89.5 -144.5t32.5 -160.5q0 -104 -39.5 -193.5t-109.5 -155.5t-166.5 -103.5t-210.5 -37.5q-81 0 -149.5 17t-123.5 49 l-184 -185zM351 530q0 -58 8.5 -117t26.5 -113q100 107 197 211t197 213q-45 62 -97 101.5t-112 39.5q-56 0 -97.5 -30.5t-68.5 -79t-40.5 -108t-13.5 -117.5zM881 383q0 48 -8 99t-25 99q-100 -108 -196.5 -211.5t-196.5 -211.5q41 -53 91 -85t110 -32q59 0 101.5 30.5 t70 79.5t40.5 110t13 122z" />
<glyph unicode="&#xf9;" horiz-adv-x="1200" d="M164 730q-3 29 -26.5 49.5t-50.5 26.5q-7 2 -15.5 2.5t-15.5 2t-11.5 5t-4.5 12.5q0 8 2.5 14t13.5 9l305 88q6 2 12.5 3t12.5 1q10 0 10 -17v-675q0 -34 15.5 -61.5t40.5 -46.5t57 -29t66 -10q24 0 50 8t50 20.5t45 29t34 34.5v535q-3 29 -26.5 49.5t-50.5 26.5 q-7 2 -15.5 2.5t-15.5 2t-11.5 5t-4.5 12.5q0 8 2.5 14t13.5 9l305 87q6 2 12.5 3t12.5 1q10 0 10 -9v-690q5 -44 25 -63t65 -19l58 4q4 0 5 -13.5t1 -19.5q0 -2 -2.5 -13t-12.5 -16l-304 -125q-2 -1 -10 -3.5t-9 -2.5q-7 0 -8.5 8.5t-1.5 16.5v96q-3 4 -10 4h-4t-2 -2 l-160 -78q-22 -8 -41 -15.5t-37.5 -14.5t-39.5 -11t-46 -4q-42 0 -92.5 8.5t-94 27t-72.5 47.5t-29 70v604v0zM717 1062q-5 -7 -13.5 -12.5t-14.5 -5.5q-11 0 -20 7l-269 217q-23 19 -42.5 46t-19.5 64q0 19 7 36t19.5 30t29 20.5t36.5 7.5q23 0 46 -13.5t45 -43.5l210 -291 q5 -7 6.5 -12.5t1.5 -12.5q0 -3 -1 -7t-5 -9z" />
<glyph unicode="&#xfa;" horiz-adv-x="1200" d="M164 730q-3 29 -26.5 49.5t-50.5 26.5q-7 2 -15.5 2.5t-15.5 2t-11.5 5t-4.5 12.5q0 8 2.5 14t13.5 9l305 88q6 2 12.5 3t12.5 1q10 0 10 -17v-675q0 -34 15.5 -61.5t40.5 -46.5t57 -29t66 -10q24 0 50 8t50 20.5t45 29t34 34.5v535q-3 29 -26.5 49.5t-50.5 26.5 q-7 2 -15.5 2.5t-15.5 2t-11.5 5t-4.5 12.5q0 8 2.5 14t13.5 9l305 87q6 2 12.5 3t12.5 1q10 0 10 -9v-690q5 -44 25 -63t65 -19l58 4q4 0 5 -13.5t1 -19.5q0 -2 -2.5 -13t-12.5 -16l-304 -125q-2 -1 -10 -3.5t-9 -2.5q-7 0 -8.5 8.5t-1.5 16.5v96q-3 4 -10 4h-4t-2 -2 l-160 -78q-22 -8 -41 -15.5t-37.5 -14.5t-39.5 -11t-46 -4q-42 0 -92.5 8.5t-94 27t-72.5 47.5t-29 70v604v0zM494 1084q-3 4 -5.5 8t-2.5 10t3 10t5 8l213 295q22 30 45 43.5t46 13.5q19 0 36 -7.5t29.5 -20.5t19.5 -30t7 -36q0 -37 -20 -64t-43 -46l-270 -218 q-6 -5 -8.5 -5.5t-9.5 -0.5q-9 0 -13.5 2.5t-9.5 8.5z" />
<glyph unicode="&#xfb;" horiz-adv-x="1200" d="M164 730q-3 29 -26.5 49.5t-50.5 26.5q-7 2 -15.5 2.5t-15.5 2t-11.5 5t-4.5 12.5q0 8 2.5 14t13.5 9l305 88q6 2 12.5 3t12.5 1q10 0 10 -17v-675q0 -34 15.5 -61.5t40.5 -46.5t57 -29t66 -10q24 0 50 8t50 20.5t45 29t34 34.5v535q-3 29 -26.5 49.5t-50.5 26.5 q-7 2 -15.5 2.5t-15.5 2t-11.5 5t-4.5 12.5q0 8 2.5 14t13.5 9l305 87q6 2 12.5 3t12.5 1q10 0 10 -9v-690q5 -44 25 -63t65 -19l58 4q4 0 5 -13.5t1 -19.5q0 -2 -2.5 -13t-12.5 -16l-304 -125q-2 -1 -10 -3.5t-9 -2.5q-7 0 -8.5 8.5t-1.5 16.5v96q-3 4 -10 4h-4t-2 -2 l-160 -78q-22 -8 -41 -15.5t-37.5 -14.5t-39.5 -11t-46 -4q-42 0 -92.5 8.5t-94 27t-72.5 47.5t-29 70v604v0zM594 1283l-220 -230q-5 -5 -12.5 -7.5t-11.5 -2.5q-5 0 -12.5 6.5t-15 15.5t-12.5 17.5t-5 12.5q0 9 2.5 14t8.5 13l245 330q5 8 14.5 14.5t18.5 6.5 q12 0 23 -9.5t19 -20.5l248 -322q11 -14 11 -26q0 -4 -5 -12.5t-12.5 -17.5t-15 -15.5t-12.5 -6.5t-11 2.5t-11 7.5z" />
<glyph unicode="&#xfc;" horiz-adv-x="1200" d="M164 730q-3 29 -26.5 49.5t-50.5 26.5q-7 2 -15.5 2.5t-15.5 2t-11.5 5t-4.5 12.5q0 8 2.5 14t13.5 9l305 88q6 2 12.5 3t12.5 1q10 0 10 -17v-675q0 -34 15.5 -61.5t40.5 -46.5t57 -29t66 -10q24 0 50 8t50 20.5t45 29t34 34.5v535q-3 29 -26.5 49.5t-50.5 26.5 q-7 2 -15.5 2.5t-15.5 2t-11.5 5t-4.5 12.5q0 8 2.5 14t13.5 9l305 87q6 2 12.5 3t12.5 1q10 0 10 -9v-690q5 -44 25 -63t65 -19l58 4q4 0 5 -13.5t1 -19.5q0 -2 -2.5 -13t-12.5 -16l-304 -125q-2 -1 -10 -3.5t-9 -2.5q-7 0 -8.5 8.5t-1.5 16.5v96q-3 4 -10 4h-4t-2 -2 l-160 -78q-22 -8 -41 -15.5t-37.5 -14.5t-39.5 -11t-46 -4q-42 0 -92.5 8.5t-94 27t-72.5 47.5t-29 70v604v0zM358 1092q-29 0 -54 10.5t-43.5 28.5t-29 42.5t-10.5 53.5t10.5 54.5t29 44t43.5 29.5t54 11t54 -11t43.5 -29.5t29 -44t10.5 -54.5t-10.5 -53.5t-29 -42.5 t-43.5 -28.5t-54 -10.5zM797 1092q-29 0 -53.5 10.5t-43.5 28.5t-29.5 42.5t-10.5 53.5t10.5 54.5t29.5 44t43.5 29.5t53.5 11q30 0 55 -11t43 -29.5t28.5 -44t10.5 -54.5t-10.5 -53.5t-28.5 -42.5t-43 -28.5t-55 -10.5z" />
<glyph unicode="&#xfd;" horiz-adv-x="1165" d="M331 -620q-18 0 -35 6t-31 17t-22.5 25.5t-8.5 32.5q0 28 14.5 43t35.5 25t44 17t39 19q11 8 23.5 18.5t22.5 33.5l131 305l-383 799q-17 46 -49 80.5t-78 49.5q-7 2 -17 4.5t-19.5 6.5t-16 10.5t-6.5 17.5q0 10 6 20t18 10h528q6 0 7 -12t1 -15q0 -14 -11.5 -19.5 t-28.5 -7.5t-36.5 -3t-36.5 -7t-28.5 -19t-11.5 -39q0 -3 4.5 -12.5t4.5 -11.5l248 -531q2 -5 7.5 -14.5t12.5 -9.5q4 0 8 4.5t7 10.5t5 11.5t3 7.5q46 118 77.5 200t52 136t31 84.5t15 47t5.5 24t1 14.5q2 35 -21 58t-55 34q-9 3 -22.5 4.5t-26 5t-22 11t-9.5 21.5 q0 8 7 17.5t15 9.5h399q8 0 9.5 -11.5t1.5 -16.5q0 -7 -2 -12t-9.5 -9t-21 -8t-35.5 -8q-21 -4 -38 -20.5t-30.5 -38t-24 -45.5t-18.5 -43l-507 -1256q-8 -19 -23 -32.5t-33 -22.5t-36 -13t-31 -4zM539 1084q-3 4 -5.5 8t-2.5 10t3 10t5 8l213 295q22 30 45 43.5t46 13.5 q19 0 36 -7.5t29.5 -20.5t19.5 -30t7 -36q0 -37 -20 -64t-43 -46l-270 -218q-6 -5 -8.5 -5.5t-9.5 -0.5q-9 0 -13.5 2.5t-9.5 8.5z" />
<glyph unicode="&#xfe;" horiz-adv-x="1166" d="M367 1639q4 2 8.5 4t6.5 2q17 0 17 -24v-773q0 -5 4.5 -8t7.5 -3q11 0 18 7q40 25 75 41t68 25t67 12.5t73 3.5q78 0 141.5 -40.5t108.5 -106t69.5 -147.5t24.5 -165q0 -87 -22 -154t-60 -119.5t-90 -94t-113 -75.5q-42 -23 -90 -37t-98 -14q-22 0 -41 1.5t-37.5 4.5 t-39 7t-45.5 10q-17 0 -18.5 -12t-2.5 -25v-407q0 -29 12.5 -48.5t32 -32t43 -19t45.5 -10.5t40 -6.5t27 -6.5q10 -4 10 -13q0 -14 -10 -16h-577q-10 2 -10 16q0 9 10 13q13 6 37 9.5t48 14t42 33t18 66.5v1811q0 24 -13 37.5t-33 20.5t-43 11.5t-44 10.5q-6 2 -9.5 5.5 t-3.5 14.5q0 5 3 10t12 10zM575 822q-27 0 -46.5 -3.5t-37.5 -11.5t-36 -20t-41 -29q-2 -1 -4.5 -3.5l-4.5 -4.5l-6 -6v-543q0 -3 1 -16.5t3 -24.5q3 -21 26 -38.5t53 -30t60 -19t48 -6.5q66 0 111 24t73 64.5t40 94.5t12 115q0 47 -5 99t-16 103t-30 97.5t-47 81.5t-66 56 t-87 21z" />
<glyph unicode="&#xff;" horiz-adv-x="1165" d="M331 -620q-18 0 -35 6t-31 17t-22.5 25.5t-8.5 32.5q0 28 14.5 43t35.5 25t44 17t39 19q11 8 23.5 18.5t22.5 33.5l131 305l-383 799q-17 46 -49 80.5t-78 49.5q-7 2 -17 4.5t-19.5 6.5t-16 10.5t-6.5 17.5q0 10 6 20t18 10h528q6 0 7 -12t1 -15q0 -14 -11.5 -19.5 t-28.5 -7.5t-36.5 -3t-36.5 -7t-28.5 -19t-11.5 -39q0 -3 4.5 -12.5t4.5 -11.5l248 -531q2 -5 7.5 -14.5t12.5 -9.5q4 0 8 4.5t7 10.5t5 11.5t3 7.5q46 118 77.5 200t52 136t31 84.5t15 47t5.5 24t1 14.5q2 35 -21 58t-55 34q-9 3 -22.5 4.5t-26 5t-22 11t-9.5 21.5 q0 8 7 17.5t15 9.5h399q8 0 9.5 -11.5t1.5 -16.5q0 -7 -2 -12t-9.5 -9t-21 -8t-35.5 -8q-21 -4 -38 -20.5t-30.5 -38t-24 -45.5t-18.5 -43l-507 -1256q-8 -19 -23 -32.5t-33 -22.5t-36 -13t-31 -4zM353 1092q-29 0 -54 10.5t-43.5 28.5t-29 42.5t-10.5 53.5t10.5 54.5t29 44 t43.5 29.5t54 11t54 -11t43.5 -29.5t29 -44t10.5 -54.5t-10.5 -53.5t-29 -42.5t-43.5 -28.5t-54 -10.5zM792 1092q-29 0 -53.5 10.5t-43.5 28.5t-29.5 42.5t-10.5 53.5t10.5 54.5t29.5 44t43.5 29.5t53.5 11q30 0 55 -11t43 -29.5t28.5 -44t10.5 -54.5t-10.5 -53.5 t-28.5 -42.5t-43 -28.5t-55 -10.5z" />
<glyph unicode="&#x100;" horiz-adv-x="1541" d="M5 47q0 8 8 8q19 1 44.5 5.5t52 19t51.5 43t42 78.5l402 1166q0 -1 0.5 1t0.5 4q0 7 -5.5 17.5t-5.5 15.5t4 5h290q2 -1 5.5 -2t5.5 -6l423 -1187q10 -28 19 -48t21.5 -35.5t31.5 -28t49 -25.5q14 -7 38 -15t46 -8q5 0 6.5 -3t1.5 -6v-38q0 -2 -1.5 -5t-6.5 -3h-702 q-5 0 -6.5 3t-1.5 5v39q0 2 1.5 5t6.5 3q4 0 8 0.5t6 0.5q11 1 31.5 2t44.5 3.5t48.5 8t44.5 16t33 27.5t13 42q0 6 -2 14l-131 361q-1 2 -3.5 9t-8 14.5t-14 13.5t-20.5 6h-361q-13 0 -22 -6t-15 -13t-9.5 -14t-3.5 -8q-32 -94 -54 -158.5t-36.5 -106.5t-22.5 -65 t-11.5 -33.5t-4 -13l-0.5 -2.5q0 -3 1 -6.5t2 -6.5q8 -25 29.5 -41.5t49.5 -26t57.5 -13.5t52.5 -4h26q5 0 6.5 -3t1.5 -5v-39q0 -2 -1.5 -5t-6.5 -3h-541q-8 0 -8 8v39zM529 717q-2 -5 -3 -10t-1 -10q0 -6 3 -9.5t12 -3.5h300q11 0 14.5 4.5t3.5 10.5q0 5 -1 9t-3 9 l-133 365q-5 14 -15 20.5t-18 6.5t-18 -7.5t-15 -20.5zM415 1884h687v-169h-687v169z" />
<glyph unicode="&#x101;" horiz-adv-x="1017" d="M487 20q-33 -23 -78 -36t-90 -13q-122 0 -185.5 55t-63.5 149q0 54 24.5 93t72.5 69t118.5 54.5t163.5 48.5q50 13 80.5 28t56.5 29q17 9 19.5 16t2.5 13v174q0 33 -9.5 61.5t-28.5 49.5t-46 33t-61 12q-29 0 -54 -10t-43 -29t-28.5 -45t-10.5 -59q0 -3 0.5 -9t1.5 -12.5 t2 -11.5t1 -6q-1 -2 -16.5 -8t-38 -13.5t-49.5 -15t-51.5 -14.5t-43 -12.5t-25.5 -6.5q-11 0 -13.5 11.5t-2.5 22.5q0 58 35 113t93.5 97.5t134.5 68.5t157 26q72 0 129 -18.5t97 -51t61 -75t21 -90.5v-477q0 -26 19.5 -46.5t50.5 -20.5q18 0 32.5 6.5t26 15t19.5 15t14 6.5 q8 0 9 -6.5t1 -11.5q0 -17 -4.5 -34.5t-15.5 -25.5q-49 -37 -87 -66.5t-69 -50.5t-56 -32t-47 -11q-20 0 -35.5 11t-27 27t-19.5 34.5t-13.5 34.5t-8.5 26t-5 9zM303 199q0 -27 10.5 -44t27.5 -26t38.5 -12.5t44.5 -3.5q21 0 52 10.5t60.5 28t50.5 40t21 45.5v165 q0 11 -8 11q-2 0 -4 -1l-232 -108q-14 -10 -25.5 -18.5t-19.5 -20t-12 -27t-4 -39.5zM156 1342h687v-169h-687v169z" />
<glyph unicode="&#x102;" horiz-adv-x="1541" d="M5 47q0 8 8 8q19 1 44.5 5.5t52 19t51.5 43t42 78.5l402 1166q0 -1 0.5 1t0.5 4q0 7 -5.5 17.5t-5.5 15.5t4 5h290q2 -1 5.5 -2t5.5 -6l423 -1187q10 -28 19 -48t21.5 -35.5t31.5 -28t49 -25.5q14 -7 38 -15t46 -8q5 0 6.5 -3t1.5 -6v-38q0 -2 -1.5 -5t-6.5 -3h-702 q-5 0 -6.5 3t-1.5 5v39q0 2 1.5 5t6.5 3q4 0 8 0.5t6 0.5q11 1 31.5 2t44.5 3.5t48.5 8t44.5 16t33 27.5t13 42q0 6 -2 14l-131 361q-1 2 -3.5 9t-8 14.5t-14 13.5t-20.5 6h-361q-13 0 -22 -6t-15 -13t-9.5 -14t-3.5 -8q-32 -94 -54 -158.5t-36.5 -106.5t-22.5 -65 t-11.5 -33.5t-4 -13l-0.5 -2.5q0 -3 1 -6.5t2 -6.5q8 -25 29.5 -41.5t49.5 -26t57.5 -13.5t52.5 -4h26q5 0 6.5 -3t1.5 -5v-39q0 -2 -1.5 -5t-6.5 -3h-541q-8 0 -8 8v39zM529 717q-2 -5 -3 -10t-1 -10q0 -6 3 -9.5t12 -3.5h300q11 0 14.5 4.5t3.5 10.5q0 5 -1 9t-3 9 l-133 365q-5 14 -15 20.5t-18 6.5t-18 -7.5t-15 -20.5zM730 1618q-62 0 -115.5 29.5t-92.5 78t-61.5 112t-22.5 132.5h51q0 -45 22 -80.5t56.5 -60.5t77.5 -38.5t85 -13.5t84 19t76 47.5t55 62.5t21 64h53q0 -63 -23 -126t-63 -113t-92.5 -81.5t-110.5 -31.5z" />
<glyph unicode="&#x103;" horiz-adv-x="1017" d="M487 20q-33 -23 -78 -36t-90 -13q-122 0 -185.5 55t-63.5 149q0 54 24.5 93t72.5 69t118.5 54.5t163.5 48.5q50 13 80.5 28t56.5 29q17 9 19.5 16t2.5 13v174q0 33 -9.5 61.5t-28.5 49.5t-46 33t-61 12q-29 0 -54 -10t-43 -29t-28.5 -45t-10.5 -59q0 -3 0.5 -9t1.5 -12.5 t2 -11.5t1 -6q-1 -2 -16.5 -8t-38 -13.5t-49.5 -15t-51.5 -14.5t-43 -12.5t-25.5 -6.5q-11 0 -13.5 11.5t-2.5 22.5q0 58 35 113t93.5 97.5t134.5 68.5t157 26q72 0 129 -18.5t97 -51t61 -75t21 -90.5v-477q0 -26 19.5 -46.5t50.5 -20.5q18 0 32.5 6.5t26 15t19.5 15t14 6.5 q8 0 9 -6.5t1 -11.5q0 -17 -4.5 -34.5t-15.5 -25.5q-49 -37 -87 -66.5t-69 -50.5t-56 -32t-47 -11q-20 0 -35.5 11t-27 27t-19.5 34.5t-13.5 34.5t-8.5 26t-5 9zM303 199q0 -27 10.5 -44t27.5 -26t38.5 -12.5t44.5 -3.5q21 0 52 10.5t60.5 28t50.5 40t21 45.5v165 q0 11 -8 11q-2 0 -4 -1l-232 -108q-14 -10 -25.5 -18.5t-19.5 -20t-12 -27t-4 -39.5zM500 1076q-62 0 -115.5 29.5t-92.5 78t-61.5 112t-22.5 132.5h51q0 -45 22 -80.5t56.5 -60.5t77.5 -38.5t85 -13.5t84 19t76 47.5t55 62.5t21 64h53q0 -63 -23 -126t-63 -113t-92.5 -81.5 t-110.5 -31.5z" />
<glyph unicode="&#x104;" horiz-adv-x="1541" d="M5 47q0 8 8 8q19 1 44.5 5.5t52 19t51.5 43t42 78.5l402 1166q0 -1 0.5 1t0.5 4q0 7 -5.5 17.5t-5.5 15.5t4 5h290q2 -1 5.5 -2t5.5 -6l423 -1187q10 -28 19 -48t21.5 -35.5t31.5 -28t49 -25.5q14 -7 38 -15t46 -8q5 0 6.5 -3t1.5 -6v-38q0 -2 -1.5 -5t-6.5 -3h-702 q-5 0 -6.5 3t-1.5 5v39q0 2 1.5 5t6.5 3q4 0 8 0.5t6 0.5q11 1 31.5 2t44.5 3.5t48.5 8t44.5 16t33 27.5t13 42q0 6 -2 14l-131 361q-1 2 -3.5 9t-8 14.5t-14 13.5t-20.5 6h-361q-13 0 -22 -6t-15 -13t-9.5 -14t-3.5 -8q-32 -94 -54 -158.5t-36.5 -106.5t-22.5 -65 t-11.5 -33.5t-4 -13l-0.5 -2.5q0 -3 1 -6.5t2 -6.5q8 -25 29.5 -41.5t49.5 -26t57.5 -13.5t52.5 -4h26q5 0 6.5 -3t1.5 -5v-39q0 -2 -1.5 -5t-6.5 -3h-541q-8 0 -8 8v39zM529 717q-2 -5 -3 -10t-1 -10q0 -6 3 -9.5t12 -3.5h300q11 0 14.5 4.5t3.5 10.5q0 5 -1 9t-3 9 l-133 365q-5 14 -15 20.5t-18 6.5t-18 -7.5t-15 -20.5zM1340 0q-2 -1 -13 -15.5t-25 -33t-27 -36t-17 -24.5q-22 -37 -34.5 -67.5t-19 -55t-8 -44t-1.5 -33.5q0 -134 131 -134q11 0 27 2t33 2q14 0 23 -10.5t9 -23.5q0 -20 -12.5 -31.5t-32 -17.5t-42.5 -8t-44 -2 q-42 0 -89 8t-86.5 29t-65.5 58t-26 95q0 48 18.5 97.5t48 95t66.5 84t75 65.5h112z" />
<glyph unicode="&#x105;" horiz-adv-x="1017" d="M487 20q-33 -23 -78 -36t-90 -13q-122 0 -185.5 55t-63.5 149q0 54 24.5 93t72.5 69t118.5 54.5t163.5 48.5q50 13 80.5 28t56.5 29q17 9 19.5 16t2.5 13v174q0 33 -9.5 61.5t-28.5 49.5t-46 33t-61 12q-29 0 -54 -10t-43 -29t-28.5 -45t-10.5 -59q0 -3 0.5 -9t1.5 -12.5 t2 -11.5t1 -6q-1 -2 -16.5 -8t-38 -13.5t-49.5 -15t-51.5 -14.5t-43 -12.5t-25.5 -6.5q-11 0 -13.5 11.5t-2.5 22.5q0 58 35 113t93.5 97.5t134.5 68.5t157 26q72 0 129 -18.5t97 -51t61 -75t21 -90.5v-477q0 -26 19.5 -46.5t50.5 -20.5q18 0 32.5 6.5t26 15t19.5 15t14 6.5 q8 0 9 -6.5t1 -11.5q0 -17 -4.5 -34.5t-15.5 -25.5q-49 -37 -87 -66.5t-69 -50.5t-56 -32t-47 -11q-20 0 -35.5 11t-27 27t-19.5 34.5t-13.5 34.5t-8.5 26t-5 9zM303 199q0 -27 10.5 -44t27.5 -26t38.5 -12.5t44.5 -3.5q21 0 52 10.5t60.5 28t50.5 40t21 45.5v165 q0 11 -8 11q-2 0 -4 -1l-232 -108q-14 -10 -25.5 -18.5t-19.5 -20t-12 -27t-4 -39.5zM787 0q-2 -1 -13 -15.5t-25 -33t-27 -36t-17 -24.5q-22 -37 -34.5 -67.5t-19 -55t-8 -44t-1.5 -33.5q0 -134 131 -134q11 0 27 2t33 2q14 0 23 -10.5t9 -23.5q0 -20 -12.5 -31.5 t-32 -17.5t-42.5 -8t-44 -2q-42 0 -89 8t-86.5 29t-65.5 58t-26 95q0 48 18.5 97.5t48 95t66.5 84t75 65.5h112z" />
<glyph unicode="&#x106;" horiz-adv-x="1589" d="M105 696q0 112 28 211.5t79 183.5t123 151t159.5 113.5t187.5 71.5t209 25q92 0 177.5 -16.5t176.5 -38.5q15 -4 31.5 -10t31 -11.5t26.5 -9.5t18 -4q2 0 13.5 4t16.5 4h46q12 0 12 -17v-326q0 -6 -4.5 -8t-19.5 -2q-3 0 -15.5 0.5t-15.5 5.5q-2 3 -7.5 12t-12 18.5 t-12 18t-6.5 11.5q-38 75 -83 126.5t-99.5 83.5t-118.5 46.5t-139 14.5q-95 0 -168.5 -22t-128.5 -62t-92.5 -96t-61 -122.5t-34 -142t-10.5 -155.5q0 -85 12 -168.5t39 -159t69.5 -140t102.5 -112t140 -74.5t181 -27q85 0 158.5 25.5t134.5 69t108.5 100t81.5 118.5 q2 5 4.5 5.5t7.5 0.5h51q3 0 6.5 -2.5t3.5 -10.5q0 -3 -4.5 -15.5t-9.5 -21.5l-138 -304q-2 -3 -6 -5t-7 -2q-24 0 -33.5 4t-19.5 4q-30 0 -79.5 -10.5t-107 -22.5t-116 -22.5t-104.5 -10.5q-105 0 -204 23t-186 66.5t-159 107t-124 143.5t-80.5 176.5t-28.5 206.5z M746 1582q-3 4 -5.5 8t-2.5 10t3 10t5 8l213 295q22 30 45 43.5t46 13.5q19 0 36 -7.5t29.5 -20.5t19.5 -30t7 -36q0 -37 -20 -64t-43 -46l-270 -218q-6 -5 -8.5 -5.5t-9.5 -0.5q-9 0 -13.5 2.5t-9.5 8.5z" />
<glyph unicode="&#x107;" horiz-adv-x="988" d="M90 423q1 145 44 244.5t115 160.5t167.5 88t200.5 27q22 0 52.5 -1.5t63 -6t64 -13.5t57 -24.5t41 -38t15.5 -54.5q0 -24 -9 -38.5t-25 -23t-37 -11.5t-45 -3q-28 0 -47.5 9.5t-35.5 23t-30 30t-30.5 30t-37.5 23t-51 9.5q-70 0 -115 -35.5t-70.5 -90t-35 -119.5 t-9.5 -124q0 -80 15 -147.5t48.5 -116.5t87 -76.5t129.5 -27.5q28 0 55.5 9t53 24.5t48 35.5t41.5 43q10 12 19.5 20t29.5 8q24 0 41.5 -12.5t17.5 -26.5q0 -4 -1.5 -10.5t-10.5 -18.5q-38 -48 -82 -88t-94 -68t-107.5 -43.5t-122.5 -15.5q-86 0 -160.5 38.5t-130 102 t-87.5 144t-32 164.5zM435 1084q-3 4 -5.5 8t-2.5 10t3 10t5 8l213 295q22 30 45 43.5t46 13.5q19 0 36 -7.5t29.5 -20.5t19.5 -30t7 -36q0 -37 -20 -64t-43 -46l-270 -218q-6 -5 -8.5 -5.5t-9.5 -0.5q-9 0 -13.5 2.5t-9.5 8.5z" />
<glyph unicode="&#x108;" horiz-adv-x="1589" d="M105 696q0 112 28 211.5t79 183.5t123 151t159.5 113.5t187.5 71.5t209 25q92 0 177.5 -16.5t176.5 -38.5q15 -4 31.5 -10t31 -11.5t26.5 -9.5t18 -4q2 0 13.5 4t16.5 4h46q12 0 12 -17v-326q0 -6 -4.5 -8t-19.5 -2q-3 0 -15.5 0.5t-15.5 5.5q-2 3 -7.5 12t-12 18.5 t-12 18t-6.5 11.5q-38 75 -83 126.5t-99.5 83.5t-118.5 46.5t-139 14.5q-95 0 -168.5 -22t-128.5 -62t-92.5 -96t-61 -122.5t-34 -142t-10.5 -155.5q0 -85 12 -168.5t39 -159t69.5 -140t102.5 -112t140 -74.5t181 -27q85 0 158.5 25.5t134.5 69t108.5 100t81.5 118.5 q2 5 4.5 5.5t7.5 0.5h51q3 0 6.5 -2.5t3.5 -10.5q0 -3 -4.5 -15.5t-9.5 -21.5l-138 -304q-2 -3 -6 -5t-7 -2q-24 0 -33.5 4t-19.5 4q-30 0 -79.5 -10.5t-107 -22.5t-116 -22.5t-104.5 -10.5q-105 0 -204 23t-186 66.5t-159 107t-124 143.5t-80.5 176.5t-28.5 206.5z M885 1780l-220 -230q-5 -5 -12.5 -7.5t-11.5 -2.5q-5 0 -12.5 6.5t-15 15.5t-12.5 17.5t-5 12.5q0 9 2.5 14t8.5 13l245 330q5 8 14.5 14.5t18.5 6.5q12 0 23 -9.5t19 -20.5l248 -322q11 -14 11 -26q0 -4 -5 -12.5t-12.5 -17.5t-15 -15.5t-12.5 -6.5t-11 2.5t-11 7.5z" />
<glyph unicode="&#x109;" horiz-adv-x="988" d="M90 423q1 145 44 244.5t115 160.5t167.5 88t200.5 27q22 0 52.5 -1.5t63 -6t64 -13.5t57 -24.5t41 -38t15.5 -54.5q0 -24 -9 -38.5t-25 -23t-37 -11.5t-45 -3q-28 0 -47.5 9.5t-35.5 23t-30 30t-30.5 30t-37.5 23t-51 9.5q-70 0 -115 -35.5t-70.5 -90t-35 -119.5 t-9.5 -124q0 -80 15 -147.5t48.5 -116.5t87 -76.5t129.5 -27.5q28 0 55.5 9t53 24.5t48 35.5t41.5 43q10 12 19.5 20t29.5 8q24 0 41.5 -12.5t17.5 -26.5q0 -4 -1.5 -10.5t-10.5 -18.5q-38 -48 -82 -88t-94 -68t-107.5 -43.5t-122.5 -15.5q-86 0 -160.5 38.5t-130 102 t-87.5 144t-32 164.5zM554 1283l-220 -230q-5 -5 -12.5 -7.5t-11.5 -2.5q-5 0 -12.5 6.5t-15 15.5t-12.5 17.5t-5 12.5q0 9 2.5 14t8.5 13l245 330q5 8 14.5 14.5t18.5 6.5q12 0 23 -9.5t19 -20.5l248 -322q11 -14 11 -26q0 -4 -5 -12.5t-12.5 -17.5t-15 -15.5t-12.5 -6.5 t-11 2.5t-11 7.5z" />
<glyph unicode="&#x10a;" horiz-adv-x="1589" d="M105 696q0 112 28 211.5t79 183.5t123 151t159.5 113.5t187.5 71.5t209 25q92 0 177.5 -16.5t176.5 -38.5q15 -4 31.5 -10t31 -11.5t26.5 -9.5t18 -4q2 0 13.5 4t16.5 4h46q12 0 12 -17v-326q0 -6 -4.5 -8t-19.5 -2q-3 0 -15.5 0.5t-15.5 5.5q-2 3 -7.5 12t-12 18.5 t-12 18t-6.5 11.5q-38 75 -83 126.5t-99.5 83.5t-118.5 46.5t-139 14.5q-95 0 -168.5 -22t-128.5 -62t-92.5 -96t-61 -122.5t-34 -142t-10.5 -155.5q0 -85 12 -168.5t39 -159t69.5 -140t102.5 -112t140 -74.5t181 -27q85 0 158.5 25.5t134.5 69t108.5 100t81.5 118.5 q2 5 4.5 5.5t7.5 0.5h51q3 0 6.5 -2.5t3.5 -10.5q0 -3 -4.5 -15.5t-9.5 -21.5l-138 -304q-2 -3 -6 -5t-7 -2q-24 0 -33.5 4t-19.5 4q-30 0 -79.5 -10.5t-107 -22.5t-116 -22.5t-104.5 -10.5q-105 0 -204 23t-186 66.5t-159 107t-124 143.5t-80.5 176.5t-28.5 206.5z M713 1800q0 28 10.5 53t29.5 44t43.5 29.5t53.5 10.5q28 0 53 -10.5t44 -29.5t29.5 -44t10.5 -53q0 -29 -10.5 -53.5t-29.5 -43.5t-44 -29.5t-53 -10.5q-29 0 -53.5 10.5t-43.5 29.5t-29.5 43.5t-10.5 53.5z" />
<glyph unicode="&#x10b;" horiz-adv-x="988" d="M90 423q1 145 44 244.5t115 160.5t167.5 88t200.5 27q22 0 52.5 -1.5t63 -6t64 -13.5t57 -24.5t41 -38t15.5 -54.5q0 -24 -9 -38.5t-25 -23t-37 -11.5t-45 -3q-28 0 -47.5 9.5t-35.5 23t-30 30t-30.5 30t-37.5 23t-51 9.5q-70 0 -115 -35.5t-70.5 -90t-35 -119.5 t-9.5 -124q0 -80 15 -147.5t48.5 -116.5t87 -76.5t129.5 -27.5q28 0 55.5 9t53 24.5t48 35.5t41.5 43q10 12 19.5 20t29.5 8q24 0 41.5 -12.5t17.5 -26.5q0 -4 -1.5 -10.5t-10.5 -18.5q-38 -48 -82 -88t-94 -68t-107.5 -43.5t-122.5 -15.5q-86 0 -160.5 38.5t-130 102 t-87.5 144t-32 164.5zM392 1229q0 28 10.5 53t29.5 44t43.5 29.5t53.5 10.5q28 0 53 -10.5t44 -29.5t29.5 -44t10.5 -53q0 -29 -10.5 -53.5t-29.5 -43.5t-44 -29.5t-53 -10.5q-29 0 -53.5 10.5t-43.5 29.5t-29.5 43.5t-10.5 53.5z" />
<glyph unicode="&#x10c;" horiz-adv-x="1589" d="M105 696q0 112 28 211.5t79 183.5t123 151t159.5 113.5t187.5 71.5t209 25q92 0 177.5 -16.5t176.5 -38.5q15 -4 31.5 -10t31 -11.5t26.5 -9.5t18 -4q2 0 13.5 4t16.5 4h46q12 0 12 -17v-326q0 -6 -4.5 -8t-19.5 -2q-3 0 -15.5 0.5t-15.5 5.5q-2 3 -7.5 12t-12 18.5 t-12 18t-6.5 11.5q-38 75 -83 126.5t-99.5 83.5t-118.5 46.5t-139 14.5q-95 0 -168.5 -22t-128.5 -62t-92.5 -96t-61 -122.5t-34 -142t-10.5 -155.5q0 -85 12 -168.5t39 -159t69.5 -140t102.5 -112t140 -74.5t181 -27q85 0 158.5 25.5t134.5 69t108.5 100t81.5 118.5 q2 5 4.5 5.5t7.5 0.5h51q3 0 6.5 -2.5t3.5 -10.5q0 -3 -4.5 -15.5t-9.5 -21.5l-138 -304q-2 -3 -6 -5t-7 -2q-24 0 -33.5 4t-19.5 4q-30 0 -79.5 -10.5t-107 -22.5t-116 -22.5t-104.5 -10.5q-105 0 -204 23t-186 66.5t-159 107t-124 143.5t-80.5 176.5t-28.5 206.5z M1099 1960q5 5 11 7.5t11 2.5t12.5 -6.5t15 -15.5t12.5 -17.5t5 -12.5q0 -12 -11 -26l-248 -322q-8 -11 -19 -20.5t-23 -9.5q-9 0 -18.5 6.5t-14.5 14.5l-245 330q-6 8 -8.5 13t-2.5 14q0 4 5 12.5t12.5 17.5t15 15.5t12.5 6.5q4 0 11.5 -2.5t12.5 -7.5l220 -230z" />
<glyph unicode="&#x10d;" horiz-adv-x="988" d="M90 423q1 145 44 244.5t115 160.5t167.5 88t200.5 27q22 0 52.5 -1.5t63 -6t64 -13.5t57 -24.5t41 -38t15.5 -54.5q0 -24 -9 -38.5t-25 -23t-37 -11.5t-45 -3q-28 0 -47.5 9.5t-35.5 23t-30 30t-30.5 30t-37.5 23t-51 9.5q-70 0 -115 -35.5t-70.5 -90t-35 -119.5 t-9.5 -124q0 -80 15 -147.5t48.5 -116.5t87 -76.5t129.5 -27.5q28 0 55.5 9t53 24.5t48 35.5t41.5 43q10 12 19.5 20t29.5 8q24 0 41.5 -12.5t17.5 -26.5q0 -4 -1.5 -10.5t-10.5 -18.5q-38 -48 -82 -88t-94 -68t-107.5 -43.5t-122.5 -15.5q-86 0 -160.5 38.5t-130 102 t-87.5 144t-32 164.5zM761 1463q5 5 11 7.5t11 2.5t12.5 -6.5t15 -15.5t12.5 -17.5t5 -12.5q0 -12 -11 -26l-248 -322q-8 -11 -19 -20.5t-23 -9.5q-9 0 -18.5 6.5t-14.5 14.5l-245 330q-6 8 -8.5 13t-2.5 14q0 4 5 12.5t12.5 17.5t15 15.5t12.5 6.5q4 0 11.5 -2.5t12.5 -7.5 l220 -230z" />
<glyph unicode="&#x10e;" horiz-adv-x="1754" d="M53 0q-6 0 -7 3.5t-1 4.5v43q0 1 1 4.5t7 3.5h22q21 0 52 2.5t60 14t49.5 35t20.5 64.5v1066q0 31 -13.5 52.5t-34 35t-45.5 19.5t-47 6h-64q-6 0 -7 3.5t-1 4.5v43q0 1 1 4.5t7 3.5h22l411 7q58 1 125.5 1.5t125.5 0.5q63 0 113 -1.5t96 -6t93 -11.5t105 -19 q111 -23 206.5 -85t165 -150t109 -195t39.5 -219q0 -108 -30 -204.5t-83.5 -178t-127 -147t-161.5 -111t-187 -70t-203 -24.5h-790h-29zM542 155q0 -29 18.5 -45t49 -23.5t71.5 -8.5t86 -1q297 0 445.5 164t148.5 478q0 138 -33.5 253t-102 198t-172 129t-244.5 46h-242 q-15 0 -20 -6.5t-5 -20.5v-1158v-5zM1059 1960q5 5 11 7.5t11 2.5t12.5 -6.5t15 -15.5t12.5 -17.5t5 -12.5q0 -12 -11 -26l-248 -322q-8 -11 -19 -20.5t-23 -9.5q-9 0 -18.5 6.5t-14.5 14.5l-245 330q-6 8 -8.5 13t-2.5 14q0 4 5 12.5t12.5 17.5t15 15.5t12.5 6.5 q4 0 11.5 -2.5t12.5 -7.5l220 -230z" />
<glyph unicode="&#x10f;" horiz-adv-x="1477" d="M960 1639q4 2 8.5 4t6.5 2q17 0 17 -24v-1392q0 -44 22.5 -63t67.5 -19l58 4q4 0 5 -5.5t1 -11.5q0 -2 -2.5 -5.5t-12.5 -7.5l-342 -142q-2 -1 -10 -3.5t-9 -2.5q-7 0 -8.5 8.5t-1.5 16.5v69q0 10 -7 10q-3 0 -9 -3q-35 -20 -66 -38.5t-62.5 -32.5t-66 -22t-76.5 -8 q-90 0 -162 37t-122 99t-77 142t-27 167q0 105 41.5 195t111 156t161.5 103.5t193 37.5q27 0 47 -5t37 -10.5t34 -10.5t38 -5q3 0 7.5 2t4.5 11v471q0 24 -13 37.5t-33 20.5t-43 11.5t-44 10.5q-6 2 -9.5 5.5t-3.5 14.5q0 5 3 10t12 10zM312 463q0 -72 16.5 -138.5t51 -117 t87.5 -80.5t125 -30q11 0 39 6t56.5 15.5t50.5 22.5t22 28v497q0 69 -49.5 112t-141.5 43q-67 0 -115.5 -31.5t-80 -82.5t-46.5 -115t-15 -129zM1206 1057q-20 0 -25 13t-5 24q1 13 8.5 24t18.5 20t22.5 17.5t20.5 16.5q14 14 29 31t27 36t20 39t8 40q0 8 -2.5 17t-19.5 9 q-32 0 -65.5 10t-61.5 30t-45.5 49.5t-17.5 68.5q0 38 12 67.5t34 49.5t51.5 30.5t65.5 10.5q62 0 100.5 -23.5t59.5 -57t28 -70t7 -63.5q0 -54 -17 -106t-44.5 -98t-63.5 -85t-74 -67q-15 -11 -34.5 -22t-36.5 -11z" />
<glyph unicode="&#x111;" horiz-adv-x="1166" d="M960 1639q4 2 8.5 4t6.5 2q17 0 17 -24v-371h121q25 0 25 -25v-76q0 -25 -25 -25h-121v-895q0 -44 22.5 -63t67.5 -19l58 4q4 0 5 -5.5t1 -11.5q0 -2 -2.5 -5.5t-12.5 -7.5l-342 -142q-2 -1 -10 -3.5t-9 -2.5q-7 0 -8.5 8.5t-1.5 16.5v69q0 10 -7 10q-3 0 -9 -3 q-35 -20 -66 -38.5t-62.5 -32.5t-66 -22t-76.5 -8q-90 0 -162 37t-122 99t-77 142t-27 167q0 105 41.5 195t111 156t161.5 103.5t193 37.5q27 0 47 -5t37 -10.5t34 -10.5t38 -5q3 0 7.5 2t4.5 11v232h-298q-25 0 -25 25v76q0 25 25 25h298v113q0 24 -13 37.5t-33 20.5 t-43 11.5t-44 10.5q-6 2 -9.5 5.5t-3.5 14.5q0 5 3 10t12 10zM312 463q0 -72 16.5 -138.5t51 -117t87.5 -80.5t125 -30q11 0 39 6t56.5 15.5t50.5 22.5t22 28v497q0 69 -49.5 112t-141.5 43q-67 0 -115.5 -31.5t-80 -82.5t-46.5 -115t-15 -129z" />
<glyph unicode="&#x112;" horiz-adv-x="1309" d="M7 51q0 1 1 4.5t7 3.5h22q42 3 86 3.5t80 11t59 37t23 82.5v1024q0 39 -16 63.5t-42 39.5t-59 22.5t-67 12.5h-21q-5 0 -6.5 3t-1.5 5v39q0 2 1.5 5t6.5 3h996q18 0 26 -6.5t10 -28.5l18 -320q0 -5 -8.5 -7.5t-15.5 -2.5q-8 0 -16 2t-11 6q-7 10 -10 29.5t-6.5 43.5 t-10 50t-19.5 48t-35.5 38.5t-57.5 22.5h-357q-13 0 -13 -13v-477q0 -10 10 -10h286q25 0 49.5 6.5t43 23.5t30 47.5t11.5 78.5q0 8 8 8h39q8 0 8 -8v-458q0 -5 -3 -6.5t-5 -1.5h-39q-5 0 -6.5 3t-1.5 5q0 56 -11.5 90.5t-30.5 54t-43.5 26t-51.5 6.5h-283q-10 0 -10 -10 v-437q0 -29 9 -46.5t24.5 -26.5t35.5 -12t42 -3h273q58 0 97 26.5t63 64.5t35.5 79t14.5 70q2 13 13 20.5t25 7.5q5 0 12 -4t7 -9l-33 -366q-2 -5 -5.5 -9.5t-8.5 -4.5h-1159q-6 0 -7 3.5t-1 4.5v14v29zM281 1884h687v-169h-687v169z" />
<glyph unicode="&#x113;" horiz-adv-x="1014" d="M70 405q0 117 33 215.5t95 170.5t151.5 112t203.5 40q34 0 61 -4.5t49.5 -12t42 -18t39.5 -22.5q23 -12 52.5 -43t55.5 -72t44 -87.5t18 -89.5q0 -14 -5.5 -30.5t-18.5 -16.5h-590q-10 0 -13.5 -18t-3.5 -44q0 -88 25.5 -156.5t68.5 -116t99 -72t118 -24.5q39 0 75 10.5 t69 27.5t62 38t55 42q6 2 8 2q3 0 8 -5q9 -8 18 -18.5t14 -17.5q3 -3 3 -6t-4 -7q-33 -39 -81 -76.5t-102.5 -67t-111.5 -47.5t-108 -18q-103 0 -183 37.5t-135 98.5t-83.5 138.5t-28.5 157.5zM657 624q26 0 26 23q0 39 -12.5 73.5t-35.5 61t-55.5 41.5t-72.5 15 q-48 0 -84 -20.5t-61 -49.5t-37.5 -60t-12.5 -53q0 -17 5 -24t13 -7h327zM186 1342h687v-169h-687v169z" />
<glyph unicode="&#x114;" horiz-adv-x="1309" d="M7 51q0 1 1 4.5t7 3.5h22q42 3 86 3.5t80 11t59 37t23 82.5v1024q0 39 -16 63.5t-42 39.5t-59 22.5t-67 12.5h-21q-5 0 -6.5 3t-1.5 5v39q0 2 1.5 5t6.5 3h996q18 0 26 -6.5t10 -28.5l18 -320q0 -5 -8.5 -7.5t-15.5 -2.5q-8 0 -16 2t-11 6q-7 10 -10 29.5t-6.5 43.5 t-10 50t-19.5 48t-35.5 38.5t-57.5 22.5h-357q-13 0 -13 -13v-477q0 -10 10 -10h286q25 0 49.5 6.5t43 23.5t30 47.5t11.5 78.5q0 8 8 8h39q8 0 8 -8v-458q0 -5 -3 -6.5t-5 -1.5h-39q-5 0 -6.5 3t-1.5 5q0 56 -11.5 90.5t-30.5 54t-43.5 26t-51.5 6.5h-283q-10 0 -10 -10 v-437q0 -29 9 -46.5t24.5 -26.5t35.5 -12t42 -3h273q58 0 97 26.5t63 64.5t35.5 79t14.5 70q2 13 13 20.5t25 7.5q5 0 12 -4t7 -9l-33 -366q-2 -5 -5.5 -9.5t-8.5 -4.5h-1159q-6 0 -7 3.5t-1 4.5v14v29zM656 1618q-62 0 -115.5 29.5t-92.5 78t-61.5 112t-22.5 132.5h51 q0 -45 22 -80.5t56.5 -60.5t77.5 -38.5t85 -13.5t84 19t76 47.5t55 62.5t21 64h53q0 -63 -23 -126t-63 -113t-92.5 -81.5t-110.5 -31.5z" />
<glyph unicode="&#x115;" horiz-adv-x="1014" d="M70 405q0 117 33 215.5t95 170.5t151.5 112t203.5 40q34 0 61 -4.5t49.5 -12t42 -18t39.5 -22.5q23 -12 52.5 -43t55.5 -72t44 -87.5t18 -89.5q0 -14 -5.5 -30.5t-18.5 -16.5h-590q-10 0 -13.5 -18t-3.5 -44q0 -88 25.5 -156.5t68.5 -116t99 -72t118 -24.5q39 0 75 10.5 t69 27.5t62 38t55 42q6 2 8 2q3 0 8 -5q9 -8 18 -18.5t14 -17.5q3 -3 3 -6t-4 -7q-33 -39 -81 -76.5t-102.5 -67t-111.5 -47.5t-108 -18q-103 0 -183 37.5t-135 98.5t-83.5 138.5t-28.5 157.5zM657 624q26 0 26 23q0 39 -12.5 73.5t-35.5 61t-55.5 41.5t-72.5 15 q-48 0 -84 -20.5t-61 -49.5t-37.5 -60t-12.5 -53q0 -17 5 -24t13 -7h327zM531 1076q-62 0 -115.5 29.5t-92.5 78t-61.5 112t-22.5 132.5h51q0 -45 22 -80.5t56.5 -60.5t77.5 -38.5t85 -13.5t84 19t76 47.5t55 62.5t21 64h53q0 -63 -23 -126t-63 -113t-92.5 -81.5 t-110.5 -31.5z" />
<glyph unicode="&#x116;" horiz-adv-x="1309" d="M7 51q0 1 1 4.5t7 3.5h22q42 3 86 3.5t80 11t59 37t23 82.5v1024q0 39 -16 63.5t-42 39.5t-59 22.5t-67 12.5h-21q-5 0 -6.5 3t-1.5 5v39q0 2 1.5 5t6.5 3h996q18 0 26 -6.5t10 -28.5l18 -320q0 -5 -8.5 -7.5t-15.5 -2.5q-8 0 -16 2t-11 6q-7 10 -10 29.5t-6.5 43.5 t-10 50t-19.5 48t-35.5 38.5t-57.5 22.5h-357q-13 0 -13 -13v-477q0 -10 10 -10h286q25 0 49.5 6.5t43 23.5t30 47.5t11.5 78.5q0 8 8 8h39q8 0 8 -8v-458q0 -5 -3 -6.5t-5 -1.5h-39q-5 0 -6.5 3t-1.5 5q0 56 -11.5 90.5t-30.5 54t-43.5 26t-51.5 6.5h-283q-10 0 -10 -10 v-437q0 -29 9 -46.5t24.5 -26.5t35.5 -12t42 -3h273q58 0 97 26.5t63 64.5t35.5 79t14.5 70q2 13 13 20.5t25 7.5q5 0 12 -4t7 -9l-33 -366q-2 -5 -5.5 -9.5t-8.5 -4.5h-1159q-6 0 -7 3.5t-1 4.5v14v29zM518 1800q0 28 10.5 53t29.5 44t43.5 29.5t53.5 10.5q28 0 53 -10.5 t44 -29.5t29.5 -44t10.5 -53q0 -29 -10.5 -53.5t-29.5 -43.5t-44 -29.5t-53 -10.5q-29 0 -53.5 10.5t-43.5 29.5t-29.5 43.5t-10.5 53.5z" />
<glyph unicode="&#x117;" horiz-adv-x="1014" d="M70 405q0 117 33 215.5t95 170.5t151.5 112t203.5 40q34 0 61 -4.5t49.5 -12t42 -18t39.5 -22.5q23 -12 52.5 -43t55.5 -72t44 -87.5t18 -89.5q0 -14 -5.5 -30.5t-18.5 -16.5h-590q-10 0 -13.5 -18t-3.5 -44q0 -88 25.5 -156.5t68.5 -116t99 -72t118 -24.5q39 0 75 10.5 t69 27.5t62 38t55 42q6 2 8 2q3 0 8 -5q9 -8 18 -18.5t14 -17.5q3 -3 3 -6t-4 -7q-33 -39 -81 -76.5t-102.5 -67t-111.5 -47.5t-108 -18q-103 0 -183 37.5t-135 98.5t-83.5 138.5t-28.5 157.5zM657 624q26 0 26 23q0 39 -12.5 73.5t-35.5 61t-55.5 41.5t-72.5 15 q-48 0 -84 -20.5t-61 -49.5t-37.5 -60t-12.5 -53q0 -17 5 -24t13 -7h327zM393 1229q0 28 10.5 53t29.5 44t43.5 29.5t53.5 10.5q28 0 53 -10.5t44 -29.5t29.5 -44t10.5 -53q0 -29 -10.5 -53.5t-29.5 -43.5t-44 -29.5t-53 -10.5q-29 0 -53.5 10.5t-43.5 29.5t-29.5 43.5 t-10.5 53.5z" />
<glyph unicode="&#x118;" horiz-adv-x="1309" d="M7 51q0 1 1 4.5t7 3.5h22q42 3 86 3.5t80 11t59 37t23 82.5v1024q0 39 -16 63.5t-42 39.5t-59 22.5t-67 12.5h-21q-5 0 -6.5 3t-1.5 5v39q0 2 1.5 5t6.5 3h996q18 0 26 -6.5t10 -28.5l18 -320q0 -5 -8.5 -7.5t-15.5 -2.5q-8 0 -16 2t-11 6q-7 10 -10 29.5t-6.5 43.5 t-10 50t-19.5 48t-35.5 38.5t-57.5 22.5h-357q-13 0 -13 -13v-477q0 -10 10 -10h286q25 0 49.5 6.5t43 23.5t30 47.5t11.5 78.5q0 8 8 8h39q8 0 8 -8v-458q0 -5 -3 -6.5t-5 -1.5h-39q-5 0 -6.5 3t-1.5 5q0 56 -11.5 90.5t-30.5 54t-43.5 26t-51.5 6.5h-283q-10 0 -10 -10 v-437q0 -29 9 -46.5t24.5 -26.5t35.5 -12t42 -3h273q58 0 97 26.5t63 64.5t35.5 79t14.5 70q2 13 13 20.5t25 7.5q5 0 12 -4t7 -9l-33 -366q-2 -5 -5.5 -9.5t-8.5 -4.5h-1159q-6 0 -7 3.5t-1 4.5v14v29zM1076 0q-2 -1 -13 -15.5t-25 -33t-27 -36t-17 -24.5 q-22 -37 -34.5 -67.5t-19 -55t-8 -44t-1.5 -33.5q0 -134 131 -134q11 0 27 2t33 2q14 0 23 -10.5t9 -23.5q0 -20 -12.5 -31.5t-32 -17.5t-42.5 -8t-44 -2q-42 0 -89 8t-86.5 29t-65.5 58t-26 95q0 48 18.5 97.5t48 95t66.5 84t75 65.5h112z" />
<glyph unicode="&#x119;" horiz-adv-x="1014" d="M70 405q0 117 33 215.5t95 170.5t151.5 112t203.5 40q34 0 61 -4.5t49.5 -12t42 -18t39.5 -22.5q23 -12 52.5 -43t55.5 -72t44 -87.5t18 -89.5q0 -14 -5.5 -30.5t-18.5 -16.5h-590q-10 0 -13.5 -18t-3.5 -44q0 -88 25.5 -156.5t68.5 -116t99 -72t118 -24.5q39 0 75 10.5 t69 27.5t62 38t55 42q6 2 8 2q3 0 8 -5q9 -8 18 -18.5t14 -17.5q3 -3 3 -6t-4 -7q-33 -39 -81 -76.5t-102.5 -67t-111.5 -47.5t-108 -18q-103 0 -183 37.5t-135 98.5t-83.5 138.5t-28.5 157.5zM657 624q26 0 26 23q0 39 -12.5 73.5t-35.5 61t-55.5 41.5t-72.5 15 q-48 0 -84 -20.5t-61 -49.5t-37.5 -60t-12.5 -53q0 -17 5 -24t13 -7h327zM626 0q-2 -1 -13 -15.5t-25 -33t-27 -36t-17 -24.5q-22 -37 -34.5 -67.5t-19 -55t-8 -44t-1.5 -33.5q0 -134 131 -134q11 0 27 2t33 2q14 0 23 -10.5t9 -23.5q0 -20 -12.5 -31.5t-32 -17.5t-42.5 -8 t-44 -2q-42 0 -89 8t-86.5 29t-65.5 58t-26 95q0 48 18.5 97.5t48 95t66.5 84t75 65.5h112z" />
<glyph unicode="&#x11a;" horiz-adv-x="1309" d="M7 51q0 1 1 4.5t7 3.5h22q42 3 86 3.5t80 11t59 37t23 82.5v1024q0 39 -16 63.5t-42 39.5t-59 22.5t-67 12.5h-21q-5 0 -6.5 3t-1.5 5v39q0 2 1.5 5t6.5 3h996q18 0 26 -6.5t10 -28.5l18 -320q0 -5 -8.5 -7.5t-15.5 -2.5q-8 0 -16 2t-11 6q-7 10 -10 29.5t-6.5 43.5 t-10 50t-19.5 48t-35.5 38.5t-57.5 22.5h-357q-13 0 -13 -13v-477q0 -10 10 -10h286q25 0 49.5 6.5t43 23.5t30 47.5t11.5 78.5q0 8 8 8h39q8 0 8 -8v-458q0 -5 -3 -6.5t-5 -1.5h-39q-5 0 -6.5 3t-1.5 5q0 56 -11.5 90.5t-30.5 54t-43.5 26t-51.5 6.5h-283q-10 0 -10 -10 v-437q0 -29 9 -46.5t24.5 -26.5t35.5 -12t42 -3h273q58 0 97 26.5t63 64.5t35.5 79t14.5 70q2 13 13 20.5t25 7.5q5 0 12 -4t7 -9l-33 -366q-2 -5 -5.5 -9.5t-8.5 -4.5h-1159q-6 0 -7 3.5t-1 4.5v14v29zM904 1960q5 5 11 7.5t11 2.5t12.5 -6.5t15 -15.5t12.5 -17.5t5 -12.5 q0 -12 -11 -26l-248 -322q-8 -11 -19 -20.5t-23 -9.5q-9 0 -18.5 6.5t-14.5 14.5l-245 330q-6 8 -8.5 13t-2.5 14q0 4 5 12.5t12.5 17.5t15 15.5t12.5 6.5q4 0 11.5 -2.5t12.5 -7.5l220 -230z" />
<glyph unicode="&#x11b;" horiz-adv-x="1014" d="M70 405q0 117 33 215.5t95 170.5t151.5 112t203.5 40q34 0 61 -4.5t49.5 -12t42 -18t39.5 -22.5q23 -12 52.5 -43t55.5 -72t44 -87.5t18 -89.5q0 -14 -5.5 -30.5t-18.5 -16.5h-590q-10 0 -13.5 -18t-3.5 -44q0 -88 25.5 -156.5t68.5 -116t99 -72t118 -24.5q39 0 75 10.5 t69 27.5t62 38t55 42q6 2 8 2q3 0 8 -5q9 -8 18 -18.5t14 -17.5q3 -3 3 -6t-4 -7q-33 -39 -81 -76.5t-102.5 -67t-111.5 -47.5t-108 -18q-103 0 -183 37.5t-135 98.5t-83.5 138.5t-28.5 157.5zM657 624q26 0 26 23q0 39 -12.5 73.5t-35.5 61t-55.5 41.5t-72.5 15 q-48 0 -84 -20.5t-61 -49.5t-37.5 -60t-12.5 -53q0 -17 5 -24t13 -7h327zM759 1463q5 5 11 7.5t11 2.5t12.5 -6.5t15 -15.5t12.5 -17.5t5 -12.5q0 -12 -11 -26l-248 -322q-8 -11 -19 -20.5t-23 -9.5q-9 0 -18.5 6.5t-14.5 14.5l-245 330q-6 8 -8.5 13t-2.5 14q0 4 5 12.5 t12.5 17.5t15 15.5t12.5 6.5q4 0 11.5 -2.5t12.5 -7.5l220 -230z" />
<glyph unicode="&#x11c;" horiz-adv-x="1666" d="M115 717q0 101 27 194t76 174.5t117.5 148t150.5 114.5t175.5 74t192.5 26q53 0 108 -6.5t107.5 -16.5t99.5 -22t82.5 -22t58 -16.5t25.5 -6.5h12q8 0 12.5 1.5t8 3.5t7.5 3.5t12 1.5h40q2 0 6.5 -1.5t4.5 -9.5v-333q0 -11 -9.5 -15t-16.5 -4q-9 1 -16 10t-13 20t-10 21 t-5 15q-25 78 -70.5 131.5t-107 87.5t-135 49t-154.5 15q-139 0 -232 -51t-149.5 -137t-80 -198.5t-23.5 -236.5q0 -85 17 -167t48.5 -155.5t76.5 -135t100.5 -106t120 -69.5t136.5 -25q81 0 142.5 17.5t99.5 68.5v221q0 43 -10.5 76.5t-38.5 56.5t-76 35t-123 12 q-6 0 -8.5 11.5t-2.5 19.5q0 5 2.5 17t8.5 12h696q8 0 9.5 -11.5t1.5 -17.5q0 -5 -2 -16t-9 -15q-27 -11 -55.5 -19t-52.5 -21t-39.5 -35.5t-15.5 -61.5v-292q0 -8 -6.5 -13t-20.5 -11q-56 -27 -127 -51t-146 -42.5t-149 -29.5t-135 -11q-155 0 -290 51.5t-236 148 t-159 234.5t-58 310zM885 1780l-220 -230q-5 -5 -12.5 -7.5t-11.5 -2.5q-5 0 -12.5 6.5t-15 15.5t-12.5 17.5t-5 12.5q0 9 2.5 14t8.5 13l245 330q5 8 14.5 14.5t18.5 6.5q12 0 23 -9.5t19 -20.5l248 -322q11 -14 11 -26q0 -4 -5 -12.5t-12.5 -17.5t-15 -15.5t-12.5 -6.5 t-11 2.5t-11 7.5z" />
<glyph unicode="&#x11d;" horiz-adv-x="1224" d="M582 943q96 0 172 -25t127 -73q63 2 120.5 7t123.5 5q23 0 37.5 -1.5t22.5 -5t12 -9t6 -13.5q7 -25 10 -45t3 -41q0 -17 -12.5 -22.5t-50.5 -5.5h-183q14 -23 27.5 -54t13.5 -79q0 -69 -31 -134.5t-91 -115.5t-146.5 -80.5t-197.5 -30.5q-34 0 -55 2.5t-44 8.5 q-14 -12 -35 -21.5t-41 -21.5t-34 -27.5t-14 -39.5q0 -42 73.5 -60.5t237.5 -19.5q125 -1 227.5 -7t175.5 -31.5t113 -79t40 -149.5q0 -40 -19 -86.5t-57.5 -92.5t-96.5 -88.5t-136.5 -75t-177.5 -52t-218 -19.5q-105 0 -183 20.5t-129 54.5t-76.5 77.5t-25.5 89.5 q0 35 14 63t37 51.5t51.5 44t57.5 42t56 45t47 53.5q-53 7 -96.5 25t-74 42t-47.5 52.5t-17 57.5q0 27 14.5 47t38 35.5t53.5 28.5t62 25q20 8 42.5 17.5t46.5 26.5q-119 48 -180 125t-61 178q0 80 36 150t99 121.5t148.5 81t184.5 29.5zM298 -316q0 -42 25.5 -84.5 t69 -76.5t102.5 -55.5t126 -21.5q70 0 136 23.5t117 62.5t82 90.5t31 107.5q0 33 -10.5 58t-28.5 42t-42 27t-50 12q-21 2 -70 3.5t-110 3.5q-37 1 -73 1.5t-66.5 1.5t-55 2t-38.5 3q-19 -22 -44 -41.5t-47.5 -42t-38 -50.5t-15.5 -66zM771 559q0 77 -16 137.5t-45.5 102 t-69.5 63t-88 21.5q-29 0 -63.5 -11.5t-64.5 -42t-50 -83.5t-20 -136q0 -53 12 -111t38.5 -107t68.5 -80.5t102 -31.5q45 0 81 20.5t61.5 57t39.5 88t14 113.5zM563 1283l-220 -230q-5 -5 -12.5 -7.5t-11.5 -2.5q-5 0 -12.5 6.5t-15 15.5t-12.5 17.5t-5 12.5q0 9 2.5 14 t8.5 13l245 330q5 8 14.5 14.5t18.5 6.5q12 0 23 -9.5t19 -20.5l248 -322q11 -14 11 -26q0 -4 -5 -12.5t-12.5 -17.5t-15 -15.5t-12.5 -6.5t-11 2.5t-11 7.5z" />
<glyph unicode="&#x11e;" horiz-adv-x="1666" d="M115 717q0 101 27 194t76 174.5t117.5 148t150.5 114.5t175.5 74t192.5 26q53 0 108 -6.5t107.5 -16.5t99.5 -22t82.5 -22t58 -16.5t25.5 -6.5h12q8 0 12.5 1.5t8 3.5t7.5 3.5t12 1.5h40q2 0 6.5 -1.5t4.5 -9.5v-333q0 -11 -9.5 -15t-16.5 -4q-9 1 -16 10t-13 20t-10 21 t-5 15q-25 78 -70.5 131.5t-107 87.5t-135 49t-154.5 15q-139 0 -232 -51t-149.5 -137t-80 -198.5t-23.5 -236.5q0 -85 17 -167t48.5 -155.5t76.5 -135t100.5 -106t120 -69.5t136.5 -25q81 0 142.5 17.5t99.5 68.5v221q0 43 -10.5 76.5t-38.5 56.5t-76 35t-123 12 q-6 0 -8.5 11.5t-2.5 19.5q0 5 2.5 17t8.5 12h696q8 0 9.5 -11.5t1.5 -17.5q0 -5 -2 -16t-9 -15q-27 -11 -55.5 -19t-52.5 -21t-39.5 -35.5t-15.5 -61.5v-292q0 -8 -6.5 -13t-20.5 -11q-56 -27 -127 -51t-146 -42.5t-149 -29.5t-135 -11q-155 0 -290 51.5t-236 148 t-159 234.5t-58 310zM871 1619q-62 0 -115.5 29.5t-92.5 78t-61.5 112t-22.5 132.5h51q0 -45 22 -80.5t56.5 -60.5t77.5 -38.5t85 -13.5t84 19t76 47.5t55 62.5t21 64h53q0 -63 -23 -126t-63 -113t-92.5 -81.5t-110.5 -31.5z" />
<glyph unicode="&#x11f;" horiz-adv-x="1224" d="M582 943q96 0 172 -25t127 -73q63 2 120.5 7t123.5 5q23 0 37.5 -1.5t22.5 -5t12 -9t6 -13.5q7 -25 10 -45t3 -41q0 -17 -12.5 -22.5t-50.5 -5.5h-183q14 -23 27.5 -54t13.5 -79q0 -69 -31 -134.5t-91 -115.5t-146.5 -80.5t-197.5 -30.5q-34 0 -55 2.5t-44 8.5 q-14 -12 -35 -21.5t-41 -21.5t-34 -27.5t-14 -39.5q0 -42 73.5 -60.5t237.5 -19.5q125 -1 227.5 -7t175.5 -31.5t113 -79t40 -149.5q0 -40 -19 -86.5t-57.5 -92.5t-96.5 -88.5t-136.5 -75t-177.5 -52t-218 -19.5q-105 0 -183 20.5t-129 54.5t-76.5 77.5t-25.5 89.5 q0 35 14 63t37 51.5t51.5 44t57.5 42t56 45t47 53.5q-53 7 -96.5 25t-74 42t-47.5 52.5t-17 57.5q0 27 14.5 47t38 35.5t53.5 28.5t62 25q20 8 42.5 17.5t46.5 26.5q-119 48 -180 125t-61 178q0 80 36 150t99 121.5t148.5 81t184.5 29.5zM298 -316q0 -42 25.5 -84.5 t69 -76.5t102.5 -55.5t126 -21.5q70 0 136 23.5t117 62.5t82 90.5t31 107.5q0 33 -10.5 58t-28.5 42t-42 27t-50 12q-21 2 -70 3.5t-110 3.5q-37 1 -73 1.5t-66.5 1.5t-55 2t-38.5 3q-19 -22 -44 -41.5t-47.5 -42t-38 -50.5t-15.5 -66zM771 559q0 77 -16 137.5t-45.5 102 t-69.5 63t-88 21.5q-29 0 -63.5 -11.5t-64.5 -42t-50 -83.5t-20 -136q0 -53 12 -111t38.5 -107t68.5 -80.5t102 -31.5q45 0 81 20.5t61.5 57t39.5 88t14 113.5zM570 1076q-62 0 -115.5 29.5t-92.5 78t-61.5 112t-22.5 132.5h51q0 -45 22 -80.5t56.5 -60.5t77.5 -38.5 t85 -13.5t84 19t76 47.5t55 62.5t21 64h53q0 -63 -23 -126t-63 -113t-92.5 -81.5t-110.5 -31.5z" />
<glyph unicode="&#x120;" horiz-adv-x="1666" d="M115 717q0 101 27 194t76 174.5t117.5 148t150.5 114.5t175.5 74t192.5 26q53 0 108 -6.5t107.5 -16.5t99.5 -22t82.5 -22t58 -16.5t25.5 -6.5h12q8 0 12.5 1.5t8 3.5t7.5 3.5t12 1.5h40q2 0 6.5 -1.5t4.5 -9.5v-333q0 -11 -9.5 -15t-16.5 -4q-9 1 -16 10t-13 20t-10 21 t-5 15q-25 78 -70.5 131.5t-107 87.5t-135 49t-154.5 15q-139 0 -232 -51t-149.5 -137t-80 -198.5t-23.5 -236.5q0 -85 17 -167t48.5 -155.5t76.5 -135t100.5 -106t120 -69.5t136.5 -25q81 0 142.5 17.5t99.5 68.5v221q0 43 -10.5 76.5t-38.5 56.5t-76 35t-123 12 q-6 0 -8.5 11.5t-2.5 19.5q0 5 2.5 17t8.5 12h696q8 0 9.5 -11.5t1.5 -17.5q0 -5 -2 -16t-9 -15q-27 -11 -55.5 -19t-52.5 -21t-39.5 -35.5t-15.5 -61.5v-292q0 -8 -6.5 -13t-20.5 -11q-56 -27 -127 -51t-146 -42.5t-149 -29.5t-135 -11q-155 0 -290 51.5t-236 148 t-159 234.5t-58 310zM753 1800q0 28 10.5 53t29.5 44t43.5 29.5t53.5 10.5q28 0 53 -10.5t44 -29.5t29.5 -44t10.5 -53q0 -29 -10.5 -53.5t-29.5 -43.5t-44 -29.5t-53 -10.5q-29 0 -53.5 10.5t-43.5 29.5t-29.5 43.5t-10.5 53.5z" />
<glyph unicode="&#x121;" horiz-adv-x="1224" d="M582 943q96 0 172 -25t127 -73q63 2 120.5 7t123.5 5q23 0 37.5 -1.5t22.5 -5t12 -9t6 -13.5q7 -25 10 -45t3 -41q0 -17 -12.5 -22.5t-50.5 -5.5h-183q14 -23 27.5 -54t13.5 -79q0 -69 -31 -134.5t-91 -115.5t-146.5 -80.5t-197.5 -30.5q-34 0 -55 2.5t-44 8.5 q-14 -12 -35 -21.5t-41 -21.5t-34 -27.5t-14 -39.5q0 -42 73.5 -60.5t237.5 -19.5q125 -1 227.5 -7t175.5 -31.5t113 -79t40 -149.5q0 -40 -19 -86.5t-57.5 -92.5t-96.5 -88.5t-136.5 -75t-177.5 -52t-218 -19.5q-105 0 -183 20.5t-129 54.5t-76.5 77.5t-25.5 89.5 q0 35 14 63t37 51.5t51.5 44t57.5 42t56 45t47 53.5q-53 7 -96.5 25t-74 42t-47.5 52.5t-17 57.5q0 27 14.5 47t38 35.5t53.5 28.5t62 25q20 8 42.5 17.5t46.5 26.5q-119 48 -180 125t-61 178q0 80 36 150t99 121.5t148.5 81t184.5 29.5zM298 -316q0 -42 25.5 -84.5 t69 -76.5t102.5 -55.5t126 -21.5q70 0 136 23.5t117 62.5t82 90.5t31 107.5q0 33 -10.5 58t-28.5 42t-42 27t-50 12q-21 2 -70 3.5t-110 3.5q-37 1 -73 1.5t-66.5 1.5t-55 2t-38.5 3q-19 -22 -44 -41.5t-47.5 -42t-38 -50.5t-15.5 -66zM771 559q0 77 -16 137.5t-45.5 102 t-69.5 63t-88 21.5q-29 0 -63.5 -11.5t-64.5 -42t-50 -83.5t-20 -136q0 -53 12 -111t38.5 -107t68.5 -80.5t102 -31.5q45 0 81 20.5t61.5 57t39.5 88t14 113.5zM421 1229q0 28 10.5 53t29.5 44t43.5 29.5t53.5 10.5q28 0 53 -10.5t44 -29.5t29.5 -44t10.5 -53 q0 -29 -10.5 -53.5t-29.5 -43.5t-44 -29.5t-53 -10.5q-29 0 -53.5 10.5t-43.5 29.5t-29.5 43.5t-10.5 53.5z" />
<glyph unicode="&#x122;" horiz-adv-x="1666" d="M115 717q0 101 27 194t76 174.5t117.5 148t150.5 114.5t175.5 74t192.5 26q53 0 108 -6.5t107.5 -16.5t99.5 -22t82.5 -22t58 -16.5t25.5 -6.5h12q8 0 12.5 1.5t8 3.5t7.5 3.5t12 1.5h40q2 0 6.5 -1.5t4.5 -9.5v-333q0 -11 -9.5 -15t-16.5 -4q-9 1 -16 10t-13 20t-10 21 t-5 15q-25 78 -70.5 131.5t-107 87.5t-135 49t-154.5 15q-139 0 -232 -51t-149.5 -137t-80 -198.5t-23.5 -236.5q0 -85 17 -167t48.5 -155.5t76.5 -135t100.5 -106t120 -69.5t136.5 -25q81 0 142.5 17.5t99.5 68.5v221q0 43 -10.5 76.5t-38.5 56.5t-76 35t-123 12 q-6 0 -8.5 11.5t-2.5 19.5q0 5 2.5 17t8.5 12h696q8 0 9.5 -11.5t1.5 -17.5q0 -5 -2 -16t-9 -15q-27 -11 -55.5 -19t-52.5 -21t-39.5 -35.5t-15.5 -61.5v-292q0 -8 -6.5 -13t-20.5 -11q-56 -27 -127 -51t-146 -42.5t-149 -29.5t-135 -11q-155 0 -290 51.5t-236 148 t-159 234.5t-58 310zM755 -654q-20 0 -25 13t-5 24q1 13 8.5 24t18.5 20t22.5 17.5t20.5 16.5q14 14 29 31t27 36t20 39t8 40q0 8 -2.5 17t-19.5 9q-32 0 -64 10t-58 30t-42 49.5t-16 68.5q0 61 40.5 99.5t112.5 38.5q55 0 92 -20.5t60 -50t33 -63t10 -60.5q0 -54 -17 -106 t-44.5 -98t-63.5 -85t-74 -67q-15 -11 -34.5 -22t-36.5 -11z" />
<glyph unicode="&#x123;" horiz-adv-x="1148" d="M545 943q96 0 172 -25t127 -73q63 2 120.5 7t123.5 5q23 0 37.5 -1.5t22.5 -5t12 -9t6 -13.5q7 -25 10 -45t3 -41q0 -17 -12.5 -22.5t-50.5 -5.5h-183q14 -23 27.5 -54t13.5 -79q0 -69 -31 -134.5t-91 -115.5t-146.5 -80.5t-197.5 -30.5q-34 0 -55 2.5t-44 8.5 q-14 -12 -35 -21.5t-41 -21.5t-34 -27.5t-14 -39.5q0 -42 73.5 -60.5t237.5 -19.5q125 -1 227.5 -7t175.5 -31.5t113 -79t40 -149.5q0 -40 -19 -86.5t-57.5 -92.5t-96.5 -88.5t-136.5 -75t-177.5 -52t-218 -19.5q-105 0 -183 20.5t-129 54.5t-76.5 77.5t-25.5 89.5 q0 35 14 63t37 51.5t51.5 44t57.5 42t56 45t47 53.5q-53 7 -96.5 25t-74 42t-47.5 52.5t-17 57.5q0 27 14.5 47t38 35.5t53.5 28.5t62 25q20 8 42.5 17.5t46.5 26.5q-119 48 -180 125t-61 178q0 80 36 150t99 121.5t148.5 81t184.5 29.5zM261 -316q0 -42 25.5 -84.5 t69 -76.5t102.5 -55.5t126 -21.5q70 0 136 23.5t117 62.5t82 90.5t31 107.5q0 33 -10.5 58t-28.5 42t-42 27t-50 12q-21 2 -70 3.5t-110 3.5q-37 1 -73 1.5t-66.5 1.5t-55 2t-38.5 3q-19 -22 -44 -41.5t-47.5 -42t-38 -50.5t-15.5 -66zM734 559q0 77 -16 137.5t-45.5 102 t-69.5 63t-88 21.5q-29 0 -63.5 -11.5t-64.5 -42t-50 -83.5t-20 -136q0 -53 12 -111t38.5 -107t68.5 -80.5t102 -31.5q45 0 81 20.5t61.5 57t39.5 88t14 113.5zM621 1725q20 0 25 -13t5 -24q-1 -13 -8.5 -24t-18.5 -20t-22.5 -17.5t-20.5 -16.5q-14 -14 -29 -31t-27 -36 t-20 -39t-8 -40q0 -8 2.5 -17t19.5 -9q32 0 65.5 -10t61.5 -30t45.5 -49.5t17.5 -68.5q0 -38 -12 -67.5t-34 -49.5t-51.5 -30.5t-65.5 -10.5q-62 0 -100.5 23.5t-59.5 57t-28 70t-7 63.5q0 54 17 106t44.5 98t63.5 85t74 67q15 11 34.5 22t36.5 11z" />
<glyph unicode="&#x124;" horiz-adv-x="1802" d="M68 0q-5 0 -6.5 3t-1.5 5v54q0 2 1.5 5t6.5 3q31 0 62.5 4.5t57.5 19.5t42.5 43t16.5 76v1002q0 34 -11 57t-31 37.5t-48 21.5t-62 9q-8 0 -8 8v54q0 8 7 8h592q5 0 6.5 -3t1.5 -5v-54q0 -6 -8 -6q-30 0 -58 -5.5t-49 -20.5t-34 -42.5t-13 -72.5v-412q0 -10 3 -13t13 -3 h698q10 0 13 3t3 13v428q0 35 -22 58t-55.5 36.5t-72.5 20t-72 8.5q-8 0 -8 8v54q0 8 7 8h667q5 0 6.5 -3t1.5 -5v-54q0 -6 -8 -6q-30 0 -58.5 -5.5t-51 -20.5t-36 -42.5t-13.5 -72.5v-990q0 -26 7.5 -46.5t23.5 -40.5q16 -22 52.5 -37t103.5 -17q8 0 8 -8v-54q0 -8 -8 -8 h-726q-5 0 -6.5 3t-1.5 5v54q0 2 1.5 5t6.5 3q30 0 73 4t83.5 17.5t69 39t28.5 69.5v432q0 10 -3 13t-13 3h-698q-10 0 -13 -3t-3 -13v-442q0 -34 15 -57t39.5 -37t56.5 -20t66 -6q6 0 7 -3t1 -5v-54q0 -2 -1 -5t-6 -3h-642v0zM900 1780l-220 -230q-5 -5 -12.5 -7.5 t-11.5 -2.5q-5 0 -12.5 6.5t-15 15.5t-12.5 17.5t-5 12.5q0 9 2.5 14t8.5 13l245 330q5 8 14.5 14.5t18.5 6.5q12 0 23 -9.5t19 -20.5l248 -322q11 -14 11 -26q0 -4 -5 -12.5t-12.5 -17.5t-15 -15.5t-12.5 -6.5t-11 2.5t-11 7.5z" />
<glyph unicode="&#x125;" horiz-adv-x="1276" d="M572 30q0 -6 -2 -17t-8 -13h-522q-6 2 -8 13t-2 17q0 5 3 16.5t7 13.5q13 6 37 9.5t48 14t42 33t18 66.5v1181q0 24 -13 37.5t-33 20.5t-43 11.5t-44 10.5q-6 2 -9.5 5.5t-3.5 14.5q0 5 3 10t12 10l331 155q4 2 8.5 4t6.5 2q17 0 17 -24v-847q0 -4 1 -14t6 -10 q7 0 10 3.5t9 9.5q29 33 59 62.5t66 52t81 35.5t105 13q62 0 122.5 -14.5t108 -54t77 -109t29.5 -179.5v-386q0 -44 18 -66.5t42 -33t48 -14t37 -9.5q4 -2 7 -13.5t3 -16.5q0 -6 -2 -17t-8 -13h-522q-6 2 -8 13t-2 17q0 5 3 16.5t7 13.5q13 6 37 9.5t48 14t42 33t18 66.5 v344q0 58 -3 109t-20.5 89t-56 59.5t-108.5 21.5q-36 0 -80 -17.5t-83 -47t-65 -68t-26 -80.5v-410q0 -44 18 -66.5t42 -33t48 -14t37 -9.5q4 -2 7 -13.5t3 -16.5zM641 1940l-220 -230q-5 -5 -12.5 -7.5t-11.5 -2.5q-5 0 -12.5 6.5t-15 15.5t-12.5 17.5t-5 12.5q0 9 2.5 14 t8.5 13l245 330q5 8 14.5 14.5t18.5 6.5q12 0 23 -9.5t19 -20.5l248 -322q11 -14 11 -26q0 -4 -5 -12.5t-12.5 -17.5t-15 -15.5t-12.5 -6.5t-11 2.5t-11 7.5z" />
<glyph unicode="&#x126;" horiz-adv-x="1802" d="M98 1012q-21 0 -21 25v76q0 25 21 25h149v77q0 34 -11 57t-31 37.5t-48 21.5t-62 9q-8 0 -8 8v54q0 8 7 8h592q5 0 6.5 -3t1.5 -5v-54q0 -6 -8 -6q-30 0 -58 -5.5t-49 -20.5t-34 -42.5t-13 -72.5v-63h730v79q0 35 -22 58t-55.5 36.5t-72.5 20t-72 8.5q-8 0 -8 8v54 q0 8 7 8h667q5 0 6.5 -3t1.5 -5v-54q0 -6 -8 -6q-30 0 -58.5 -5.5t-51 -20.5t-36 -42.5t-13.5 -72.5v-63h156q10 0 15.5 -7.5t5.5 -17.5v-76q0 -11 -6 -18t-15 -7h-156v-801q0 -26 7.5 -46.5t23.5 -40.5q16 -22 52.5 -37t103.5 -17q8 0 8 -8v-54q0 -8 -8 -8h-726 q-5 0 -6.5 3t-1.5 5v54q0 2 1.5 5t6.5 3q30 0 73 4t83.5 17.5t69 39t28.5 69.5v432q0 10 -3 13t-13 3h-698q-10 0 -13 -3t-3 -13v-442q0 -34 15 -57t39.5 -37t56.5 -20t66 -6q6 0 7 -3t1 -5v-54q0 -2 -1 -5t-6 -3h-642q-5 0 -6.5 3t-1.5 5v54q0 2 1.5 5t6.5 3q31 0 62.5 4.5 t57.5 19.5t42.5 43t16.5 76v799h-149zM1246 773q10 0 13 3t3 13v223h-730v-223q0 -10 3 -13t13 -3h698z" />
<glyph unicode="&#x127;" horiz-adv-x="1276" d="M73 1124q-25 0 -25 25v76q0 25 25 25h112v114q0 24 -13 37.5t-33 20.5t-43 11.5t-44 10.5q-6 2 -9.5 5.5t-3.5 14.5q0 5 3 10t12 10l331 155q4 2 8.5 4t6.5 2q17 0 17 -24v-371h307q25 0 25 -25v-76q0 -25 -25 -25h-307v-350q0 -4 1 -14t6 -10q7 0 10 3.5t9 9.5 q29 33 59 62.5t66 52t81 35.5t105 13q62 0 122.5 -14.5t108 -54t77 -109t29.5 -179.5v-386q0 -44 18 -66.5t42 -33t48 -14t37 -9.5q4 -2 7 -13.5t3 -16.5q0 -6 -2 -17t-8 -13h-522q-6 2 -8 13t-2 17q0 5 3 16.5t7 13.5q13 6 37 9.5t48 14t42 33t18 66.5v344q0 58 -3 109 t-20.5 89t-56 59.5t-108.5 21.5q-36 0 -80 -17.5t-83 -47t-65 -68t-26 -80.5v-410q0 -44 18 -66.5t42 -33t48 -14t37 -9.5q4 -2 7 -13.5t3 -16.5q0 -6 -2 -17t-8 -13h-522q-6 2 -8 13t-2 17q0 5 3 16.5t7 13.5q13 6 37 9.5t48 14t42 33t18 66.5v941h-112v0z" />
<glyph unicode="&#x128;" horiz-adv-x="789" d="M537 190q0 -34 10.5 -57t30 -37t48 -20t63.5 -6q8 0 8 -8v-54q0 -3 -1 -5.5t-7 -2.5h-591q-5 0 -6.5 3t-1.5 5v54q0 2 1.5 5t6.5 3q35 0 63.5 4.5t48.5 19.5t31 43t11 76v1007q0 34 -10.5 57t-30 37t-48 20t-63.5 6q-8 0 -8 8v54q0 8 8 8h591q5 0 6.5 -3t1.5 -5v-54 q0 -2 -1.5 -5t-6.5 -3q-35 0 -63.5 -4.5t-48.5 -19.5t-31 -43t-11 -76v-1007v0zM679 1948q5 0 7.5 -5t4 -11.5t2 -13.5t0.5 -11q0 -33 -11 -73.5t-32 -75.5t-51 -59t-68 -24q-41 0 -79 16t-74.5 35.5t-73.5 36t-76 16.5q-14 0 -29.5 -9t-28.5 -24.5t-21.5 -36.5t-8.5 -45 q0 -8 -5 -10t-11 -2h-21q-8 0 -8 16q0 46 11 94t31 87t49 63.5t65 24.5q42 0 82 -16.5t79.5 -36t79 -36t78.5 -16.5q18 0 32 10t23.5 25.5t14 33.5t4.5 33q0 6 5 10t11 4h19z" />
<glyph unicode="&#x129;" horiz-adv-x="652" d="M613 1388q5 0 7.5 -5t4 -11.5t2 -13.5t0.5 -11q0 -33 -11 -73.5t-32 -75.5t-51 -59t-68 -24q-41 0 -79 16t-74.5 35.5t-73.5 36t-76 16.5q-14 0 -29.5 -9t-28.5 -24.5t-21.5 -36.5t-8.5 -45q0 -8 -5 -10t-11 -2h-21q-8 0 -8 16q0 46 11 94t31 87t49 63.5t65 24.5 q42 0 82 -16.5t79.5 -36t79 -36t78.5 -16.5q18 0 32 10t23.5 25.5t14 33.5t4.5 33q0 6 5 10t11 4h19zM70 0q-6 2 -8 13.5t-2 17.5q0 5 3 15.5t7 12.5q13 6 37 9.5t48 14t42 33t18 66.5v481q0 24 -13 37.5t-33 20.5t-43 11.5t-44 10.5q-6 2 -9.5 5.5t-3.5 14.5q0 5 3 10 t12 10l331 156q4 2 8.5 4t6.5 2q17 0 17 -24v-739q0 -44 18 -66.5t42 -33t48 -14t37 -9.5q4 -2 7 -12.5t3 -15.5q0 -6 -2 -17.5t-8 -13.5h-522v0z" />
<glyph unicode="&#x12a;" horiz-adv-x="789" d="M537 190q0 -34 10.5 -57t30 -37t48 -20t63.5 -6q8 0 8 -8v-54q0 -3 -1 -5.5t-7 -2.5h-591q-5 0 -6.5 3t-1.5 5v54q0 2 1.5 5t6.5 3q35 0 63.5 4.5t48.5 19.5t31 43t11 76v1007q0 34 -10.5 57t-30 37t-48 20t-63.5 6q-8 0 -8 8v54q0 8 8 8h591q5 0 6.5 -3t1.5 -5v-54 q0 -2 -1.5 -5t-6.5 -3q-35 0 -63.5 -4.5t-48.5 -19.5t-31 -43t-11 -76v-1007v0zM51 1884h687v-169h-687v169z" />
<glyph unicode="&#x12b;" horiz-adv-x="652" d="M70 0q-6 2 -8 13.5t-2 17.5q0 5 3 15.5t7 12.5q13 6 37 9.5t48 14t42 33t18 66.5v481q0 24 -13 37.5t-33 20.5t-43 11.5t-44 10.5q-6 2 -9.5 5.5t-3.5 14.5q0 5 3 10t12 10l331 156q4 2 8.5 4t6.5 2q17 0 17 -24v-739q0 -44 18 -66.5t42 -33t48 -14t37 -9.5q4 -2 7 -12.5 t3 -15.5q0 -6 -2 -17.5t-8 -13.5h-522v0zM-18 1342h687v-169h-687v169z" />
<glyph unicode="&#x12c;" horiz-adv-x="789" d="M537 190q0 -34 10.5 -57t30 -37t48 -20t63.5 -6q8 0 8 -8v-54q0 -3 -1 -5.5t-7 -2.5h-591q-5 0 -6.5 3t-1.5 5v54q0 2 1.5 5t6.5 3q35 0 63.5 4.5t48.5 19.5t31 43t11 76v1007q0 34 -10.5 57t-30 37t-48 20t-63.5 6q-8 0 -8 8v54q0 8 8 8h591q5 0 6.5 -3t1.5 -5v-54 q0 -2 -1.5 -5t-6.5 -3q-35 0 -63.5 -4.5t-48.5 -19.5t-31 -43t-11 -76v-1007v0zM395 1619q-62 0 -115.5 29.5t-92.5 78t-61.5 112t-22.5 132.5h51q0 -45 22 -80.5t56.5 -60.5t77.5 -38.5t85 -13.5t84 19t76 47.5t55 62.5t21 64h53q0 -63 -23 -126t-63 -113t-92.5 -81.5 t-110.5 -31.5z" />
<glyph unicode="&#x12d;" horiz-adv-x="652" d="M70 0q-6 2 -8 13.5t-2 17.5q0 5 3 15.5t7 12.5q13 6 37 9.5t48 14t42 33t18 66.5v481q0 24 -13 37.5t-33 20.5t-43 11.5t-44 10.5q-6 2 -9.5 5.5t-3.5 14.5q0 5 3 10t12 10l331 156q4 2 8.5 4t6.5 2q17 0 17 -24v-739q0 -44 18 -66.5t42 -33t48 -14t37 -9.5q4 -2 7 -12.5 t3 -15.5q0 -6 -2 -17.5t-8 -13.5h-522v0zM327 1076q-62 0 -115.5 29.5t-92.5 78t-61.5 112t-22.5 132.5h51q0 -45 22 -80.5t56.5 -60.5t77.5 -38.5t85 -13.5t84 19t76 47.5t55 62.5t21 64h53q0 -63 -23 -126t-63 -113t-92.5 -81.5t-110.5 -31.5z" />
<glyph unicode="&#x12e;" horiz-adv-x="789" d="M537 190q0 -34 10.5 -57t30 -37t48 -20t63.5 -6q8 0 8 -8v-54q0 -3 -1 -5.5t-7 -2.5h-591q-5 0 -6.5 3t-1.5 5v54q0 2 1.5 5t6.5 3q35 0 63.5 4.5t48.5 19.5t31 43t11 76v1007q0 34 -10.5 57t-30 37t-48 20t-63.5 6q-8 0 -8 8v54q0 8 8 8h591q5 0 6.5 -3t1.5 -5v-54 q0 -2 -1.5 -5t-6.5 -3q-35 0 -63.5 -4.5t-48.5 -19.5t-31 -43t-11 -76v-1007v0zM489 0q-2 -1 -13 -15.5t-25 -33t-27 -36t-17 -24.5q-22 -37 -34.5 -67.5t-19 -55t-8 -44t-1.5 -33.5q0 -134 131 -134q11 0 27 2t33 2q14 0 23 -10.5t9 -23.5q0 -20 -12.5 -31.5t-32 -17.5 t-42.5 -8t-44 -2q-42 0 -89 8t-86.5 29t-65.5 58t-26 95q0 48 18.5 97.5t48 95t66.5 84t75 65.5h112z" />
<glyph unicode="&#x12f;" horiz-adv-x="652" d="M70 0q-6 2 -8 13.5t-2 17.5q0 5 3 16t7 13q13 6 37 9.5t48 14t42 33t18 66.5v480q0 24 -13 37.5t-33 20.5t-43 11.5t-44 10.5q-6 2 -9.5 5.5t-3.5 14.5q0 5 3 10t12 10l331 156q4 2 8.5 4t6.5 2q17 0 17 -24v-738q0 -44 18 -66.5t42 -33t48 -14t37 -9.5q4 -2 7 -13t3 -16 q0 -6 -2 -17.5t-8 -13.5h-522zM172 1307q0 64 38 102t102 38t102 -38t38 -102t-38 -101.5t-102 -37.5t-102 37.5t-38 101.5zM430 0q-2 -1 -13 -15.5t-25 -33t-27 -36t-17 -24.5q-22 -37 -34.5 -67.5t-19 -55t-8 -44t-1.5 -33.5q0 -134 131 -134q11 0 27 2t33 2 q14 0 23 -10.5t9 -23.5q0 -20 -12.5 -31.5t-32 -17.5t-42.5 -8t-44 -2q-42 0 -89 8t-86.5 29t-65.5 58t-26 95q0 48 18.5 97.5t48 95t66.5 84t75 65.5h112z" />
<glyph unicode="&#x130;" horiz-adv-x="789" d="M537 190q0 -34 10.5 -57t30 -37t48 -20t63.5 -6q8 0 8 -8v-54q0 -3 -1 -5.5t-7 -2.5h-591q-5 0 -6.5 3t-1.5 5v54q0 2 1.5 5t6.5 3q35 0 63.5 4.5t48.5 19.5t31 43t11 76v1007q0 34 -10.5 57t-30 37t-48 20t-63.5 6q-8 0 -8 8v54q0 8 8 8h591q5 0 6.5 -3t1.5 -5v-54 q0 -2 -1.5 -5t-6.5 -3q-35 0 -63.5 -4.5t-48.5 -19.5t-31 -43t-11 -76v-1007v0zM257 1800q0 28 10.5 53t29.5 44t43.5 29.5t53.5 10.5q28 0 53 -10.5t44 -29.5t29.5 -44t10.5 -53q0 -29 -10.5 -53.5t-29.5 -43.5t-44 -29.5t-53 -10.5q-29 0 -53.5 10.5t-43.5 29.5 t-29.5 43.5t-10.5 53.5z" />
<glyph unicode="&#x131;" horiz-adv-x="652" d="M70 0q-6 2 -8 13.5t-2 17.5q0 5 3 15.5t7 12.5q13 6 37 9.5t48 14t42 33t18 66.5v481q0 24 -13 37.5t-33 20.5t-43 11.5t-44 10.5q-6 2 -9.5 5.5t-3.5 14.5q0 5 3 10t12 10l331 156q4 2 8.5 4t6.5 2q17 0 17 -24v-739q0 -44 18 -66.5t42 -33t48 -14t37 -9.5q4 -2 7 -12.5 t3 -15.5q0 -6 -2 -17.5t-8 -13.5h-522v0z" />
<glyph unicode="&#x132;" horiz-adv-x="1609" d="M537 190q0 -34 10.5 -57t30 -37t48 -20t63.5 -6q8 0 8 -8v-54q0 -3 -1 -5.5t-7 -2.5h-591q-5 0 -6.5 3t-1.5 5v54q0 2 1.5 5t6.5 3q35 0 63.5 4.5t48.5 19.5t31 43t11 76v1007q0 34 -10.5 57t-30 37t-48 20t-63.5 6q-8 0 -8 8v54q0 8 8 8h591q5 0 6.5 -3t1.5 -5v-54 q0 -2 -1.5 -5t-6.5 -3q-35 0 -63.5 -4.5t-48.5 -19.5t-31 -43t-11 -76v-1007v0zM1081 1235q0 38 -13.5 61.5t-38.5 36.5t-61 17.5t-81 4.5q-8 0 -8 8v39q0 8 8 8h633q5 0 6.5 -3t1.5 -5v-39q0 -2 -1.5 -5t-6.5 -3q-31 0 -59 -4.5t-49 -19.5t-33.5 -43t-12.5 -76v-1222 q0 -74 -14.5 -149.5t-44 -145.5t-74.5 -131t-105 -106.5t-135.5 -71.5t-167.5 -26q-125 0 -182 29.5t-58 75.5q0 21 9.5 39.5t24 32.5t32.5 22t36 8q30 0 52 -7t38.5 -17.5t29 -23t26 -23t28 -17.5t35.5 -7q45 0 76.5 18t52 49.5t32 73.5t17 89.5t6.5 98t1 99.5v1335v0z" />
<glyph unicode="&#x133;" horiz-adv-x="1305" d="M70 0q-6 2 -8 13.5t-2 17.5q0 5 3 16t7 13q13 6 37 9.5t48 14t42 33t18 66.5v480q0 24 -13 37.5t-33 20.5t-43 11.5t-44 10.5q-6 2 -9.5 5.5t-3.5 14.5q0 5 3 10t12 10l331 156q4 2 8.5 4t6.5 2q17 0 17 -24v-738q0 -44 18 -66.5t42 -33t48 -14t37 -9.5q4 -2 7 -13t3 -16 q0 -6 -2 -17.5t-8 -13.5h-522zM172 1307q0 64 38 102t102 38t102 -38t38 -102t-38 -101.5t-102 -37.5t-102 37.5t-38 101.5zM1067 937q4 2 8.5 4t6.5 2q17 0 17 -24v-1026q0 -126 -36 -221.5t-102 -160.5t-159.5 -98t-207.5 -33q-36 0 -70 11t-60.5 29t-42.5 41t-16 47 q0 15 5 31t15 28.5t25 20.5t35 8q6 0 12.5 -1.5t21 -9.5t39.5 -26t68 -51q13 -11 26 -17t28 -9t34.5 -4t46.5 -1q35 0 56 24.5t32 59.5t14.5 74t3.5 68v958q0 24 -13 37.5t-33 20.5t-43 11.5t-44 10.5q-6 2 -9.5 5.5t-3.5 14.5q0 5 3 10t12 10zM808 1307q0 64 38 102t102 38 t102 -38t38 -102t-38 -101.5t-102 -37.5t-102 37.5t-38 101.5z" />
<glyph unicode="&#x134;" horiz-adv-x="783" d="M246 1235q0 38 -13.5 61.5t-38.5 36.5t-61 17.5t-81 4.5q-8 0 -8 8v39q0 8 8 8h633q5 0 6.5 -3t1.5 -5v-39q0 -2 -1.5 -5t-6.5 -3q-31 0 -59 -4.5t-49 -19.5t-33.5 -43t-12.5 -76v-1222q0 -74 -14.5 -149.5t-44 -145.5t-74.5 -131t-105 -106.5t-135.5 -71.5t-167.5 -26 q-125 0 -182 29.5t-58 75.5q0 21 9.5 39.5t24 32.5t32.5 22t36 8q30 0 52 -7t38.5 -17.5t29 -23t26 -23t28 -17.5t35.5 -7q45 0 76.5 18t52 49.5t32 73.5t17 89.5t6.5 98t1 99.5v1335v0zM365 1780l-220 -230q-5 -5 -12.5 -7.5t-11.5 -2.5q-5 0 -12.5 6.5t-15 15.5 t-12.5 17.5t-5 12.5q0 9 2.5 14t8.5 13l245 330q5 8 14.5 14.5t18.5 6.5q12 0 23 -9.5t19 -20.5l248 -322q11 -14 11 -26q0 -4 -5 -12.5t-12.5 -17.5t-15 -15.5t-12.5 -6.5t-11 2.5t-11 7.5z" />
<glyph unicode="&#x135;" horiz-adv-x="653" d="M284 1283l-220 -230q-5 -5 -12.5 -7.5t-11.5 -2.5q-5 0 -12.5 6.5t-15 15.5t-12.5 17.5t-5 12.5q0 9 2.5 14t8.5 13l245 330q5 8 14.5 14.5t18.5 6.5q12 0 23 -9.5t19 -20.5l248 -322q11 -14 11 -26q0 -4 -5 -12.5t-12.5 -17.5t-15 -15.5t-12.5 -6.5t-11 2.5t-11 7.5z M415 937q4 2 8.5 4t6.5 2q17 0 17 -24v-1026q0 -126 -36 -221.5t-102 -160.5t-159.5 -98t-207.5 -33q-36 0 -70 11t-60.5 29t-42.5 41t-16 47q0 15 5 31t15 28.5t25 20.5t35 8q6 0 12.5 -1.5t21 -9.5t39.5 -26t68 -51q13 -11 26 -17t28 -9t34.5 -4t46.5 -1q35 0 56 24.5 t32 59.5t14.5 74t3.5 68v958q0 24 -13 37.5t-33 20.5t-43 11.5t-44 10.5q-6 2 -9.5 5.5t-3.5 14.5q0 5 3 10t12 10z" />
<glyph unicode="&#x136;" horiz-adv-x="1659" d="M248 1235q0 34 -18.5 57t-47.5 37.5t-64.5 21.5t-69.5 9q-8 0 -8 8v34q0 8 7 8h678q5 0 6.5 -3t1.5 -5v-34q0 -6 -8 -6q-29 0 -62.5 -5t-62.5 -19t-48 -39t-19 -66v-411q0 -42 3 -65t14 -23q6 0 11.5 0.5t10.5 3.5q57 26 102.5 63t84 81t72 93t66.5 100q18 28 38 55.5 t36.5 53.5t27.5 50.5t11 48.5q0 27 -13 42.5t-33 23t-43 9.5t-43 2h-10q-5 0 -6.5 3t-1.5 5v34q0 2 1 5t7 3h608q5 0 6.5 -3t1.5 -5v-34q0 -3 -3 -7.5t-9 -4.5q-61 -2 -110.5 -10t-90.5 -27t-75.5 -52.5t-65.5 -85.5q-53 -90 -95 -154t-74.5 -108t-55.5 -71t-38.5 -44.5 t-24 -29t-10.5 -22.5q5 -10 23 -26.5t47.5 -43.5t70.5 -67t93 -98.5t115 -138t136 -183.5q35 -51 88 -82t119 -45q34 -8 54 -12t32 -5.5t19.5 -2t16.5 -0.5q5 0 6.5 -3t1.5 -5v-32q0 -8 -8 -8h-744q-8 0 -8 8v34q0 7 8 8q13 2 36.5 1.5t46 2.5t39.5 14t17 36q-2 17 -22.5 50 t-50.5 72.5t-64.5 80.5t-63.5 74q-35 39 -66.5 79.5t-64.5 74t-69 54.5t-78 21h-19q-8 0 -9 -3.5t-1 -10.5v-423q0 -45 18.5 -70t47 -37t62.5 -15t64 -3q5 0 6.5 -3t1.5 -5v-32q0 -2 -1.5 -5t-6.5 -3h-678q-7 0 -7 8v34q0 8 8 8q34 1 69.5 8.5t64.5 22t47.5 37.5t18.5 57 v1060zM715 -654q-20 0 -25 13t-5 24q1 13 8.5 24t18.5 20t22.5 17.5t20.5 16.5q14 14 29 31t27 36t20 39t8 40q0 8 -2.5 17t-19.5 9q-32 0 -64 10t-58 30t-42 49.5t-16 68.5q0 61 40.5 99.5t112.5 38.5q55 0 92 -20.5t60 -50t33 -63t10 -60.5q0 -54 -17 -106t-44.5 -98 t-63.5 -85t-74 -67q-15 -11 -34.5 -22t-36.5 -11z" />
<glyph unicode="&#x137;" horiz-adv-x="1278" d="M586 30q0 -14 -2 -22t-8 -8h-522q-10 2 -10 30q0 26 10 30q13 6 37 9.5t48 14t42 33t18 66.5v1180q0 24 -13 37.5t-33 20.5t-43 11.5t-44 10.5q-6 2 -9.5 5.5t-3.5 14.5q0 5 3 10t12 10l331 156q4 2 8.5 4t6.5 2q17 0 17 -24v-993q0 -30 11.5 -37t28.5 -7q22 0 55 13.5 t70.5 34.5t75 47t67 51.5t48.5 47t19 33.5q0 20 -19 27t-42.5 11.5t-42.5 11.5t-19 26q0 14 13 23.5t28 9.5h421q45 0 45 -23q0 -16 -23 -26.5t-57 -20.5t-71.5 -23.5t-65.5 -35.5l-287 -224q0 -8 7 -17.5t12 -14.5l381 -402q26 -27 57.5 -42t59.5 -25t46.5 -17t18.5 -19 t-2 -21t-14 -9h-545q-7 0 -8.5 8t-1.5 22q0 25 10 30t21 8t19.5 8.5t14 14.5t5.5 26q0 11 -14 29.5t-29 34.5l-279 296q0 1 -1 2h-1q-6 0 -9 -15t-3 -34v-247q0 -44 18 -66.5t42 -33t48 -14t37 -9.5q10 -4 10 -30zM561 -654q-20 0 -25 13t-5 24q1 13 8.5 24t18.5 20 t22.5 17.5t20.5 16.5q14 14 29 31t27 36t20 39t8 40q0 8 -2.5 17t-19.5 9q-32 0 -64 10t-58 30t-42 49.5t-16 68.5q0 61 40.5 99.5t112.5 38.5q55 0 92 -20.5t60 -50t33 -63t10 -60.5q0 -54 -17 -106t-44.5 -98t-63.5 -85t-74 -67q-15 -11 -34.5 -22t-36.5 -11z" />
<glyph unicode="&#x138;" horiz-adv-x="1278" d="M586 30q0 -14 -2 -22t-8 -8h-522q-10 2 -10 30q0 26 10 30q13 6 37 9.5t48 14t42 33t18 66.5v511q0 24 -13 37.5t-33 20.5t-43 11.5t-44 10.5q-6 2 -9.5 5.5t-3.5 14.5q0 5 3 10t12 10l331 156q4 2 8.5 4t6.5 2q17 0 17 -24v-324q0 -30 11.5 -37t28.5 -7q22 0 55 13.5 t70.5 34.5t75 47t67 51.5t48.5 47t19 33.5q0 20 -19 27t-42.5 11.5t-42.5 11.5t-19 26q0 14 13 23.5t28 9.5h421q45 0 45 -23q0 -16 -23 -26.5t-57 -20.5t-71.5 -23.5t-65.5 -35.5l-287 -224q0 -8 7 -17.5t12 -14.5l381 -402q26 -27 57.5 -42t59.5 -25t46.5 -17t18.5 -19 t-2 -21t-14 -9h-545q-7 0 -8.5 8t-1.5 22q0 25 10 30t21 8t19.5 8.5t14 14.5t5.5 26q0 11 -14 29.5t-29 34.5l-279 296q0 1 -1 2h-1q-6 0 -9 -15t-3 -34v-247q0 -44 18 -66.5t42 -33t48 -14t37 -9.5q10 -4 10 -30z" />
<glyph unicode="&#x139;" horiz-adv-x="1299" d="M48 0q-5 0 -6.5 3t-1.5 5v54q0 2 1 5t7 3h24q3 0 19.5 1.5t38 5t44.5 9.5t39 15q35 20 52 51.5t17 70.5v998q0 36 -23.5 59t-56 36.5t-66 18.5t-53.5 5h-22q-5 0 -6.5 3.5t-1.5 4.5v54q0 2 1.5 5t6.5 3h767q5 0 6.5 -3t1.5 -5v-54q0 -2 -1.5 -5t-6.5 -3h-43 q-56 0 -104 -9t-78 -20q-23 -8 -29.5 -26.5t-6.5 -63.5v-1049q2 -17 18 -32t36 -15h350q35 0 66.5 15t58.5 38.5t50 51.5t42 54t34 46.5t26 29.5q5 3 11.5 6t15.5 3q17 0 17 -13q0 -6 -3 -12l-166 -326q-4 -8 -9 -13t-12 -5h-1054v0zM371 1582q-3 4 -5.5 8t-2.5 10t3 10t5 8 l213 295q22 30 45 43.5t46 13.5q19 0 36 -7.5t29.5 -20.5t19.5 -30t7 -36q0 -37 -20 -64t-43 -46l-270 -218q-6 -5 -8.5 -5.5t-9.5 -0.5q-9 0 -13.5 2.5t-9.5 8.5z" />
<glyph unicode="&#x13a;" horiz-adv-x="597" d="M562 30q0 -6 -2 -17t-8 -13h-522q-6 2 -8 13t-2 17q0 5 3 16t7 13q13 6 37 9.5t48 14t42 33t18 66.5v1166q0 24 -13 37.5t-33 20.5t-43 11.5t-44 10.5q-13 5 -13 28q0 5 3 13.5t12 13.5l331 156q4 2 9 4t11 2q8 0 10 -5.5t2 -18.5v-1439q0 -44 18 -66.5t42 -33t48 -14 t37 -9.5q4 -2 7 -13t3 -16zM107 1706q-4 8 -4 14q0 8 4.5 12.5t9.5 8.5l286 225q43 33 81 33q19 0 35 -8t28 -21t18.5 -29.5t6.5 -34.5q0 -22 -8.5 -40.5t-22 -32.5t-30.5 -24.5t-33 -17.5l-320 -135q-6 -2 -10 -2q-9 0 -17.5 5t-10.5 14z" />
<glyph unicode="&#x13b;" horiz-adv-x="1299" d="M48 0q-5 0 -6.5 3t-1.5 5v54q0 2 1 5t7 3h24q3 0 19.5 1.5t38 5t44.5 9.5t39 15q35 20 52 51.5t17 70.5v998q0 36 -23.5 59t-56 36.5t-66 18.5t-53.5 5h-22q-5 0 -6.5 3.5t-1.5 4.5v54q0 2 1.5 5t6.5 3h767q5 0 6.5 -3t1.5 -5v-54q0 -2 -1.5 -5t-6.5 -3h-43 q-56 0 -104 -9t-78 -20q-23 -8 -29.5 -26.5t-6.5 -63.5v-1049q2 -17 18 -32t36 -15h350q35 0 66.5 15t58.5 38.5t50 51.5t42 54t34 46.5t26 29.5q5 3 11.5 6t15.5 3q17 0 17 -13q0 -6 -3 -12l-166 -326q-4 -8 -9 -13t-12 -5h-1054v0zM540 -654q-20 0 -25 13t-5 24 q1 13 8.5 24t18.5 20t22.5 17.5t20.5 16.5q14 14 29 31t27 36t20 39t8 40q0 8 -2.5 17t-19.5 9q-32 0 -64 10t-58 30t-42 49.5t-16 68.5q0 61 40.5 99.5t112.5 38.5q55 0 92 -20.5t60 -50t33 -63t10 -60.5q0 -54 -17 -106t-44.5 -98t-63.5 -85t-74 -67q-15 -11 -34.5 -22 t-36.5 -11z" />
<glyph unicode="&#x13c;" horiz-adv-x="597" d="M562 30q0 -6 -2 -17t-8 -13h-522q-6 2 -8 13t-2 17q0 5 3 16t7 13q13 6 37 9.5t48 14t42 33t18 66.5v1166q0 24 -13 37.5t-33 20.5t-43 11.5t-44 10.5q-13 5 -13 28q0 5 3 13.5t12 13.5l331 156q4 2 9 4t11 2q8 0 10 -5.5t2 -18.5v-1439q0 -44 18 -66.5t42 -33t48 -14 t37 -9.5q4 -2 7 -13t3 -16zM204 -654q-20 0 -25 13t-5 24q1 13 8.5 24t18.5 20t22.5 17.5t20.5 16.5q14 14 29 31t27 36t20 39t8 40q0 8 -2.5 17t-19.5 9q-32 0 -64 10t-58 30t-42 49.5t-16 68.5q0 61 40.5 99.5t112.5 38.5q55 0 92 -20.5t60 -50t33 -63t10 -60.5 q0 -54 -17 -106t-44.5 -98t-63.5 -85t-74 -67q-15 -11 -34.5 -22t-36.5 -11z" />
<glyph unicode="&#x13d;" horiz-adv-x="1355" d="M48 0q-5 0 -6.5 3t-1.5 5v54q0 2 1 5t7 3h24q3 0 19.5 1.5t38 5t44.5 9.5t39 15q35 20 52 51.5t17 70.5v998q0 36 -23.5 59t-56 36.5t-66 18.5t-53.5 5h-22q-5 0 -6.5 3.5t-1.5 4.5v54q0 2 1.5 5t6.5 3h767q5 0 6.5 -3t1.5 -5v-54q0 -2 -1.5 -5t-6.5 -3h-43 q-56 0 -104 -9t-78 -20q-23 -8 -29.5 -26.5t-6.5 -63.5v-1049q2 -17 18 -32t36 -15h350q35 0 66.5 15t58.5 38.5t50 51.5t42 54t34 46.5t26 29.5q5 3 11.5 6t15.5 3q17 0 17 -13q0 -6 -3 -12l-166 -326q-4 -8 -9 -13t-12 -5h-1054v0zM1074 807q-20 0 -25 13t-5 24 q1 13 8.5 24t18.5 20t22.5 17.5t20.5 16.5q14 14 29 31t27 36t20 39t8 40q0 8 -2.5 17t-19.5 9q-32 0 -65.5 10t-61.5 30t-45.5 49.5t-17.5 68.5q0 38 12 67.5t34 49.5t51.5 30.5t65.5 10.5q62 0 100.5 -23.5t59.5 -57t28 -70t7 -63.5q0 -54 -17 -106t-44.5 -98t-63.5 -85 t-74 -67q-15 -11 -34.5 -22t-36.5 -11z" />
<glyph unicode="&#x13e;" horiz-adv-x="932" d="M562 30q0 -6 -2 -17t-8 -13h-522q-6 2 -8 13t-2 17q0 5 3 16t7 13q13 6 37 9.5t48 14t42 33t18 66.5v1166q0 24 -13 37.5t-33 20.5t-43 11.5t-44 10.5q-13 5 -13 28q0 5 3 13.5t12 13.5l331 156q4 2 9 4t11 2q8 0 10 -5.5t2 -18.5v-1439q0 -44 18 -66.5t42 -33t48 -14 t37 -9.5q4 -2 7 -13t3 -16zM659 1040q-20 0 -25 13t-5 24q1 13 8.5 24t18.5 20t22.5 17.5t20.5 16.5q14 14 29 31t27 36t20 39t8 40q0 8 -2.5 17t-19.5 9q-32 0 -65.5 10t-61.5 30t-45.5 49.5t-17.5 68.5q0 38 12 67.5t34 49.5t51.5 30.5t65.5 10.5q62 0 100.5 -23.5 t59.5 -57t28 -70t7 -63.5q0 -54 -17 -106t-44.5 -98t-63.5 -85t-74 -67q-15 -11 -34.5 -22t-36.5 -11z" />
<glyph unicode="&#x13f;" horiz-adv-x="1299" d="M48 0q-5 0 -6.5 3t-1.5 5v54q0 2 1 5t7 3h24q3 0 19.5 1.5t38 5t44.5 9.5t39 15q35 20 52 51.5t17 70.5v998q0 36 -23.5 59t-56 36.5t-66 18.5t-53.5 5h-22q-5 0 -6.5 3.5t-1.5 4.5v54q0 2 1.5 5t6.5 3h767q5 0 6.5 -3t1.5 -5v-54q0 -2 -1.5 -5t-6.5 -3h-43 q-56 0 -104 -9t-78 -20q-23 -8 -29.5 -26.5t-6.5 -63.5v-1049q2 -17 18 -32t36 -15h350q35 0 66.5 15t58.5 38.5t50 51.5t42 54t34 46.5t26 29.5q5 3 11.5 6t15.5 3q17 0 17 -13q0 -6 -3 -12l-166 -326q-4 -8 -9 -13t-12 -5h-1054v0zM808 660q0 28 10.5 53t29.5 44 t43.5 29.5t53.5 10.5q28 0 53 -10.5t44 -29.5t29.5 -44t10.5 -53q0 -29 -10.5 -53.5t-29.5 -43.5t-44 -29.5t-53 -10.5q-29 0 -53.5 10.5t-43.5 29.5t-29.5 43.5t-10.5 53.5z" />
<glyph unicode="&#x140;" horiz-adv-x="946" d="M562 30q0 -6 -2 -17t-8 -13h-522q-6 2 -8 13t-2 17q0 5 3 16t7 13q13 6 37 9.5t48 14t42 33t18 66.5v1166q0 24 -13 37.5t-33 20.5t-43 11.5t-44 10.5q-13 5 -13 28q0 5 3 13.5t12 13.5l331 156q4 2 9 4t11 2q8 0 10 -5.5t2 -18.5v-1439q0 -44 18 -66.5t42 -33t48 -14 t37 -9.5q4 -2 7 -13t3 -16zM641 680q0 28 10.5 53t29.5 44t43.5 29.5t53.5 10.5q28 0 53 -10.5t44 -29.5t29.5 -44t10.5 -53q0 -29 -10.5 -53.5t-29.5 -43.5t-44 -29.5t-53 -10.5q-29 0 -53.5 10.5t-43.5 29.5t-29.5 43.5t-10.5 53.5z" />
<glyph unicode="&#x141;" horiz-adv-x="1299" d="M128 462q-5 -3 -11 -3q-13 0 -20 12l-44 62q-6 9 -6 17q0 10 9 16l227 159v496q0 36 -23.5 59t-56 36.5t-66 18.5t-53.5 5h-22q-5 0 -6.5 3.5t-1.5 4.5v54q0 2 1.5 5t6.5 3h767q5 0 6.5 -3t1.5 -5v-54q0 -2 -1.5 -5t-6.5 -3h-43q-56 0 -104 -9t-78 -20 q-23 -8 -29.5 -26.5t-6.5 -63.5v-297l288 202q5 4 11 4q12 0 21 -12l44 -63q5 -6 5 -16q0 -11 -8 -16l-361 -253v-598q2 -17 18 -32t36 -15h350q35 0 66.5 15t58.5 38.5t50 51.5t42 54t34 46.5t26 29.5q5 3 11.5 6t15.5 3q17 0 17 -13q0 -6 -3 -12l-166 -326q-4 -8 -9 -13 t-12 -5h-1054q-5 0 -6.5 3t-1.5 5v54q0 2 1 5t7 3h24q3 0 19.5 1.5t38 5t44.5 9.5t39 15q35 20 52 51.5t17 70.5v347l-155 -108v0z" />
<glyph unicode="&#x142;" horiz-adv-x="655" d="M97 511q-8 -5 -15 -5q-12 0 -20 11l-44 63q-5 8 -5 15q0 11 12 19l201 141v593q0 24 -13 37.5t-33 20.5t-43 11.5t-44 10.5q-13 5 -13 28q0 5 3 13.5t12 13.5l331 156q4 2 9 4t11 2q8 0 10 -5.5t2 -18.5v-704l162 114q7 6 15 6q12 0 20 -12l43 -62q6 -8 6 -15 q0 -13 -12 -20l-234 -164v-582q0 -44 18 -66.5t42 -33t48 -14t37 -9.5q4 -2 7 -13t3 -16q0 -6 -2 -17t-8 -13h-522q-6 2 -8 13t-2 17q0 5 3 16t7 13q13 6 37 9.5t48 14t42 33t18 66.5v419l-129 -90v0z" />
<glyph unicode="&#x143;" horiz-adv-x="1777" d="M68 0q-2 0 -5 2.5t-3 5.5v44q0 8 8 8h25t27.5 1t24.5 2t17 4q25 12 41 32t24.5 46t11.5 57t3 66v999q0 27 -21.5 43.5t-50 25t-58 11.5t-44.5 3q-5 0 -6.5 3t-1.5 5v44q0 2 1.5 5t6.5 3h453l862 -954q5 -5 7 -7.5t5 -2.5q4 0 5 3t1 6v594q0 99 -7 158.5t-26 91t-51 41.5 t-82 10h-51q-5 0 -6.5 3t-1.5 5v44q0 2 1.5 5t6.5 3h550q6 0 7 -3t1 -5v-44q0 -2 -1.5 -5t-6.5 -3q-20 0 -51.5 -8t-61.5 -23t-51.5 -37t-21.5 -50v-1183q0 -17 -8 -28.5t-20.5 -18.5t-27 -10.5t-26.5 -3.5q-20 0 -46.5 8.5t-52.5 37.5l-944 1047q-7 7 -10 8.5t-8 1.5 t-5 -10v-893q0 -28 13.5 -48.5t34.5 -35t46.5 -23t50 -13.5t44 -6.5t29.5 -1.5q5 0 7 -4q1 -2 1 -4v-44q0 -2 -1.5 -5t-6.5 -3h-550v0zM841 1582q-3 4 -5.5 8t-2.5 10t3 10t5 8l213 295q22 30 45 43.5t46 13.5q19 0 36 -7.5t29.5 -20.5t19.5 -30t7 -36q0 -37 -20 -64 t-43 -46l-270 -218q-6 -5 -8.5 -5.5t-9.5 -0.5q-9 0 -13.5 2.5t-9.5 8.5z" />
<glyph unicode="&#x144;" horiz-adv-x="1316" d="M407 970q4 2 8.5 4t6.5 2q17 0 17 -24v-156q3 -10 8 -10t8 0.5t8 3.5q64 33 108.5 55.5t77 38t58 24t51.5 13t57 5.5t76 1q49 0 85 -21t60.5 -55.5t40 -79t23.5 -91t11 -92t3 -82.5q0 -35 -1.5 -65t-3 -65.5t-3 -80.5t-1.5 -109q0 -30 11 -50t28.5 -33t38.5 -19.5 t41 -10.5t36.5 -6.5t25.5 -6.5q4 -2 7 -13t3 -16q0 -6 -2 -17.5t-8 -13.5h-558q-6 2 -8 13.5t-2 17.5q0 5 3 16t7 13q13 6 34.5 9.5t44 15.5t41 36.5t24.5 72.5q2 15 3.5 28t2.5 26.5t1.5 29.5t0.5 37q0 45 -1 96t-1 114q0 49 -4.5 97t-22 86t-51.5 62t-94 24 q-21 0 -37.5 -2.5t-40 -11.5t-61.5 -27t-102 -49q-8 -5 -16.5 -11.5t-9.5 -16.5v-490q0 -45 18 -68.5t42 -34t48 -14t37 -9.5q4 -2 7 -13t3 -16q0 -6 -2 -17.5t-8 -13.5h-522q-6 2 -8 13.5t-2 17.5q0 5 3 16t7 13q13 6 37 9.5t48 14t42 34t18 68.5v508q0 24 -13 37.5 t-33 20.5t-43 11.5t-44 10.5q-6 2 -9.5 5.5t-3.5 14.5q0 5 3 10t12 10zM542 1084q-3 4 -5.5 8t-2.5 10t3 10t5 8l213 295q22 30 45 43.5t46 13.5q19 0 36 -7.5t29.5 -20.5t19.5 -30t7 -36q0 -37 -20 -64t-43 -46l-270 -218q-6 -5 -8.5 -5.5t-9.5 -0.5q-9 0 -13.5 2.5 t-9.5 8.5z" />
<glyph unicode="&#x145;" horiz-adv-x="1777" d="M68 0q-2 0 -5 2.5t-3 5.5v44q0 8 8 8h25t27.5 1t24.5 2t17 4q25 12 41 32t24.5 46t11.5 57t3 66v999q0 27 -21.5 43.5t-50 25t-58 11.5t-44.5 3q-5 0 -6.5 3t-1.5 5v44q0 2 1.5 5t6.5 3h453l862 -954q5 -5 7 -7.5t5 -2.5q4 0 5 3t1 6v594q0 99 -7 158.5t-26 91t-51 41.5 t-82 10h-51q-5 0 -6.5 3t-1.5 5v44q0 2 1.5 5t6.5 3h550q6 0 7 -3t1 -5v-44q0 -2 -1.5 -5t-6.5 -3q-20 0 -51.5 -8t-61.5 -23t-51.5 -37t-21.5 -50v-1183q0 -17 -8 -28.5t-20.5 -18.5t-27 -10.5t-26.5 -3.5q-20 0 -46.5 8.5t-52.5 37.5l-944 1047q-7 7 -10 8.5t-8 1.5 t-5 -10v-893q0 -28 13.5 -48.5t34.5 -35t46.5 -23t50 -13.5t44 -6.5t29.5 -1.5q5 0 7 -4q1 -2 1 -4v-44q0 -2 -1.5 -5t-6.5 -3h-550v0zM850 -654q-20 0 -25 13t-5 24q1 13 8.5 24t18.5 20t22.5 17.5t20.5 16.5q14 14 29 31t27 36t20 39t8 40q0 8 -2.5 17t-19.5 9 q-32 0 -64 10t-58 30t-42 49.5t-16 68.5q0 61 40.5 99.5t112.5 38.5q55 0 92 -20.5t60 -50t33 -63t10 -60.5q0 -54 -17 -106t-44.5 -98t-63.5 -85t-74 -67q-15 -11 -34.5 -22t-36.5 -11z" />
<glyph unicode="&#x146;" horiz-adv-x="1316" d="M407 970q4 2 8.5 4t6.5 2q17 0 17 -24v-156q3 -10 8 -10t8 0.5t8 3.5q64 33 108.5 55.5t77 38t58 24t51.5 13t57 5.5t76 1q49 0 85 -21t60.5 -55.5t40 -79t23.5 -91t11 -92t3 -82.5q0 -35 -1.5 -65t-3 -65.5t-3 -80.5t-1.5 -109q0 -30 11 -50t28.5 -33t38.5 -19.5 t41 -10.5t36.5 -6.5t25.5 -6.5q4 -2 7 -13t3 -16q0 -6 -2 -17.5t-8 -13.5h-558q-6 2 -8 13.5t-2 17.5q0 5 3 16t7 13q13 6 34.5 9.5t44 15.5t41 36.5t24.5 72.5q2 15 3.5 28t2.5 26.5t1.5 29.5t0.5 37q0 45 -1 96t-1 114q0 49 -4.5 97t-22 86t-51.5 62t-94 24 q-21 0 -37.5 -2.5t-40 -11.5t-61.5 -27t-102 -49q-8 -5 -16.5 -11.5t-9.5 -16.5v-490q0 -45 18 -68.5t42 -34t48 -14t37 -9.5q4 -2 7 -13t3 -16q0 -6 -2 -17.5t-8 -13.5h-522q-6 2 -8 13.5t-2 17.5q0 5 3 16t7 13q13 6 37 9.5t48 14t42 34t18 68.5v508q0 24 -13 37.5 t-33 20.5t-43 11.5t-44 10.5q-6 2 -9.5 5.5t-3.5 14.5q0 5 3 10t12 10zM581 -654q-20 0 -25 13t-5 24q1 13 8.5 24t18.5 20t22.5 17.5t20.5 16.5q14 14 29 31t27 36t20 39t8 40q0 8 -2.5 17t-19.5 9q-32 0 -64 10t-58 30t-42 49.5t-16 68.5q0 61 40.5 99.5t112.5 38.5 q55 0 92 -20.5t60 -50t33 -63t10 -60.5q0 -54 -17 -106t-44.5 -98t-63.5 -85t-74 -67q-15 -11 -34.5 -22t-36.5 -11z" />
<glyph unicode="&#x147;" horiz-adv-x="1777" d="M68 0q-2 0 -5 2.5t-3 5.5v44q0 8 8 8h25t27.5 1t24.5 2t17 4q25 12 41 32t24.5 46t11.5 57t3 66v999q0 27 -21.5 43.5t-50 25t-58 11.5t-44.5 3q-5 0 -6.5 3t-1.5 5v44q0 2 1.5 5t6.5 3h453l862 -954q5 -5 7 -7.5t5 -2.5q4 0 5 3t1 6v594q0 99 -7 158.5t-26 91t-51 41.5 t-82 10h-51q-5 0 -6.5 3t-1.5 5v44q0 2 1.5 5t6.5 3h550q6 0 7 -3t1 -5v-44q0 -2 -1.5 -5t-6.5 -3q-20 0 -51.5 -8t-61.5 -23t-51.5 -37t-21.5 -50v-1183q0 -17 -8 -28.5t-20.5 -18.5t-27 -10.5t-26.5 -3.5q-20 0 -46.5 8.5t-52.5 37.5l-944 1047q-7 7 -10 8.5t-8 1.5 t-5 -10v-893q0 -28 13.5 -48.5t34.5 -35t46.5 -23t50 -13.5t44 -6.5t29.5 -1.5q5 0 7 -4q1 -2 1 -4v-44q0 -2 -1.5 -5t-6.5 -3h-550v0zM1134 1960q5 5 11 7.5t11 2.5t12.5 -6.5t15 -15.5t12.5 -17.5t5 -12.5q0 -12 -11 -26l-248 -322q-8 -11 -19 -20.5t-23 -9.5 q-9 0 -18.5 6.5t-14.5 14.5l-245 330q-6 8 -8.5 13t-2.5 14q0 4 5 12.5t12.5 17.5t15 15.5t12.5 6.5q4 0 11.5 -2.5t12.5 -7.5l220 -230z" />
<glyph unicode="&#x148;" horiz-adv-x="1316" d="M407 970q4 2 8.5 4t6.5 2q17 0 17 -24v-156q3 -10 8 -10t8 0.5t8 3.5q64 33 108.5 55.5t77 38t58 24t51.5 13t57 5.5t76 1q49 0 85 -21t60.5 -55.5t40 -79t23.5 -91t11 -92t3 -82.5q0 -35 -1.5 -65t-3 -65.5t-3 -80.5t-1.5 -109q0 -30 11 -50t28.5 -33t38.5 -19.5 t41 -10.5t36.5 -6.5t25.5 -6.5q4 -2 7 -13t3 -16q0 -6 -2 -17.5t-8 -13.5h-558q-6 2 -8 13.5t-2 17.5q0 5 3 16t7 13q13 6 34.5 9.5t44 15.5t41 36.5t24.5 72.5q2 15 3.5 28t2.5 26.5t1.5 29.5t0.5 37q0 45 -1 96t-1 114q0 49 -4.5 97t-22 86t-51.5 62t-94 24 q-21 0 -37.5 -2.5t-40 -11.5t-61.5 -27t-102 -49q-8 -5 -16.5 -11.5t-9.5 -16.5v-490q0 -45 18 -68.5t42 -34t48 -14t37 -9.5q4 -2 7 -13t3 -16q0 -6 -2 -17.5t-8 -13.5h-522q-6 2 -8 13.5t-2 17.5q0 5 3 16t7 13q13 6 37 9.5t48 14t42 34t18 68.5v508q0 24 -13 37.5 t-33 20.5t-43 11.5t-44 10.5q-6 2 -9.5 5.5t-3.5 14.5q0 5 3 10t12 10zM905 1463q5 5 11 7.5t11 2.5t12.5 -6.5t15 -15.5t12.5 -17.5t5 -12.5q0 -12 -11 -26l-248 -322q-8 -11 -19 -20.5t-23 -9.5q-9 0 -18.5 6.5t-14.5 14.5l-245 330q-6 8 -8.5 13t-2.5 14q0 4 5 12.5 t12.5 17.5t15 15.5t12.5 6.5q4 0 11.5 -2.5t12.5 -7.5l220 -230z" />
<glyph unicode="&#x149;" horiz-adv-x="1590" d="M681 970q4 2 8.5 4t6.5 2q17 0 17 -24v-156q3 -10 8 -10t8 0.5t8 3.5q64 33 108.5 55.5t77 38t58 24t51.5 13t57 5.5t76 1q49 0 85 -21t60.5 -55.5t40 -79t23.5 -91t11 -92t3 -82.5q0 -35 -1.5 -65t-3 -65.5t-3 -80.5t-1.5 -109q0 -30 11 -50t28.5 -33t38.5 -19.5 t41 -10.5t36.5 -6.5t25.5 -6.5q4 -2 7 -13t3 -16q0 -6 -2 -17.5t-8 -13.5h-558q-6 2 -8 13.5t-2 17.5q0 5 3 16t7 13q13 6 34.5 9.5t44 15.5t41 36.5t24.5 72.5q2 15 3.5 28t2.5 26.5t1.5 29.5t0.5 37q0 45 -1 96t-1 114q0 49 -4.5 97t-22 86t-51.5 62t-94 24 q-21 0 -37.5 -2.5t-40 -11.5t-61.5 -27t-102 -49q-8 -5 -16.5 -11.5t-9.5 -16.5v-490q0 -45 18 -68.5t42 -34t48 -14t37 -9.5q4 -2 7 -13t3 -16q0 -6 -2 -17.5t-8 -13.5h-522q-6 2 -8 13.5t-2 17.5q0 5 3 16t7 13q13 6 37 9.5t48 14t42 34t18 68.5v508q0 24 -13 37.5 t-33 20.5t-43 11.5t-44 10.5q-6 2 -9.5 5.5t-3.5 14.5q0 5 3 10t12 10zM90 807q-20 0 -25 13t-5 24q1 13 8.5 24t18.5 20t22.5 17.5t20.5 16.5q14 14 29 31t27 36t20 39t8 40q0 8 -2.5 17t-19.5 9q-32 0 -65.5 10t-61.5 30t-45.5 49.5t-17.5 68.5q0 38 12 67.5t34 49.5 t51.5 30.5t65.5 10.5q62 0 100.5 -23.5t59.5 -57t28 -70t7 -63.5q0 -54 -17 -106t-44.5 -98t-63.5 -85t-74 -67q-15 -11 -34.5 -22t-36.5 -11z" />
<glyph unicode="&#x14a;" horiz-adv-x="1777" d="M1285 -523q31 0 53.5 24.5t36 59.5t20 74t6.5 68v297l-978 1081q-7 7 -10 8.5t-8 1.5t-5 -10v-893q0 -28 13.5 -48.5t34.5 -35t46.5 -23t50 -13.5t44 -6.5t29.5 -1.5q5 0 7 -4q1 -2 1 -4v-44q0 -2 -1.5 -5t-6.5 -3h-550q-2 0 -5 2.5t-3 5.5v44q0 8 8 8h25t27.5 1t24.5 2 t17 4q25 12 41 32t24.5 46t11.5 57t3 66v999q0 27 -21.5 43.5t-50 25t-58 11.5t-44.5 3q-5 0 -6.5 3t-1.5 5v44q0 2 1.5 5t6.5 3h453l862 -954q5 -5 7 -7.5t5 -2.5q4 0 5 3t1 6v594q0 99 -7 158.5t-26 91t-51 41.5t-82 10h-51q-5 0 -6.5 3t-1.5 5v44q0 2 1.5 5t6.5 3h550 q6 0 7 -3t1 -5v-44q0 -2 -1.5 -5t-6.5 -3q-20 0 -51.5 -8t-61.5 -23t-51.5 -37t-21.5 -50v-1371q0 -101 -18.5 -188.5t-64 -152.5t-121.5 -102.5t-191 -37.5q-43 0 -82 11t-68 29t-46.5 41t-17.5 47q0 15 6.5 31t18.5 28.5t28.5 20.5t36.5 8q23 0 49.5 -18.5t58 -41t68 -41 t80.5 -18.5z" />
<glyph unicode="&#x14b;" horiz-adv-x="1289" d="M609 -620q-36 0 -70 11t-60.5 29t-42.5 41t-16 47q0 15 4.5 31t13.5 28.5t22 20.5t30 8q13 0 22.5 -1.5t23.5 -9.5t38 -26t67 -51q28 -22 52.5 -31.5t46.5 -9.5q34 0 60.5 21t44.5 55t27.5 76t9.5 84v822q0 49 -5 97t-23 86t-53 62t-95 24q-21 0 -38 -1.5t-41 -10 t-61.5 -26.5t-100.5 -52q-8 -5 -16.5 -11.5t-9.5 -16.5v-490q0 -45 18 -68.5t42 -34t48 -14t37 -9.5q4 -2 7 -13t3 -16q0 -6 -2 -17.5t-8 -13.5h-522q-6 2 -8 13.5t-2 17.5q0 5 3 16t7 13q13 6 37 9.5t48 14t42 34t18 68.5v508q0 24 -13 37.5t-33 20.5t-43 11.5t-44 10.5 q-6 2 -9.5 5.5t-3.5 14.5q0 5 3 10t12 10l331 156q4 2 8.5 4t6.5 2q17 0 17 -24v-156q3 -10 8 -10t8 0.5t8 3.5q64 33 108.5 55.5t77 38t58 24t51.5 13t57 5.5t76 1q49 0 85 -21t60.5 -55.5t40 -79t23.5 -91t11 -92t3 -82.5v-613q0 -118 -36 -213t-102 -161.5t-159.5 -102.5 t-207.5 -36z" />
<glyph unicode="&#x14c;" horiz-adv-x="1826" d="M902 -26q-35 0 -87.5 6t-115 22t-130.5 42t-133.5 66.5t-124.5 96t-103.5 129t-71 167.5t-26.5 211q0 104 28.5 199t81.5 177t128.5 149t168.5 114t202 73t229 26q104 0 201.5 -25.5t182.5 -72t155.5 -111.5t121.5 -145t79 -172.5t28 -192.5q0 -94 -27 -186.5t-78 -177 t-123.5 -156.5t-162.5 -125.5t-197 -83.5t-226 -30zM404 751q0 -81 16.5 -162t48.5 -156t79 -140.5t107 -114t133.5 -76t159.5 -27.5q121 0 210 51.5t147.5 136.5t87 195.5t28.5 228.5q0 86 -16.5 168.5t-48 157t-78 137t-107 108.5t-134 71.5t-159.5 25.5q-77 0 -142 -24 t-117.5 -65.5t-92.5 -99t-67 -124.5t-41 -141.5t-14 -149.5zM592 1884h687v-169h-687v169z" />
<glyph unicode="&#x14d;" horiz-adv-x="1197" d="M75 467q0 94 41.5 180t111.5 152t163 105t196 39q108 0 205 -37t170.5 -101.5t116.5 -152t43 -189.5q0 -104 -39.5 -193.5t-109.5 -155.5t-166.5 -103.5t-210.5 -37.5q-113 0 -208.5 38.5t-165 105t-108.5 156.5t-39 194zM331 530q0 -54 8 -111.5t24 -112t40.5 -102.5 t58.5 -84.5t77 -57.5t97 -21q59 0 101.5 30.5t70 79.5t40.5 110t13 122q0 49 -9 103.5t-27 108t-44 102.5t-60.5 86.5t-77 59.5t-92.5 22q-56 0 -97.5 -30.5t-68.5 -79t-40.5 -108t-13.5 -117.5zM256 1342h687v-169h-687v169z" />
<glyph unicode="&#x14e;" horiz-adv-x="1826" d="M902 -26q-35 0 -87.5 6t-115 22t-130.5 42t-133.5 66.5t-124.5 96t-103.5 129t-71 167.5t-26.5 211q0 104 28.5 199t81.5 177t128.5 149t168.5 114t202 73t229 26q104 0 201.5 -25.5t182.5 -72t155.5 -111.5t121.5 -145t79 -172.5t28 -192.5q0 -94 -27 -186.5t-78 -177 t-123.5 -156.5t-162.5 -125.5t-197 -83.5t-226 -30zM404 751q0 -81 16.5 -162t48.5 -156t79 -140.5t107 -114t133.5 -76t159.5 -27.5q121 0 210 51.5t147.5 136.5t87 195.5t28.5 228.5q0 86 -16.5 168.5t-48 157t-78 137t-107 108.5t-134 71.5t-159.5 25.5q-77 0 -142 -24 t-117.5 -65.5t-92.5 -99t-67 -124.5t-41 -141.5t-14 -149.5zM917 1618q-62 0 -115.5 29.5t-92.5 78t-61.5 112t-22.5 132.5h51q0 -45 22 -80.5t56.5 -60.5t77.5 -38.5t85 -13.5t84 19t76 47.5t55 62.5t21 64h53q0 -63 -23 -126t-63 -113t-92.5 -81.5t-110.5 -31.5z" />
<glyph unicode="&#x14f;" horiz-adv-x="1197" d="M75 467q0 94 41.5 180t111.5 152t163 105t196 39q108 0 205 -37t170.5 -101.5t116.5 -152t43 -189.5q0 -104 -39.5 -193.5t-109.5 -155.5t-166.5 -103.5t-210.5 -37.5q-113 0 -208.5 38.5t-165 105t-108.5 156.5t-39 194zM331 530q0 -54 8 -111.5t24 -112t40.5 -102.5 t58.5 -84.5t77 -57.5t97 -21q59 0 101.5 30.5t70 79.5t40.5 110t13 122q0 49 -9 103.5t-27 108t-44 102.5t-60.5 86.5t-77 59.5t-92.5 22q-56 0 -97.5 -30.5t-68.5 -79t-40.5 -108t-13.5 -117.5zM602 1076q-62 0 -115.5 29.5t-92.5 78t-61.5 112t-22.5 132.5h51 q0 -45 22 -80.5t56.5 -60.5t77.5 -38.5t85 -13.5t84 19t76 47.5t55 62.5t21 64h53q0 -63 -23 -126t-63 -113t-92.5 -81.5t-110.5 -31.5z" />
<glyph unicode="&#x150;" horiz-adv-x="1826" d="M902 -26q-35 0 -87.5 6t-115 22t-130.5 42t-133.5 66.5t-124.5 96t-103.5 129t-71 167.5t-26.5 211q0 104 28.5 199t81.5 177t128.5 149t168.5 114t202 73t229 26q104 0 201.5 -25.5t182.5 -72t155.5 -111.5t121.5 -145t79 -172.5t28 -192.5q0 -94 -27 -186.5t-78 -177 t-123.5 -156.5t-162.5 -125.5t-197 -83.5t-226 -30zM404 751q0 -81 16.5 -162t48.5 -156t79 -140.5t107 -114t133.5 -76t159.5 -27.5q121 0 210 51.5t147.5 136.5t87 195.5t28.5 228.5q0 86 -16.5 168.5t-48 157t-78 137t-107 108.5t-134 71.5t-159.5 25.5q-77 0 -142 -24 t-117.5 -65.5t-92.5 -99t-67 -124.5t-41 -141.5t-14 -149.5zM767 1582q-3 4 -5.5 8t-2.5 10t3 10t5 8l213 295q22 30 45 43.5t46 13.5q19 0 36 -7.5t29.5 -20.5t19.5 -30t7 -36q0 -37 -20 -64t-43 -46l-270 -218q-6 -5 -8.5 -5.5t-9.5 -0.5q-9 0 -13.5 2.5t-9.5 8.5z M1082 1582q-3 4 -5.5 8t-2.5 10t3 10t5 8l213 295q22 30 45 43.5t46 13.5q19 0 36 -7.5t29.5 -20.5t19.5 -30t7 -36q0 -37 -20 -64t-43 -46l-270 -218q-6 -5 -8.5 -5.5t-9.5 -0.5q-9 0 -13.5 2.5t-9.5 8.5z" />
</font>
</defs>
</svg>
